<?xml version="1.0" encoding="UTF-8"?>
<!-- Generator: Adobe Illustrator 25.2.1, SVG Export Plug-In . SVG Version: 6.00 Build 0)  -->
<svg xmlns="http://www.w3.org/2000/svg" xmlns:xlink="http://www.w3.org/1999/xlink" version="1.1" id="Capa_1" x="0px" y="0px" viewBox="0 0 512 512" style="enable-background:new 0 0 512 512;" xml:space="preserve" width="512" height="512">
<g>
	<g>
		<g>
			<g>
				<path style="fill:#FFCF00;" d="M206.086,114.279c1.956,9.181,2.511,19.573,4.11,29.825      c4.404,28.231,10.477,75.234,14.626,103.733c0.613,4.21-0.985,0.552-18.588,8.146c-28.302,12.211-50.978,34.781-68.705,60.146      c-1.964,2.81-1.068,2.45-12.962-7.274c-4.583-3.747-19.233-13.258-31.974-19.295c-18.2-8.624-28.863-10.487-38.945-12.372      c-2.097-0.392-2.224-0.497-2.6-2.635c-1.022-5.805-1.433-11.659-1.582-17.552c-1.484-59.074,28.525-120.329,67.778-152.368      c17.555-14.328,35.484-22.055,45.407-23.931c1.845-0.349,3.632-1.088,5.53-1.237c6.269-0.492,12.528-0.894,18.727,0.746      C203.739,84.665,203.743,95.679,206.086,114.279z"/>
				<path style="fill:#FFCF00;" d="M6.723,125.957c-1.28-13.496,9.837-21.544,22.934-24.858c3.717-0.94,10.297-2.984,24.897-1.716      c17.21,1.494,36.567,8.026,47.887,14.3c2.171,1.204,0.89,2.369-1.034,4.422C72.328,149.131,52.095,194.81,48.68,239.13      c-2.24,29.066,2.809,37.252-0.162,37.346c-2.369,0.074-6.08-0.615-11.346-0.042c-1.382,0.15-2.784,0.12-4.177,0.147      c-1.741,0.034-1.74-0.629-2.142-3.24C29.197,262.567,7.655,135.785,6.723,125.957z"/>
			</g>
			<g>
				<path style="fill:#FD8A02;" d="M119.918,156.785c-2.38-5.815,1.396-12.858,9.429-14.376c8.082-1.528,18.102,6.565,11.844,16.149      C136.304,166.042,123.332,165.126,119.918,156.785z"/>
				<path style="fill:#FD8A02;" d="M18.752,140.752c-2.38-5.815,1.396-12.858,9.429-14.376c8.082-1.528,18.102,6.565,11.845,16.149      C35.138,150.009,22.166,149.093,18.752,140.752z"/>
				<path style="fill:#FD8A02;" d="M124.714,280.87c-2.38-5.815,1.397-12.858,9.429-14.376c8.082-1.528,18.102,6.565,11.845,16.149      C141.1,290.128,128.128,289.211,124.714,280.87z"/>
				<path style="fill:#FD8A02;" d="M161.85,169.877c-1.599-3.906,0.938-8.638,6.334-9.658c5.429-1.026,12.161,4.411,7.957,10.849      C172.858,176.096,164.144,175.48,161.85,169.877z"/>
				<path style="fill:#FD8A02;" d="M193.534,241.553c-1.599-3.906,0.938-8.638,6.334-9.658c5.429-1.027,12.161,4.41,7.957,10.849      C204.542,247.772,195.828,247.156,193.534,241.553z"/>
				<path style="fill:#FD8A02;" d="M28.792,207.129c-1.599-3.906,0.938-8.638,6.334-9.658c5.429-1.027,12.161,4.41,7.957,10.849      C39.8,213.348,31.085,212.732,28.792,207.129z"/>
				<path style="fill:#FD8A02;" d="M157.963,127.802c-5.574-5.004,2.459-13.759,9.255-8.629c2.397,1.809,2.943,5.152,1.289,7.652      C166.213,130.291,160.976,130.507,157.963,127.802z"/>
				<path style="fill:#FD8A02;" d="M190.356,204.128c-5.574-5.004,2.459-13.759,9.255-8.629c2.397,1.809,2.943,5.152,1.289,7.652      C198.606,206.616,193.369,206.833,190.356,204.128z"/>
				<path style="fill:#FD8A02;" d="M39.814,173.027c-5.574-5.005,2.459-13.759,9.255-8.63c2.397,1.809,2.944,5.152,1.289,7.652      C48.064,175.515,42.828,175.732,39.814,173.027z"/>
				<path style="fill:#FD8A02;" d="M103.938,191.554c-5.574-5.005,2.459-13.759,9.255-8.63c2.397,1.809,2.943,5.152,1.289,7.651      C112.187,194.042,106.951,194.259,103.938,191.554z"/>
				<path style="fill:#FD8A02;" d="M61.312,269.615c-5.574-5.005,2.459-13.759,9.255-8.63c2.397,1.809,2.944,5.152,1.289,7.652      C69.561,272.103,64.325,272.32,61.312,269.615z"/>
			</g>
			<g>
				<path style="fill:#91D728;" d="M43.379,42.74c3.618,6.019,1.01,3.786-0.262,15.771c-0.382,3.598-0.778,3.578-2.9,3.062      c-13.354-3.249-23.903,5.553-27.157,18.04c-1.825,7.001-0.664,8.771-1.844,8.847c-1.06,0.068-3.271-2.696-4.052-4.167      C3.651,77.671,3.344,70.99,6.879,64.26c2.39-4.548,3.54-6.102,3.702-10.906c0.107-3.166-1.094-5.852-3.353-8.04      C2.392,40.629,0.532,32.04,5.766,27.772C14.972,20.266,33.327,26.022,43.379,42.74z"/>
				<path style="fill:#91D728;" d="M175.024,30.369c-1.443,4.021-4.008,7.322-6.752,10.504c-0.674,0.781-1.567,1.219-2.587,1.381      c-8.79,1.397-14.631,6.76-18.985,14.119c-0.152,0.257-0.256,0.543-0.417,0.793c-2.776,4.313-3.248-7.702-20.083-9.601      c-2.469-0.278-2.676-0.515-2.262-3.031c0.812-4.938,2.669-9.369,6.364-12.894c6.514-6.213,10.079-3.692,18.283-7.376      c6.394-2.871,6.312-6.254,10.16-11.332c2.923-3.856,10.744-5.728,15.013,0.09C175.193,14.979,177.329,23.946,175.024,30.369z"/>
			</g>
			<g>
				<path style="fill:#DB5E43;" d="M19.864,103.41c-2.552,1.3-3.453,1.414-4.531-2.296C7.406,73.83,24.9,56.779,42.542,63.551      c4.25,1.631,5.385,3.26,9.872,6.139c5.413,3.474,11.333,2.202,14.84-1.346c3.098-3.134,4.704-5.08,9.646-6.043      c6.617-1.289,12.399,0.736,17.913,4.073c3.225,1.952-2.941,3.391-8.175,23.482c-3.036,11.653-1.506,14.579-3.752,14.113      c-4.279-0.889-16.264-5.799-35.8-6.272C38.059,97.479,28.047,99.241,19.864,103.41z"/>
				<path style="fill:#DB5E43;" d="M127.035,29.584c1.349,1.833,1.395,2.113,0.058,3.942c-2.348,3.213-3.758,6.783-4.33,10.703      c-0.043,0.296-0.153,0.589-0.152,0.883c0.005,1.793-0.879,2.721-2.646,3.028c-2.074,0.36-4.002,1.194-5.883,2.131      c-8.355,4.157-12.783,10.361-16.533,14.848c-1.008,1.205-1.399,0.567-2.309,0.145c-2.134-0.988-3.579-2.447-3.439-4.999      c-4.71-22.27-14.245-24.702-12.018-27.328C93.282,17.019,116.209,14.876,127.035,29.584z"/>
				<path style="fill:#DB5E43;" d="M189.984,63.001c0.856,4.106,0.133,8.695-1.389,13.207c-0.455,1.349-0.851,2.647-2.122,2.5      c-3.484-0.404-9.829-2.106-21.415,0.053c-4.974,0.927-9.489,2.649-10.689,2.801c-2.712,0.345-1.173-8.351-7.214-19.068      c-0.772-1.369-0.878-2.581-0.206-3.948c10.513-21.411,35.494-19.3,41.888-1.159C189.408,59.011,189.562,60.698,189.984,63.001z"/>
			</g>
			<g>
				<path style="fill:#FF8EDE;" d="M249.659,426.987c0.902,5.949-1.935,21.378-9.548,32.827      c-14.971,22.516-54.34,40.367-82.666,42.515c-17.007,1.289-35.914-0.294-52.058-5.48c-1.868-0.601-2.751-0.683-3.2-2.269      c-0.761-2.689-1.413-5.394-1.874-8.156c-0.359-2.156-1.053-4.256-1.412-6.412c-14.205-85.236,36.477-201.818,122.312-227.894      c4.188-1.272,4.073-0.438,4.588,2.918C228.233,270.9,249.64,426.864,249.659,426.987z"/>
				<path style="fill:#FF8EDE;" d="M55.29,421.585c-1.461-9.573-20.723-125.172-23.246-140.845      c-0.333-2.069-0.132-2.352,2.042-2.737c3.16-0.56,6.354-0.568,9.544-0.467c30.722,0.973,66.458,19.68,90.172,40.446      c1.383,1.211,1.437,1.696,0.36,3.306c-24.957,37.301-42.05,91.669-38.174,144.173c1.736,23.513,6.502,29.671,3.286,29.081      c-3.349-0.615-17.236-7.074-25.041-15.809c-5.649-6.322-10.006-13.421-12.7-21.494c-1.045-3.134-5.623-32.413-6.121-35.674      C55.372,421.573,55.331,421.579,55.29,421.585z"/>
				<path style="fill:#FF8EDE;" d="M151.438,80.804c0.189,1.675-0.057,2.117-1.642,2.716c-8.58,3.244-20.8,9.993-32.4,19.55      c-12.683,10.45-10.635,11.513-14.519,9.487c-14.977-7.808-17.727-5.58-17.283-10.249c1.091-11.466,5.2-23.629,10.088-31.702      C117.501,34.578,147.588,46.573,151.438,80.804z"/>
				<path style="fill:#FF8EDE;" d="M84.533,43.702c2.301,4.2,4.119,8.617,5.154,13.329c0.237,1.079,2.229,5.765-0.36,5.173      c-1.715-0.392-5.043-1.817-10.274-1.639c-6.591,0.224-9.741,4.078-12.717,6.957c-3.829,3.704-9.595,4.386-15.953-0.612      c-1.493-1.173-2.999-2.325-4.683-3.194c-1.223-0.631-1.746-1.51-1.622-2.879C47.22,26.062,70.827,18.686,84.533,43.702z"/>
			</g>
			<g style="opacity:0.4;">
				<g>
					<path style="fill:#FFFFFF;" d="M214.112,269.936l11.563-15.729c-0.019-0.133-0.04-0.264-0.059-0.386l-2.873-2.111       c-0.434,0.095-0.935,0.227-1.53,0.408c-7,2.127-13.763,4.866-20.279,8.13L214.112,269.936z"/>
					<path style="fill:#FFFFFF;" d="M186.487,274.085l7.38-10.037c-3.843,2.215-7.589,4.623-11.238,7.199L186.487,274.085z"/>
					<path style="fill:#FFFFFF;" d="M214.112,269.936l-11.674,15.876l15.877,11.672l11.329-15.409       c-0.038-0.271-0.074-0.533-0.111-0.801L214.112,269.936z"/>
					
						<rect x="178.7" y="278.025" transform="matrix(0.5924 -0.8057 0.8057 0.5924 -155.0915 269.308)" style="fill:#FFFFFF;" width="19.798" height="19.798"/>
					<path style="fill:#FFFFFF;" d="M152.826,298.367l10.261,7.544l11.674-15.875l-8.059-5.924       C161.854,288.559,157.229,293.329,152.826,298.367z"/>
					<path style="fill:#FFFFFF;" d="M233.323,308.52l-15.008-11.036l-11.728,15.951l15.951,11.727l11.016-14.983       C233.478,309.626,233.4,309.07,233.323,308.52z"/>
					
						<rect x="182.96" y="305.685" transform="matrix(0.5924 -0.8057 0.8057 0.5924 -175.621 283.9581)" style="fill:#FFFFFF;" width="19.706" height="19.706"/>
					<path style="fill:#FFFFFF;" d="M222.539,325.164l-11.674,15.875l15.877,11.673l10.686-14.535       c-0.106-0.766-0.212-1.533-0.318-2.299L222.539,325.164z"/>
					
						<rect x="155.299" y="309.851" transform="matrix(0.5924 -0.8057 0.8057 0.5924 -190.2732 263.4406)" style="fill:#FFFFFF;" width="19.799" height="19.798"/>
					<path style="fill:#FFFFFF;" d="M76.034,290.938l3.982-5.417c-6.389-2.435-12.836-4.401-19.208-5.779L76.034,290.938z"/>
					<path style="fill:#FFFFFF;" d="M115.464,303.996c-5.419-3.618-11.13-7.026-17.018-10.118l-6.46,8.788l15.875,11.672       L115.464,303.996z"/>
					<path style="fill:#FFFFFF;" d="M128.823,329.751c1.735-2.904,3.512-5.734,5.338-8.463c1.078-1.609,1.024-2.095-0.36-3.306       c-0.811-0.711-1.642-1.42-2.483-2.127l-7.506,10.211L128.823,329.751z"/>
					<path style="fill:#FFFFFF;" d="M32.491,283.498l15.939,11.718l11.507-15.653c-5.527-1.148-10.993-1.859-16.308-2.027       c-2.291-0.072-4.584-0.08-6.866,0.124l-4.276,5.816C32.489,283.484,32.49,283.49,32.491,283.498z"/>
					
						<rect x="68.246" y="294.878" transform="matrix(0.5924 -0.8056 0.8056 0.5924 -213.6886 187.1802)" style="fill:#FFFFFF;" width="19.798" height="19.798"/>
					<path style="fill:#FFFFFF;" d="M37.085,311.333l15.548,11.431l11.672-15.875L48.43,295.216l-11.438,15.557       C37.023,310.958,37.053,311.148,37.085,311.333z"/>
					
						<rect x="100.073" y="318.278" transform="matrix(0.5924 -0.8057 0.8057 0.5924 -219.5742 222.3779)" style="fill:#FFFFFF;" width="19.799" height="19.798"/>
					
						<rect x="72.505" y="322.538" transform="matrix(0.5923 -0.8057 0.8057 0.5923 -234.2313 201.8624)" style="fill:#FFFFFF;" width="19.706" height="19.706"/>
					<path style="fill:#FFFFFF;" d="M112.084,342.017l-11.672,15.875l10.985,8.077c2.436-6.41,5.103-12.626,7.969-18.597       L112.084,342.017z"/>
					<path style="fill:#FFFFFF;" d="M56.857,350.443l11.726-15.95l-15.949-11.728L41.491,337.92c0.076,0.465,0.155,0.93,0.231,1.396       L56.857,350.443z"/>
					
						<rect x="76.673" y="350.106" transform="matrix(0.5924 -0.8057 0.8057 0.5924 -254.7513 216.4895)" style="fill:#FFFFFF;" width="19.798" height="19.798"/>
					<path style="fill:#FFFFFF;" d="M46.339,367.168l14.722,10.824l11.672-15.876l-15.875-11.672l-10.845,14.75       C46.12,365.855,46.229,366.511,46.339,367.168z"/>
					<path style="fill:#FFFFFF;" d="M104.559,385.516l0.27,0.198c0.09-0.31,0.177-0.62,0.269-0.928L104.559,385.516z"/>
					
						<rect x="80.932" y="377.765" transform="matrix(0.5923 -0.8057 0.8057 0.5923 -275.2926 231.1674)" style="fill:#FFFFFF;" width="19.705" height="19.705"/>
					<path style="fill:#FFFFFF;" d="M61.06,377.992l-10.555,14.355c0.155,0.947,0.311,1.881,0.462,2.798l14.317,10.525L77.01,389.72       L61.06,377.992z"/>
					<path style="fill:#FFFFFF;" d="M99.809,406.481l-6.922-5.089l-11.728,15.952l15.386,11.312       C97.285,421.194,98.378,413.784,99.809,406.481z"/>
					<path style="fill:#FFFFFF;" d="M54.989,419.673c0.133,0.835,0.236,1.484,0.301,1.913c0.041-0.006,0.082-0.013,0.123-0.019       c0.045,0.292,0.122,0.8,0.227,1.473l13.848,10.18l11.672-15.876l-15.875-11.673L54.989,419.673z"/>
					<path style="fill:#FFFFFF;" d="M96.409,430.026l-10.972,14.921l10.025,7.37C95.394,444.874,95.718,437.427,96.409,430.026z"/>
					<path style="fill:#FFFFFF;" d="M69.487,433.22l-9.985,13.579c0.258,1.5,0.506,2.912,0.739,4.196l13.469,9.903l11.726-15.951       L69.487,433.22z"/>
					<path style="fill:#FFFFFF;" d="M95.988,465.462c-0.036-0.491-0.059-0.984-0.09-1.476l-6.312,8.584l7.843,5.766       C96.881,474.77,96.364,470.543,95.988,465.462z"/>
					<path style="fill:#FFFFFF;" d="M67.348,469.551c2.007,3.233,4.303,6.294,6.884,9.184c1.889,2.112,4.134,4.087,6.497,5.882       l8.857-12.046L73.71,460.898L67.348,469.551z"/>
					<path style="fill:#FFFFFF;" d="M100.085,491.713l-1.872,2.546c0.412,0.128,0.784,0.233,1.06,0.284       C100.494,494.766,100.562,494.01,100.085,491.713z"/>
					<path style="fill:#FFFFFF;" d="M129.827,330.489l9.86,7.25l11.672-15.876l-10.808-7.948       C136.751,319.241,133.175,324.78,129.827,330.489z"/>
					
						<rect x="187.127" y="333.252" transform="matrix(0.5924 -0.8056 0.8056 0.5924 -196.1493 298.5973)" style="fill:#FFFFFF;" width="19.798" height="19.798"/>
					
						<rect x="159.56" y="337.512" transform="matrix(0.5924 -0.8056 0.8056 0.5924 -210.8001 278.0755)" style="fill:#FFFFFF;" width="19.705" height="19.705"/>
					<path style="fill:#FFFFFF;" d="M240.868,363.097l-14.125-10.385l-11.728,15.951l15.951,11.728l10.346-14.072       C241.163,365.251,241.016,364.175,240.868,363.097z"/>
					
						<rect x="191.387" y="360.912" transform="matrix(0.5924 -0.8057 0.8057 0.5924 -216.6805 313.2618)" style="fill:#FFFFFF;" width="19.705" height="19.705"/>
					<path style="fill:#FFFFFF;" d="M230.965,380.39l-11.674,15.876l15.877,11.672l10-13.603c-0.175-1.277-0.352-2.571-0.536-3.896       L230.965,380.39z"/>
					
						<rect x="131.899" y="341.678" transform="matrix(0.5924 -0.8057 0.8057 0.5924 -225.4542 257.5616)" style="fill:#FFFFFF;" width="19.799" height="19.798"/>
					<path style="fill:#FFFFFF;" d="M112.487,366.772l3.8,2.793l11.672-15.876l-7.514-5.524       C117.541,354.246,114.889,360.463,112.487,366.772z"/>
					
						<rect x="163.726" y="365.079" transform="matrix(0.5924 -0.8057 0.8057 0.5924 -231.3313 292.7328)" style="fill:#FFFFFF;" width="19.798" height="19.798"/>
					
						<rect x="136.16" y="369.339" transform="matrix(0.5924 -0.8057 0.8057 0.5924 -245.981 272.2013)" style="fill:#FFFFFF;" width="19.705" height="19.705"/>
					
						<rect x="195.554" y="388.479" transform="matrix(0.5924 -0.8057 0.8057 0.5924 -237.2099 327.909)" style="fill:#FFFFFF;" width="19.798" height="19.798"/>
					
						<rect x="167.986" y="392.739" transform="matrix(0.5924 -0.8057 0.8057 0.5924 -251.8601 307.3795)" style="fill:#FFFFFF;" width="19.706" height="19.706"/>
					<path style="fill:#FFFFFF;" d="M248.375,417.65l-13.206-9.711l-11.728,15.951l15.951,11.727l9.649-13.124       C248.856,421.148,248.632,419.525,248.375,417.65z"/>
					
						<rect x="199.813" y="416.139" transform="matrix(0.5924 -0.8057 0.8057 0.5924 -257.7399 342.5624)" style="fill:#FFFFFF;" width="19.706" height="19.706"/>
					<path style="fill:#FFFFFF;" d="M239.393,435.618l-11.674,15.875l12.026,8.842c0.12-0.174,0.25-0.347,0.366-0.521       c3.692-5.551,6.252-12.033,7.814-17.922L239.393,435.618z"/>
					<path style="fill:#FFFFFF;" d="M132.238,381.293l-15.951-11.727l-8.99,12.227c-0.484,1.565-0.951,3.133-1.405,4.704       l14.619,10.747L132.238,381.293z"/>
					
						<rect x="140.326" y="396.906" transform="matrix(0.5924 -0.8057 0.8057 0.5924 -266.5134 286.8604)" style="fill:#FFFFFF;" width="19.798" height="19.798"/>
					
						<rect x="112.76" y="401.166" transform="matrix(0.5924 -0.8057 0.8057 0.5924 -281.1606 266.3204)" style="fill:#FFFFFF;" width="19.705" height="19.705"/>
					
						<rect x="172.153" y="420.306" transform="matrix(0.5923 -0.8057 0.8057 0.5923 -272.3978 322.0632)" style="fill:#FFFFFF;" width="19.798" height="19.798"/>
					
						<rect x="144.586" y="424.566" transform="matrix(0.5924 -0.8057 0.8057 0.5924 -287.0409 301.5034)" style="fill:#FFFFFF;" width="19.705" height="19.705"/>
					
						<rect x="203.98" y="443.706" transform="matrix(0.5923 -0.8057 0.8057 0.5923 -278.2741 357.2356)" style="fill:#FFFFFF;" width="19.798" height="19.798"/>
					
						<rect x="176.413" y="447.966" transform="matrix(0.5923 -0.8057 0.8057 0.5923 -292.931 336.7269)" style="fill:#FFFFFF;" width="19.705" height="19.705"/>
					<path style="fill:#FFFFFF;" d="M225.956,474.771l-9.965-7.326l-11.672,15.876l4.074,2.994       C214.753,482.871,220.719,478.988,225.956,474.771z"/>
					<path style="fill:#FFFFFF;" d="M108.837,413.12l-7.979-5.867c-1.381,7.017-2.436,14.04-3.161,21.019L108.837,413.12z"/>
					
						<rect x="116.926" y="428.733" transform="matrix(0.5924 -0.8056 0.8056 0.5924 -301.6883 280.9658)" style="fill:#FFFFFF;" width="19.799" height="19.798"/>
					<path style="fill:#FFFFFF;" d="M96.56,453.125l4.754,3.495l11.672-15.876l-15.411-11.331       C96.787,437.406,96.448,445.335,96.56,453.125z"/>
					
						<rect x="148.753" y="452.133" transform="matrix(0.5923 -0.8057 0.8057 0.5923 -307.5785 316.1792)" style="fill:#FFFFFF;" width="19.798" height="19.798"/>
					
						<rect x="121.187" y="456.393" transform="matrix(0.5924 -0.8057 0.8057 0.5924 -322.2257 295.637)" style="fill:#FFFFFF;" width="19.705" height="19.705"/>
					<path style="fill:#FFFFFF;" d="M188.367,471.593l-11.728,15.951l10.903,8.015c3.696-1.308,7.383-2.776,11.01-4.396l5.766-7.843       L188.367,471.593z"/>
					<path style="fill:#FFFFFF;" d="M149.092,491.748l13.624,10.017c1.291-0.176,2.601-0.387,3.924-0.619l10-13.602l-15.876-11.673       L149.092,491.748z"/>
					<path style="fill:#FFFFFF;" d="M117.263,468.347l-15.95-11.727l-4.388,5.968c0.365,5.692,0.985,11.288,1.872,16.756       l6.739,4.954L117.263,468.347z"/>
					<path style="fill:#FFFFFF;" d="M133.141,480.02l-11.728,15.951l7.931,5.832c3.906,0.436,7.829,0.708,11.741,0.835l8.007-10.89       L133.141,480.02z"/>
					<path style="fill:#FFFFFF;" d="M101.098,490.335c0.327,1.424,0.691,2.838,1.09,4.246c0.448,1.586,1.33,1.668,3.2,2.269       c4.16,1.337,8.509,2.425,12.958,3.295l3.068-4.173l-15.876-11.673L101.098,490.335z"/>
				</g>
			</g>
			<g style="opacity:0.25;">
				<path style="fill:#000E3F;" d="M19.769,103.452c-0.443,0.227-0.885,0.465-1.35,0.642c-1.033,0.395-1.69,0.182-2.195-0.879      c-0.554-1.166-1.155-2.361-1.406-3.61c-2.149-10.681-3.001-17.866,2.85-27.736c2.262-3.816,8.527-2.509,12.389-0.027      c5.335,3.428,17.831,22.435,32.919,15.106c6.982-3.392,13.948-6.008,21.241-3.996c4.422,1.219,3.961,1.523,3.11,4.395      c-5.25,17.73,0.061,18.131-8.845,15.394C60.53,97.226,36.738,94.774,19.769,103.452z"/>
				<path style="fill:#000E3F;" d="M112.778,20.393c3.887,0.425,10.147,3.745,14.404,9.399c1.222,1.623,1.22,1.948-0.061,3.694      c-2.415,3.29-3.835,6.956-4.397,10.977c-0.055,0.395-0.182,0.784-0.195,1.178c-0.147,4.44-8.312,0.165-20.93,14.566      c-4.58,5.227-4.29,6.197-6.027,5.282c-2.195-1.157-3.865-2.522-3.869-5.409c-0.008-4.577-3.347-7.305-1.284-10.584      c3.245-5.161,6.981-6.111,13.151-8.766c5.732-2.467,11.319-7.54,9.89-13.566c-0.435-1.836-0.615-3.732-1.248-5.529      C112.023,21.099,112.234,20.672,112.778,20.393z"/>
				<path style="fill:#000E3F;" d="M174.573,31.495c-1.407,3.474-3.741,6.347-6.112,9.186c-2.769,3.317-12.406,0.083-21.649,15.485      c-1.515,2.525-1.649,2.572-3.703,0.224c-9.426-10.769-18.268-7.849-19.152-9.603c-0.598-1.186,0.856-2.586,2.104-3.608      c5.306-4.344,10.804-4.71,17.53-3.701c2.416,0.363,4.796,0.092,7.136-0.432c10.808-2.416,10.625-17.286,22.888-22.58      c1.493-0.644,2.189-0.301,2.601,1.305C177.426,22.48,176.346,27.119,174.573,31.495z"/>
				<path style="fill:#000E3F;" d="M4.657,77.314c-1.708-13.313,6.3-14.424,5.896-24.954c-0.234-6.102-4.866-6.603-7.256-13.427      c-0.849-2.425-0.933-4.884-0.162-7.337c0.361-1.147,0.859-1.416,2.019-1.298c9.118,0.932,11.765,9.543,15.478,19.345      c3.342,8.823,11.736,9.336,11.671,10.761c-0.074,1.617-9.785-0.03-16.66,12.66c-5.222,9.638-2.61,17.097-5.081,15.208      C7.002,85.552,5.803,81.662,4.657,77.314z"/>
				<path style="fill:#000E3F;" d="M188.56,76.31c-0.462,1.353-0.833,2.569-2.192,2.397c-5.744-0.724-11.577-2.165-24.033,0.61      c-12.837,2.86-6.871,5.706-12.004-9.48c-0.332-0.984-0.048-1.73,0.745-2.367c8.546-6.866,14.309-2.061,21.555-3.011      c6.821-0.895,9.267-8.364,8.527-14.539c-0.327-2.729,0.862-2.477,2.778-0.521c3.017,3.081,4.864,6.773,5.624,11.013      C190.522,65.775,190.877,69.529,188.56,76.31z"/>
				<path style="fill:#000E3F;" d="M90.813,64.717c-0.132,0.113-0.271,0.328-0.395,0.319c-1.062-0.074-1.316-1.06-0.881-1.173      C90.071,63.723,90.795,64.231,90.813,64.717z"/>
			</g>
			<g style="opacity:0.5;">
				<path style="fill:#FC09B2;" d="M247.654,410.397c2.595,20.324,2.593,19.142,1.349,26.438      c-2.67,15.647-9.363,25.554-19.027,34.372c-23.276,21.24-61.78,35.794-102.661,30.382c-6.497-0.86-7.005-0.707-6.594-3.346      c3.002-19.299,20.539-35.866,38.49-45.035c7.992-4.082,33.366-9.14,46.907-31.496c22.159-36.585-9.223-93.531,16.106-145.492      c1.393-2.858,4.875-9.647,5.718-6.578c0.344,1.255,0.608,2.543,0.507,3.841c-0.154,1.994-0.174,0.836,6.345,44.445      C235.118,324.524,247.183,406.71,247.654,410.397z"/>
				<path style="fill:#FC09B2;" d="M131.782,316.857c0.651,0.162,0.629-0.081,2.035,1.134c1.956,1.692,1.341,1.779-2.693,8.118      c-20.929,32.887-35.788,80.326-35.724,122.924c0.03,19.53,2.182,29.667,3.52,38.046c0.758,4.75,3.744,9.401-1.902,6.736      c-8.137-3.842-15.161-6.841-22.141-14.43c-6.26-6.805-11.349-14.846-13.836-24.157c-0.347-1.297-0.032-2.321,1.118-3.122      c1.315-0.915,2.342-2.151,3.465-3.286c3.31-3.345,5.236-7.465,6.998-11.732c12.951-31.343-3.846-66.994,46.305-111.145      C120.845,324.255,128.779,316.111,131.782,316.857z"/>
				<path style="fill:#FC09B2;" d="M150.845,76.863c0.815,5.339,1.237,5.799-1.087,6.673c-23.358,8.775-42.418,28.613-43.535,29.458      c-0.971,0.734-1.881,0.327-3.336-0.431c-15.597-8.126-17.464-5.611-17.313-9.925c0.024-0.696,0.206-1.389,0.195-2.082      c-0.116-6.976,9.561-11.805,16.426-13.405c2.337-0.544,12.361,1.247,19.176-7.018c6.707-8.135,7.591-16.266,18.949-21.695      c1.796-0.859,2.314-0.685,3.517,0.955C147.722,64.691,150.521,73.231,150.845,76.863z"/>
				<path style="fill:#FC09B2;" d="M90.587,59.885c0.193,4.723-0.957,0.986-10.477,0.701c-6.922-0.207-10.342,3.604-13.65,6.833      c-8.18,7.984-16.758-1.666-20.624-3.623c-1.334-0.675-1.754-1.613-1.788-3.097c-0.068-2.971,1.334-4.834,3.799-6.239      c10.89-6.205,15.792,3.532,23.988-6.151c5.888-6.955,6.401-13.795,8.639-10.716C87.81,47.686,88.284,52.563,90.587,59.885z"/>
			</g>
			<g style="opacity:0.5;">
				<path style="fill:#FD8A02;" d="M206.053,113.69c0.684,4.482,15.107,108.755,18.782,134.297c0.255,1.773-0.019,2.142-1.717,2.499      c-27.518,5.777-54.157,26.786-73.577,49.804c-14.299,16.947-12.139,19.461-15.613,16.212c-3.07-2.872-6.69-5.052-9.719-7.962      c-0.941-0.904-14.97-10.407-23.265-14.677c-1.02-0.525-1.374-1.344-1.204-2.471c1.81-12.017,8.041-21.715,16.657-30.08      c30.331-29.45,69.98-35.084,70.051-72.801c0.02-10.647-4.565-35.54-5.448-44.533c-2.474-25.217,5.101-46.957,14.378-57.852      c0.717-0.842,1.234-1.392,2.201-0.49c5.677,5.298,5.812,9.784,8.597,28.037C206.135,113.677,206.094,113.684,206.053,113.69z"/>
				<path style="fill:#FD8A02;" d="M28.773,259.953c-1.843-7.174-2.511-14.54-3.787-21.805c-1.482-8.443,5.831-42.151,22.174-71.316      c26.751-47.738,65.908-60.823,54.388-48.878c-28.545,29.6-50.239,78.059-53.045,123.943c-1.79,29.275,3.277,34.658-0.357,34.623      c-1.838-0.018-5.722-0.607-10.751-0.112c-1.582,0.156-3.182,0.139-4.775,0.179c-1.494,0.038-1.453-1.278-1.958-4.503      C29.151,262.448,29.381,262.323,28.773,259.953z"/>
			</g>
			<g style="opacity:0.5;">
				<path style="fill:#FFFFFF;" d="M50.479,75.832c2.032,0.198,5.864,2.085,14.273-1.348c2.945-1.202,5.807-2.612,8.697-3.947      c6.189-2.859,10.977,0.721,8.468,4.356c-0.356,0.516-1.333,1.538-2.245,1.888c-4.559,1.75-8.802,4.184-13.266,6.136      C52.261,89.102,45.669,75.364,50.479,75.832z"/>
				<path style="fill:#FFFFFF;" d="M101.05,78.498c0.388-5.456,6.662-14.502,13.499-19.908c1.659-1.312,6.378-4.064,8.393-3.418      c3.524,1.129-2.817,5.055-6.601,10.123c-5.742,7.69-7,13.586-9.973,15.17C104.54,81.439,100.842,81.427,101.05,78.498z"/>
				<path style="fill:#FFFFFF;" d="M31.091,51.561c-2.036-1.799-2.891-6.346-7.879-12.589c-0.94-1.177-4.001-4.797-4.333-5.296      c-1.205-1.815,0.481-3.332,2.084-2.833c6.309,1.961,11.985,9.407,14.33,14.792C38.016,51.881,33.186,53.412,31.091,51.561z"/>
				<path style="fill:#FFFFFF;" d="M105.093,28.58c-2.098,2.316-6.468,3.058-12.299,7.316c-3.141,2.294-7.418-0.515-4.508-5.055      C94.491,21.156,109.767,23.42,105.093,28.58z"/>
				<path style="fill:#FFFFFF;" d="M144.327,35.617c-3.086-0.425-3.837-4.11-0.972-5.622c2.533-1.337,8.313-2.476,12.654-6.572      c2.328-2.197,4.844-1.597,4.588,0.595C159.929,29.725,150.838,36.513,144.327,35.617z"/>
				<path style="fill:#FFFFFF;" d="M172.096,48.633c2.77,1.3,2.119,3.621-0.386,4.314c-1.561,0.432-5.593,0.267-10.832,4.599      c-1.972,1.631-4.013,3.603-5.915,1.904C149.734,54.777,164.714,45.169,172.096,48.633z"/>
				<path style="fill:#FFFFFF;" d="M65.167,34.335c0.846,1.262-0.679,2.464-1.381,4.009c-2.544,5.596-3.574,12.129-7.773,10.349      C48.855,45.659,62.187,29.89,65.167,34.335z"/>
			</g>
			<g style="opacity:0.75;">
				<path style="fill:#FFFFFF;" d="M177.034,90.825c-4.533,3.419-48.473,15.703-78.434,63.504      c-8.374,13.36-11.747,23.002-14.441,33.992c-2.133,8.704-9.785,5.508-9.956,0.762c-0.172-4.777,2.854-13.861,4.992-19.004      c7.831-18.837,19.881-36.003,34.44-50.247C153.02,81.298,184.871,84.915,177.034,90.825z"/>
				<path style="fill:#FFFFFF;" d="M70.491,124.652c-1.4-0.525-2.765-1.146-4.173-1.647c-25.934-9.228-43.779-2.429-46.543-3.637      c-7.229-3.158,19.564-19.642,54.417-1.804c0.824,0.422,1.287,1.224,1.861,1.912C77.894,121.687,75.96,126.702,70.491,124.652z"/>
			</g>
			<g>
				<path style="fill:#FC09B2;" d="M226.452,259.341c2.046,13.409,3.006,2.397-26.188,21.825      c-54.471,36.249-96.736,118.814-81.18,214.967c0.142,0.876,0.529,1.711,0.75,2.578c0.252,0.991-0.283,1.649-1.238,1.467      c-5.005-0.955-9.944-2.166-14.763-3.841c-0.945-0.328-1.4-0.929-1.683-1.891c-0.818-2.781-1.535-5.581-1.868-8.462      c-0.243-2.095-1.17-4.005-1.453-6.104c-14.386-106.654,51.86-205.773,116.837-226.009c9.308-2.899,9.374-3.342,9.971,0.139      c0.304,1.771,0.549,3.553,0.82,5.33C226.455,259.341,226.454,259.341,226.452,259.341z"/>
				<path style="fill:#FC09B2;" d="M32.832,286.047c-1.014-6.643-1.556-7.531,0.401-7.861c30.5-5.139,75.398,17.352,100.83,40.018      c0.999,0.891,1.147,1.559,0.397,2.616c-7.41,10.434-6.288,12.834-9.158,10.997c-1.502-0.961-38.362-38.035-88.927-37.661      c-1.718,0.013-2.176-0.283-2.479-1.909c-0.384-2.06-0.649-4.143-0.965-6.215C32.898,286.037,32.865,286.042,32.832,286.047z"/>
				<path style="fill:#FC09B2;" d="M79.792,242.789c4.659-7.093,16.361-9.172,23.926-6.218c7.489,2.925,8.419,11.826-1.605,16.471      C88.382,259.403,73.749,251.991,79.792,242.789z"/>
				<path style="fill:#FC09B2;" d="M179.395,227.592c-6.562-5.381-18.352-3.876-24.692,1.2c-6.276,5.025-4.51,13.799,6.444,15.242      C176.15,246.011,187.907,234.572,179.395,227.592z"/>
			</g>
		</g>
		<g>
			<path style="fill:#000E3F;" d="M252.004,425.861c-0.94-8.394-37.066-267.06-37.311-268.605     c-2.193-14.378-3.671-25.813-4.856-35.001c-3.719-28.788-4.602-35.628-15.796-41.965c-0.445-0.251-0.93-0.426-1.398-0.596     c-0.803-0.291-1.562-0.565-2.142-1.191c2.418-8.512,3.898-15.75-0.592-24.747c-3.344-6.7-8.621-10.922-15.687-12.551     l-0.605-0.137c-0.985-0.222-1.634-0.369-1.716-0.591c-0.087-0.228,0.329-0.789,0.955-1.636c0.304-0.409,0.668-0.904,1.09-1.508     c3.418-4.887,5.119-9.937,5.204-15.438c0.089-5.922-2.779-11.181-7.487-13.724c-3.766-2.036-8.044-1.885-11.43,0.411     c-3.858,2.611-5.1,4.978-6.195,7.067c-1.018,1.942-1.98,3.774-4.883,5.528c-3.23,1.95-5.501,2.319-7.904,2.709     c-2.887,0.468-5.872,0.952-10.664,4.323c-0.941,0.653-1.467,0.077-2.404-1.071l-0.222-0.268     c-4.862-5.841-11.887-9.264-19.779-9.638c-0.487-0.023-0.974-0.036-1.463-0.036c-9.48,0-19.056,4.35-27.121,12.354     c-1.799,1.788-1.916,1.71-3.367,0.695c-0.12-0.085-0.249-0.176-0.388-0.272c-4.706-3.247-9.686-4.306-14.39-3.07     c-5.944,1.561-11.261,6.616-14.97,14.232c-0.095,0.194-0.346,0.71-0.525,0.723c-0.002,0-0.006,0-0.008,0     c-0.224,0-0.647-0.623-1.231-1.48c-0.985-1.443-2.631-3.859-5.731-7.135C27.109,20.693,13.592,19.972,6.061,24.617     c-5.343,3.291-7.348,8.971-5.233,14.823c1.149,3.188,2.753,5.762,4.904,7.87c3.599,3.525,2.667,9.834-0.112,14.245     C-0.448,71.184,0.942,82.953,9,90.176c1.923,1.725,2.077,2.854,2.353,4.904c0.228,1.689,0.54,4,1.952,7.74     c0.921,2.441,0.921,2.441-1.071,4.205l-0.038,0.033c-6.661,5.9-8.893,12.848-7.462,23.233     c0.221,1.602,33.104,200.218,47.146,285.03c3.546,21.423,5.889,35.575,5.905,35.674c1.845,14.025,13.254,33.499,33.939,43.112     c15.858,7.371,33.625,11.147,52.099,11.147c5.242,0,10.54-0.304,15.868-0.916c24.352-2.797,47.058-11.803,65.662-26.044     c15.375-11.769,23.688-25.384,26.163-42.847C251.979,432.209,252.36,429.041,252.004,425.861z M210.919,157.248     c0.24,2.66,0.491,5.409,0.978,8.095c0.989,5.444,2.494,16.343,4.398,30.142c1.931,13.987,4.333,31.396,7.162,50.172     c0.46,3.046,0.46,3.046-2.37,3.917c-16.193,4.994-29.617,11.648-42.244,20.942c-14.411,10.607-27.962,24.889-41.424,43.659     c-0.171,0.237-0.323,0.459-0.464,0.661c-0.506,0.738-0.839,1.225-1.219,1.28c-0.226,0.034-0.519-0.093-0.898-0.397     c-0.07-0.057-0.228-0.195-0.468-0.408c-10.474-9.214-23.418-17.898-36.45-24.453c-15.189-7.642-29.14-12.426-42.647-14.626     c-0.327-0.054-0.618-0.097-0.881-0.136c-2.195-0.323-2.195-0.323-2.583-3.367c-3.304-25.884,0.063-54.342,9.735-82.299     c9.286-26.836,23.602-51.257,41.399-70.624c23.357-25.415,50.383-39.262,76.441-39.262c1.037,0,2.075,0.022,3.11,0.066     c7.582,0.943,17.118,4.39,19.479,15.459c0.207,0.974,0.453,1.957,0.692,2.907c0.548,2.185,1.113,4.446,1.242,6.732     c0.4,7.1,5.322,38.927,6.209,44.488C210.491,152.533,210.708,154.93,210.919,157.248z M145.963,65.516     c1.784,3.814,2.817,7.907,3.728,11.518c0.131,0.52,0.259,1.032,0.39,1.534c0.485,3.226,0.483,3.228-2.026,4.314L148,82.905     c-15.571,6.752-28.847,15.808-41.785,28.501c-0.093,0.093-0.177,0.177-0.253,0.255c-0.698,0.715-0.698,0.713-3.213-0.522     c-2.222-1.093-6.359-3.128-14.485-6.394c-1.484-0.597-1.484-0.597-1.37-2.238c0.192-2.816,0.656-5.808,1.463-9.417     c2.707-12.128,7.658-22.678,14.316-30.513c6.171-7.259,13.466-11.684,20.547-12.457c0.767-0.084,1.526-0.125,2.275-0.125     C134.042,49.995,141.251,55.43,145.963,65.516z M187.25,76.193l-0.025,0.071c-0.455,1.26-0.457,1.258-2.203,1.005     c-1.82-0.267-5.621-0.818-13.551-0.548c-4.763,0.163-9.747,1.545-16.644,3.456c-0.274,0.075-0.468,0.066-0.603-0.022     c-0.365-0.237-0.493-1.085-0.706-2.489c-0.417-2.738-1.191-7.835-4.986-15.35c-0.786-1.553-0.778-2.809,0.027-4.336     c2.973-5.634,7.133-9.552,12.72-11.981c1.571-0.684,3.262-0.952,4.9-1.211l0.274-0.044l0.011-0.002     c1.155-0.267,2.33-0.396,3.506-0.396c4.921,0,9.872,2.282,13.511,6.377C189.243,57.203,190.651,66.725,187.25,76.193z      M165.027,40.995c-6.802,1.394-12.37,4.981-16.555,10.662c-0.854,1.159-1.476,2.064-1.976,2.791     c-0.822,1.195-1.276,1.853-1.588,1.873c-0.004,0.001-0.01,0.001-0.015,0.001c-0.23,0-0.523-0.329-1.004-0.867l-0.122-0.137     c-6.941-7.744-12.887-8.452-16.079-8.834c-1.217-0.145-2.094-0.249-2.423-0.669c-0.147-0.187-0.194-0.442-0.149-0.802     c1.067-8.541,7.261-15.151,12.391-16.376c0.93-0.221,1.887-0.429,2.812-0.629c6.412-1.389,13.043-2.824,16.768-10.393     c2.193-4.453,5.815-7.146,9.465-7.146c0.377,0,0.757,0.028,1.132,0.086c3.918,0.61,6.739,4.185,7.544,9.564l0.002,0.011     c0.578,2.737,0.209,5.716-1.162,9.376c-1.265,3.38-3.186,6.525-5.87,9.615C167.319,40.137,166.312,40.733,165.027,40.995z      M126.559,32.251c-3.742,4.984-4.371,8.551-4.788,10.911c-0.413,2.345-0.62,3.522-3.194,4.137     c-6.914,1.651-13.848,7.44-17.685,11.896c-1.295,1.503-2.18,2.601-2.825,3.402c-1.55,1.923-1.543,1.937-2.427,1.479l-0.135-0.071     c-1.282-0.663-1.936-1.55-2.256-3.062c-1.761-8.338-4.419-15.252-8.128-21.136c-1.339-2.125-2.431-3.418-3.152-4.273     c-1.331-1.577-1.44-1.706-0.137-3.129c3.224-3.528,10.07-8.27,15.942-10.103c9.043-2.82,17.106-1.607,23.966,3.609     c1.845,1.404,3.354,3.191,4.742,4.902C126.886,31.311,126.911,31.782,126.559,32.251z M88.968,60.465     c-0.224,0.201-0.852,0.046-1.805-0.188c-1.134-0.276-2.688-0.658-4.854-0.808c-8.608-0.607-11.98,2.604-14.946,5.434     c-2.189,2.087-4.257,4.059-8.155,4.293c-0.16,0.01-0.32,0.015-0.481,0.015c-3.116,0-5.727-1.85-9.918-4.82     c-0.869-0.616-1.803-1.278-2.821-1.98c-0.447-0.308-0.628-0.633-0.607-1.088c0.727-15.315,7.538-27.955,16.559-30.741     c1.221-0.376,2.452-0.563,3.684-0.563c5.006,0,10.03,3.076,14.455,8.946c4.502,5.972,8.91,20.166,8.938,20.282     C89.133,59.939,89.118,60.325,88.968,60.465z M69.611,67.745c6.517-7.302,16.979-4.964,23.956-0.742     c1.037,0.626,0.943,0.79-0.202,2.798c-1.046,1.833-2.796,4.901-5.09,10.827c-2.223,5.743-3.772,11.805-4.733,18.531     c-0.076,0.537-0.137,1.005-0.188,1.409c-0.16,1.254-0.249,1.944-0.523,2.116c-0.257,0.156-0.818-0.04-1.754-0.364     c-0.46-0.159-1.031-0.357-1.725-0.568c-11.339-3.463-28.858-6.363-38.987-4.915c-0.679,0.096-1.379,0.085-2.066,0.073     c-0.892-0.015-1.807-0.031-2.713,0.19c-0.978,0.236-1.883,0.451-2.726,0.652c-5.678,1.349-8.807,2.092-14.552,5.043     c-0.282,0.148-0.525,0.182-0.712,0.116c-0.194-0.072-0.357-0.264-0.483-0.569c-3.386-8.231-2.872-19.804-0.455-25.805     c4.116-10.206,13.241-15.145,23.226-12.576c4.168,1.069,6.66,2.947,9.072,4.764c2.906,2.189,5.653,4.26,10.909,4.26     c0.154,0,0.31-0.001,0.468-0.004C63.562,72.904,67.408,70.214,69.611,67.745z M46.553,100.183c2.937,0,5.99,0.162,9.14,0.489     c18.965,1.965,35.696,8.969,43.979,12.969c0.304,0.148,0.584,0.276,0.837,0.394c0.904,0.417,1.501,0.694,1.565,1.035     c0.076,0.397-0.502,1.088-1.592,2.224c-9.724,10.12-19.035,22.989-26.929,37.218c-8.596,15.496-15.288,32.024-19.891,49.123     c-4.421,16.421-8.965,41.72-5.511,68.984c0.105,0.831,0.175,1.379,0.175,1.596c0.002,0.314-0.067,0.527-0.217,0.673     c-0.43,0.407-1.56,0.35-3.437,0.256c-2.321-0.118-5.826-0.292-10.757,0.272l-0.304,0.037c-1.432,0.181-1.438,0.192-2.381-6.281     c-0.2-1.387-0.445-3.065-0.755-5.092c-3.397-22.216-5.056-31.181-6.154-37.113c-0.803-4.337-1.333-7.202-2.056-12.502     c-1.172-8.588-2.363-16.995-4.038-25.451c-1.906-9.624-3.43-19.476-4.904-29.002c-0.911-5.888-1.853-11.976-2.876-17.948     c-0.276-1.615-0.58-3.213-0.873-4.759c-2.07-10.911-3.856-20.335,4.98-27.49C22.412,103.456,33.357,100.183,46.553,100.183z      M33.198,280.153c-0.12-0.338-0.126-0.592-0.021-0.757c0.103-0.157,0.32-0.249,0.647-0.274     c16.018-1.193,34.409,2.443,53.168,10.522c16.429,7.075,32.655,17.364,45.689,28.971c1.029,0.915,1.056,1.154,0.262,2.325     c-15.219,22.428-27.089,51.317-33.427,81.346c-6.747,31.971-6.975,63.127-0.658,90.101c0.131,0.555,0.101,0.719,0.055,0.759     c-0.021,0.018-0.12,0.065-0.561-0.112c-9.262-3.713-16.524-8.283-22.195-13.97c-6.23-6.246-10.803-14.046-13.977-23.844     c-0.137-0.539-4.603-27.616-9.772-58.965c-6.399-38.802-13.652-82.781-15.48-93.332c-0.728-4.202-1.383-8.603-1.961-12.486     C34.206,285.326,33.608,281.29,33.198,280.153z M100.611,415.731c3.865-24.826,12.106-50.001,23.832-72.805     c23.604-45.903,59.31-79.231,95.509-89.155c1.466-0.401,2.429-0.64,3.062-0.64c0.295,0,0.519,0.052,0.689,0.162     c0.506,0.33,0.643,1.254,0.892,2.934l0.087,0.571c3.456,22.786,22.851,160.929,23.682,168.06     c0.871,7.474-1.107,20.106-7.487,31.477c-5.265,9.382-16.119,19.134-30.566,27.459c-12.581,7.252-26.868,12.829-38.217,14.918     c-1.033,0.191-2.058,0.47-3.049,0.74c-1.271,0.346-2.587,0.704-3.928,0.876c-20.62,2.62-42.065,0.97-58.831-4.528     c-0.236-0.077-0.453-0.147-0.658-0.211c-1.723-0.549-2.241-0.715-2.581-2.15C97.231,468.857,96.411,442.712,100.611,415.731z      M11.815,53.589c0.222-3.398-0.955-6.229-3.816-9.182c-2.872-2.964-4.487-7.321-4.014-10.84c0.329-2.471,1.655-4.459,3.833-5.75     c5.136-3.044,11.721-2.823,18.535,0.614c6.363,3.211,12.37,8.962,16.479,15.778c1.128,1.87,1.352,3.435,0.748,5.231     c-0.864,2.584-1.233,5.326-1.59,7.976c-0.078,0.581-0.158,1.162-0.24,1.74c-0.084,0.587-0.209,0.91-0.401,1.047     c-0.268,0.188-0.767,0.089-1.524-0.063c-0.477-0.095-1.071-0.213-1.796-0.3c-8.189-0.977-14.97,1.63-20.116,7.755     c-5.627,6.698-6.477,13.121-6.932,16.57c-0.148,1.111-0.274,2.069-0.51,2.188c-0.03,0.018-0.274-0.038-0.763-0.58     c-1.685-1.867-7.24-11.549-1.432-21.434C10.423,60.686,11.581,57.168,11.815,53.589z"/>
			<path style="fill:#000E3F;" d="M141.664,218.398c-1.094,0.176-1.841,1.21-1.665,2.304c1.094,6.785-1.738,15.017-9.136,16.91     c-3.837,0.981-6.867-0.336-8.735-1.61c-3.544-2.416-6.197-6.932-6.762-11.502c-0.065-0.533-0.335-1.008-0.759-1.339     c-0.424-0.329-0.957-0.472-1.48-0.411c-0.508,0.055-0.989,0.325-1.322,0.742c-0.337,0.427-0.493,0.974-0.428,1.501     c0.713,5.754,3.964,11.245,8.486,14.329c2.57,1.754,5.414,2.655,8.33,2.655c0.719,0,1.444-0.055,2.172-0.164     c0.489-0.076,0.993-0.178,1.493-0.306c9.711-2.486,13.488-12.906,12.111-21.447C143.791,218.975,142.746,218.229,141.664,218.398     z"/>
			<path style="fill:#000E3F;" d="M166.906,202.834c-0.103,0-0.207,0.007-0.31,0.024c-1.094,0.175-1.841,1.207-1.668,2.302     c0.637,3.964-0.651,8.706-4.288,9.686c-1.28,0.344-2.528,0.108-3.723-0.696c-2.028-1.36-3.635-4.222-4.004-7.121     c-0.139-1.099-1.168-1.882-2.243-1.74l-0.055,0.006c-1.086,0.165-1.828,1.149-1.689,2.24c0.514,4.048,2.772,7.955,5.752,9.953     c1.507,1.012,3.156,1.533,4.83,1.533c0.409,0,0.82-0.031,1.234-0.094c0.316-0.048,0.634-0.115,0.942-0.199     c5.91-1.592,8.128-8.507,7.215-14.204C168.74,203.542,167.884,202.834,166.906,202.834z M150.639,205.456L150.639,205.456     L150.639,205.456L150.639,205.456z"/>
			<path style="fill:#000E3F;" d="M100.624,212.924l-0.047,0.007v0.001c-0.529,0.093-0.991,0.388-1.297,0.828     c-0.308,0.441-0.424,0.974-0.331,1.504c0.515,2.878-0.169,6.09-1.699,7.991c-0.917,1.141-2.012,1.722-3.346,1.775     c-3.763,0.15-6.407-3.994-6.983-7.967c-0.076-0.53-0.356-0.999-0.787-1.322c-0.426-0.319-0.951-0.456-1.507-0.376     c-1.086,0.165-1.843,1.186-1.685,2.275c0.812,5.598,4.843,11.414,10.762,11.414c0.118,0,0.241-0.002,0.36-0.007     c0.318-0.011,0.641-0.043,0.961-0.092c2.092-0.318,3.943-1.419,5.357-3.18c2.25-2.798,3.241-7.2,2.526-11.217     C102.715,213.477,101.73,212.758,100.624,212.924z"/>
		</g>
	</g>
	<g>
		<g>
			<g>
				<path style="fill:#91D728;" d="M437.638,121.688c-7.404,0.609-8.672,2.652-10.062-0.759      c-11.402-27.974,17.12-52.217,50.96-41.894c32.109,9.796,40.459,43.162,19.277,59.881c-1.595,1.259-2.442,1.24-3.927-0.027      c-8.322-7.103-17.893-11.676-28.503-14.169C461.315,123.764,452.635,120.454,437.638,121.688z"/>
				<path style="fill:#91D728;" d="M341.562,266.954c1.684-3.556,1.689-10.218,5.32-7.591      c43.763,31.659,107.112,45.53,155.004,39.751c4.496-0.542,1.125,4.859-0.468,17.332      c-2.338,18.305-26.558,114.004-32.767,129.263c-0.743,1.826-1.939,2.893-4.022,3.321      c-48.634,10.003-121.223-10.026-156.643-39.71c-2.608-2.185-3.049-4.436-2.327-7.456c2.292-9.585,3.749-19.359,6.494-28.843      C313.621,362.118,335.797,279.131,341.562,266.954z M421.738,402.421c4.139-4.542,5.654-10.284,7.696-15.805      c0.115-3.315,4.292-18.332-1.966-34.589c-0.839-2.18-1.509-4.438-2.089-6.703c-3.812-14.913-1.893-17.12-1.864-19.32      c0.073-5.52-19.06,0.487-30.398,17.525c-0.546,0.82-1.074,1.655-1.674,2.435c-2.469,3.212-2.785-5.641-11.221-13.392      c-5.392-4.954-2.29,3.765-11.525,19.522C339.372,402.131,396.371,430.263,421.738,402.421z"/>
			</g>
			<g>
				<path style="fill:#FFFFFF;" d="M480.714,211.551c-0.251,1.356-1.15,1.819-2.041,1.34c-17.895-9.62-15.128-8.344-42.895-15.483      c-19.428-4.995-30.744-0.261-28.684-4.175c2.303-4.375,7.706-7.699,17.345-42.501c0.746-2.695,0.923-3.456,3.458-3.478      c14.118-0.119,19.43,1.582,37.74,6.415c6.719,1.774,12.942,4.73,18.987,8.083c4.095,2.272,1.082,1.275-3.171,27.022      c-1.085,6.568-1.466,13.219-0.888,19.888C480.66,209.762,480.68,210.868,480.714,211.551z"/>
				<path style="fill:#FFFFFF;" d="M450.578,403.26c-2.62,2.087-7.935,5.121-8.459,5.298c-1.772,0.598-2.672-0.792-2.16-2.193      c0.602-1.647,3.898-6.689,7.013-14.668c6.62-16.959-0.548-44.961,16.533-51.029c10.923-3.88,17.138,8.897,15.527,17.914      C476.565,372.379,466.861,390.288,450.578,403.26z"/>
				<path style="fill:#FFFFFF;" d="M359.885,340.678c-9.895,21.053-9.801,24.966-10.392,40.914      c-0.027,0.728-0.083,1.482-0.295,2.171c-0.311,1.012-1.703,1.309-2.415,0.531c-10.969-11.989-14.878-45.042-8.778-61.689      c2.74-7.475,11.768-16.25,19.988-10.412C367.139,318.689,364.664,330.509,359.885,340.678z"/>
			</g>
			<g>
				<path style="fill:#FC09B2;" d="M348.291,258.522c-3.326-2.379-3.294-2.745-1.712-6.348      c8.804-20.059,27.962-35.514,46.341-45.568c9.549-5.224,8.33-9.348,14.279-9.91c17.235-1.626,33.295,3.003,48.646,7.479      c8.405,2.451,16.383,6.099,23.609,11.206c1.496,1.057,2.481,2.277,2.838,4.111c2.393,12.286,9.354,13.371,18.312,39.416      c5.96,17.332,5.585,24.186,4.769,35.572c-0.159,2.225-0.683,2.676-2.98,2.996C449.804,304.813,390.416,288.665,348.291,258.522z      "/>
				<path style="fill:#FC09B2;" d="M351.068,485.899c-8.757-3.798-16.814-8.768-24.356-14.593      c-4.017-3.103-7.402-6.863-10.878-10.531c-4.031-4.253-6.944-9.268-9.756-14.334c-2.601-4.688-4.286-9.702-4.339-15.134      c-0.032-3.352,1.559-18.706,2.82-21.144c0.319-0.617,0.932-0.778,1.572-0.457c0.325,0.163,0.608,0.421,0.889,0.66      c26.324,22.402,79.069,42.726,130.381,42.826c17.22,0.034,25.333-2.598,27.914-2.635c1.26-0.018,1.038,2.022,0.574,3.133      c-5.566,13.348-6.12,20.737-17.712,28.559c-16.938,11.429-37.213,15.004-57.557,13.476      C383.483,495.19,365.684,492.237,351.068,485.899z"/>
				<path style="fill:#FC09B2;" d="M494.186,142.86c-2.003,4.111-3.156,8.543-4.86,12.768c-1.426,3.538-1.141,6.204-3.223,5.321      c-3.225-1.37,0.956-0.782-19.123-8.751c-1.774-0.704-6.488-1.75-11.788-3.177c-10.313-2.778-17.456-2.885-26.333-3.235      c-4.424-0.174-2.338-0.992-0.127-18.928c0.209-1.698,0.954-2.265,2.446-2.654c16.851-4.388,48.215,2.69,62.062,16.119      C493.962,141.022,494.743,141.683,494.186,142.86z"/>
			</g>
			<g>
				<path style="fill:#FF8EDE;" d="M443.165,276.256c-2.389-4.325,1.5-8.149,6.292-8.592c7.427-0.687,13.659,2.923,15.675,6.632      C470.539,284.249,448.962,286.748,443.165,276.256z"/>
				<path style="fill:#FF8EDE;" d="M409.374,267.582c4.177-2.639,2.611-7.864-1.375-10.56c-6.178-4.179-13.378-4.018-16.931-1.738      C381.535,261.401,399.239,273.984,409.374,267.582z"/>
			</g>
			<path style="fill:#FFCF00;" d="M364.054,367.456c0.758-4.429,2.926-9.242,5.657-13.819c4.998-8.376,7.716-17.944,8.384-19.246     c1.609-3.131,8.64,8.55,10.208,12.882c0.293,0.81,0.592,1.621,0.944,2.406c0.344,0.766,1.276,0.851,1.789,0.146     c1.097-1.51,8.262-17.304,25.521-23.432c0.693-0.246,1.423-0.408,2.148-0.543c6.374-1.178-1.079,2.363,7.209,26.252     c4.785,13.792,4.602,27.025,0.032,39.828c-12.081,33.85-65.945,21.573-63.84-14.191     C362.297,374.5,363.056,371.417,364.054,367.456z"/>
			<g>
				<path style="fill:#FD8A02;" d="M400.438,411.958c-1.371,0.379-3.016,0.452-4.773,0.308c-5.237-0.448-11.538-2.82-15.251-4.622      c-1.111-0.545-2.308-1.112-3.49-1.746c-3.182-1.665-6.276-3.851-6.929-7.368c-0.832-4.387-1.27-8.745-0.637-13.229      c1.393-9.83,7.282-19.638,12.016-23.565c1.921-1.605,2.942-0.802,5.424,1.84c4.392,4.665-0.099-3.563,19.035-16.362      c1.731-1.136,2.596,0.359,2.771,2.527c0.92,12.028,8.796,23.979,7.719,37.452C415.619,396.091,409.872,409.38,400.438,411.958z"/>
				<path style="fill:#FD8A02;" d="M457.042,159.633l1.987,9.453c0.146,0.696,0.626,1.275,1.282,1.549l8.914,3.722      c1.652,0.69,1.797,2.975,0.243,3.867l-8.376,4.811c-0.617,0.354-1.02,0.989-1.078,1.698l-0.786,9.628      c-0.146,1.785-2.275,2.628-3.603,1.426l-7.164-6.48c-0.527-0.477-1.256-0.664-1.947-0.5l-9.399,2.228      c-1.742,0.413-3.202-1.351-2.47-2.985l3.949-8.815c0.291-0.649,0.243-1.399-0.126-2.007l-5.023-8.251      c-0.931-1.529,0.296-3.463,2.076-3.271l9.605,1.031c0.707,0.076,1.406-0.201,1.869-0.74l6.295-7.327      C454.456,157.312,456.674,157.881,457.042,159.633z"/>
			</g>
			<g style="opacity:0.4;">
				<path style="fill:#000E3F;" d="M307.504,408.848c-1.912-1.691-2.911-3.344-2.649-6.019c0.686-6.989,1.421-13.969,2.417-20.92      c1.245-8.69,43.66,45.6,142.652,44.02c24.008-0.384,28.864-3.727,27.552-0.419c-9.192,23.184-9.007,22.656-12.037,23.317      C415.879,459.626,340.449,437.988,307.504,408.848z"/>
				<path style="fill:#000E3F;" d="M336.543,281.388c-2.453-1.604-2.1-0.361,6.236-20.833c3.023-7.424,1.071,3.814,55.212,25.112      c27.402,10.779,58.305,14.91,87.298,14.608c15.994-0.167,18.99-2.621,19.38-0.253c0.21,1.278,0.547,0.223-2.034,20.543      c-0.336,2.646-0.419,2.667-3.202,2.906C446.58,328.007,388.136,315.122,336.543,281.388z"/>
			</g>
			<g style="opacity:0.25;">
				<path style="fill:#000E3F;" d="M468.659,445.693c-0.746,1.817-1.923,2.903-4.012,3.336c-17.325,3.585-23.387,1.679-23.836,3.392      c-0.101,0.385,0.264,0.649,0.656,0.656c19.053,0.312,27.151-5.919,24.42,0.633c-1.942,4.658-3.599,9.426-5.521,14.096      c-5.339,12.966-21.156,21.089-34.634,24.784c-50.553,13.858-108.88-15.266-121.843-50.961c-0.779-2.146-0.283-2.944,2.077-3.145      c4.808-0.41,12.142-0.28,16.117,1.224c21.329,8.071,52.88,37.484,95.116,22.917c5.179-1.786,9.044-5.423,12.943-9.028      c0.676-0.624,0.852-1.479,1.088-2.307c46.604-163.644,48.931-147.485,48.842-171.913c-0.07-19.045-13.467-31.442-21.287-47.514      c-14.554-29.912-1.694-77.265,27.598-94.265c1.48-0.859,2.724-0.987,4.001,0.257c2.335,2.275,5.315,3.384,3.237,6.294      c-0.059,0.222-12.883,38.588-13.229,57.86c-0.254,14.122,3.938,25.47,6.675,29.196c8.767,11.937,20.677,40.122,18.601,59.342      c-0.924,8.55,1.793,6.383-17.389,8.204c-1.215,0.115-2.676-0.482-3.567,0.938c0.999,0.999,0.229,0.824,17.126-0.573      c3.659-0.302,2.955,0.652-3.389,32.139C494.348,351.601,475.027,430.191,468.659,445.693z"/>
				<path style="fill:#000E3F;" d="M496.143,90.575c0.197-0.879,1-1.132,1.681-0.482c15.648,14.941,15.454,36.508,0.047,48.781      c-5.364,4.273-1.812-6.681-37.812-15.516c-16.632-4.081-28.557-0.476-30.416-0.495c-1.345-0.014-2.172-1.585-1.392-2.691      c8.165-11.572,29.708-9.196,35.419-9.07c10.066,0.222,20.769-1.558,27.431-9.271C495.952,96.218,495.387,93.947,496.143,90.575z      "/>
			</g>
			<g style="opacity:0.5;">
				<path style="fill:#FFFFFF;" d="M396.68,411.441c-0.341,0.313-0.697,0.599-1.015,0.824c-5.237-0.448-11.538-2.82-15.251-4.622      c-1.111-0.545-2.308-1.112-3.49-1.746c-3.013-5.443-2.694-14.771-1.417-20.48c0.495-2.208,1.588-4.167,2.626-6.095      c1.233-2.23,3.461-2.366,5.11-0.338c4.823,5.931,4.423,7.856,6.474,5.553c3.735-4.16,5.501-11.04,5.845-16.518      c0.14-2.016,2.781-3.672,4.422-2.072C412.793,378.433,408.594,400.678,396.68,411.441z"/>
				<path style="fill:#FFFFFF;" d="M402.78,225.591c-5.011,4.442-10.294,8.56-15.455,12.824      c-13.115,10.835-15.015,17.935-21.127,16.88c-4.418-0.763-6.355-5.496-4.139-9.26c4.619-7.846,20.73-17.501,34.514-28.14      c9.507-7.338,11.175-13.331,14.27-14.823C415.805,200.681,414.946,214.807,402.78,225.591z"/>
			</g>
			<g style="opacity:0.75;">
				<path style="fill:#FFFFFF;" d="M417.681,339.105c0.495,10.822,4.669,14.61,6.791,25.259c0.642,3.219,1.245,10.573-2.065,11.106      c-1.517,0.244-2.059-1.178-2.607-2.222c-2.227-4.243-3.743-9.083-5.392-13.569c-1.944-5.291-3.572-10.966-2.702-16.65      c0.317-2.071,0.842-5.319,2.859-6.509C416.698,335.261,417.587,337.037,417.681,339.105z"/>
				<path style="fill:#FFFFFF;" d="M478.818,88.55c-3.746,1.725-21.769-3.753-32.466,13.096c-5.635,8.875-15.085,1.512-7.975-7.453      C453.672,74.905,484.721,85.832,478.818,88.55z"/>
			</g>
		</g>
		<g>
			<path style="fill:#000E3F;" d="M414.836,243.207c-1.045,4.122-4.863,6.296-8.779,5.369c-3.957-0.936-6.389-5.159-5.405-8.798     c1.064-3.933,4.847-6.216,8.819-5.245C413.526,235.525,415.853,239.287,414.836,243.207z"/>
			<path style="fill:#000E3F;" d="M455.026,261.184c-3.562-0.816-6.129-5.307-5.09-8.767c0.937-3.119,4.15-6.325,8.914-5.213     C467.927,249.323,464.947,263.455,455.026,261.184z"/>
			<path style="fill:#000E3F;" d="M442.169,253.283c0,0.087,0,0.152-0.023,0.216c-0.561,5.333-3.346,9.306-7.664,10.904     c-2.028,0.755-4.339,0.884-6.498,0.324c-1.727-0.454-3.304-1.296-4.577-2.483c-3.346-3.174-4.253-8.291-2.505-14.012     c0.217-0.692,0.907-1.145,1.619-1.145c0.152,0,0.304,0.022,0.432,0.065c0.865,0.237,1.36,1.166,1.101,2.051     c-1.402,4.555-0.82,8.334,1.619,10.644c1.986,1.879,5.01,2.439,7.687,1.469c3.108-1.145,5.117-4.102,5.526-8.162     c0.108-0.907,0.886-1.533,1.813-1.446c0.432,0.065,0.82,0.259,1.103,0.605C442.038,252.593,442.169,252.938,442.169,253.283z"/>
			<path style="fill:#000E3F;" d="M493.108,83.291c-15.021-10.144-38.588-14.231-57.384-0.498     c-13.751,10.048-15.824,26.832-10.774,38.218c1.104,2.478,1.427,4.814,1.057,7.354c-10.685,70.928-30.672,71.48-50.922,86.474     c-10.939,8.1-22.414,18.374-27.991,31.079c-17.139,38.984-52.174,171.147-46.805,191.969     c7.454,28.807,47.853,60.059,96.143,60.638c13.728,0.176,33.662-1.933,50.846-12.949c9.444-6.069,13.451-11.286,17.797-23.266     c4.438-12.233,8.084-22.459,11.232-33.263c3.544-12.021,7.1-25.042,10.929-39.824c4.193-16.296,7.792-31.244,10.962-45.674     c2.67-12.084,5.693-26.407,7.876-41.146c0.138-0.905,0.273-1.86,0.408-2.791c1.198-7.823,2.459-15.899,1.194-23.445     c-2.44-14.746-9.201-31.759-18.549-46.689c-5.652-9.012-7.432-22.259-5.273-39.396c2.102-16.684,7.426-32.754,10.439-40.853     c1.255-3.427,2.933-6.971,6.515-9.746c5.038-3.86,8.385-9.249,10.21-16.448C514.706,108.458,507.846,93.248,493.108,83.291z      M463.218,458.514c-4.907,14.153-9.62,19.173-17.143,23.962c-12.148,7.757-27.002,11.753-42.548,12.403     c-33.833,1.416-70.931-13.029-90.469-39.13c-10.588-14.103-12.594-24.418-8.297-42.418c0.21-0.934,0.384-1.566,0.901-1.738     c0.616-0.2,1.365,0.368,3.353,1.91c2.3,1.778,6.2,4.788,13.074,9.001c18.394,11.303,42.077,20.56,66.701,26.053     c26.241,5.876,51.439,7.171,72.891,3.698c0.299-0.037,0.569-0.098,0.819-0.134c0.942-0.188,1.61-0.316,2.004,0.116     C465.003,452.815,464.757,454.05,463.218,458.514z M502.544,304c-0.243,1.36-0.589,3.249-0.883,5.785     c-1.355,11.829-21.516,98.081-34.045,135.522c-0.557,1.622-1.447,2.46-3.008,2.774c-6.691,1.381-13.682,2.198-20.843,2.498     c-32.21,1.348-67.472-7.475-92.539-17.549c-25.091-10.072-38.01-20.729-42.255-24.226c-0.518-0.429-0.907-0.737-1.139-0.902     c-1.728-1.277-1.646-2.931-1.376-4.242c5.773-27.46,21.015-96.284,38.021-142.061c0.271-0.712,0.497-1.246,0.991-1.391     c0.668-0.202,1.44,0.339,3.498,1.753c0.722,0.52,1.597,1.133,2.701,1.837c41.472,27.633,100.059,41.928,149.194,36.448     c0.82-0.11,1.395-0.084,1.762,0.275C503.093,301.028,502.908,301.96,502.544,304z M486.37,231.067     c10.281,19.317,20.914,39.267,17.846,62.14c-0.21,1.559-0.499,2.995-1.964,3.232c-3.947,0.64-8.456,1.029-13.147,1.225     c-9.181,0.384-19.07,0.023-26.794-0.604c-27.915-2.305-49.786-7.689-75.462-18.587c-17.458-7.418-31.176-15.717-37.628-20.57     c-2.555-1.918-2.672-2.313-1.495-5.287c8.383-21.271,27.582-33.722,41.625-42.808c16.74-10.899,14.042-12.035,21.03-12.328     c19.11-0.8,51.822,7.979,68.108,18.496C481.468,217.875,479.995,219.136,486.37,231.067z M484.941,166.466     c-1.305,4.054-6.392,27.662-5.605,40.476c0.313,5.086,0.17,5.291-4.127,2.921c-17.373-9.596-48.474-16.918-62.685-16.097     c-0.751,0.031-2.954,0.522-3.465-0.33c-0.319-0.511,0.123-1.255,1.292-3.204c1.586-2.69,4.554-7.663,8.081-16.535     c0.836-2.134,6.623-20.347,7.304-23.201c0.469-1.919,1.933-2.154,3.033-2.176c17.134-0.267,35.937,5.245,47.805,10.497     c1.808,0.799,3.571,1.751,5.261,2.704c0.664,0.347,1.304,0.72,1.97,1.067C485.592,163.539,485.383,165.072,484.941,166.466z      M492.508,144.179c-0.316,0.838-0.63,1.675-0.971,2.514c-1.31,3.329-2.664,6.785-3.565,10.347     c-0.346,1.29-0.719,1.955-1.309,2.205c-0.146,0.08-0.296,0.111-0.469,0.118c-0.648,0.027-1.417-0.366-2.413-0.899     c-0.229-0.115-0.486-0.254-0.74-0.369c-24.283-12.281-42.984-12.998-51.973-13.347c-1.024-0.032-1.902-0.069-2.629-0.115     c-0.575-0.026-0.978-0.083-1.215-0.398c-0.318-0.413-0.169-1.018,0.214-2.66c0.508-2.22,1.457-6.358,2.212-14.039     c0.141-1.406,0.834-2.184,2.267-2.52c16.802-4.052,46.334,3.41,59.618,15.027C493.376,141.668,493.364,141.968,492.508,144.179z      M498.122,137.421c-0.867,0.736-1.504,1.087-2.101,1.112c-0.875,0.037-1.652-0.63-2.971-1.7     c-2.539-2.117-7.278-6.044-19.219-10.668c-13.998-5.413-30.745-7.212-42.632-4.589c-1.734,0.372-2.295,0.096-2.939-1.527     c-3.15-7.791-3.116-15.367,0.057-22.548c6.101-13.678,20.984-21.174,38.849-19.547c9.232,0.838,18.268,4.085,25.428,9.184     c7.855,5.544,13.065,12.925,15.116,21.337c0.429,1.907,0.681,3.721,0.754,5.468C509.042,127.79,499.38,136.393,498.122,137.421z"/>
			<path style="fill:#000E3F;" d="M427.625,349.201c-2.333-7.401-4.552-14.406-3.314-23.081c0.172-1.257-0.089-2.121-0.786-2.641     c-2.062-1.489-7.543,0.115-12.073,2.38c-11.865,5.917-15.872,12.972-19.862,18.127c-2.358,3.161-3.411-6.685-11.947-13.147     c-0.802-0.617-1.585-0.833-2.227-0.657c-0.667,0.204-1.215,0.826-1.597,1.841c-0.091,0.229-0.199,0.659-0.373,1.241     c-0.777,2.957-2.64,9.834-7.747,18.57c-10.775,18.472-10.926,36.375-0.47,49.135c19.347,23.486,63.728,18.642,64.663-28.101     C432.094,363.411,429.816,356.183,427.625,349.201z M428.204,376.746c-4.192,53.926-70.064,36.903-64.874-0.885     c1.514-11.011,4.084-15.917,7.323-22.101c7.934-15.192,7.261-20.083,9.477-17.818c9.241,9.412,7.577,21.373,12.359,13.38     c2.866-4.944,10.516-18.061,25.878-22.453c0.741-0.207,1.313-0.305,1.675,0.004c1.511,1.198-1.955,5.032,4.259,23.493     C426.692,357.339,429.143,364.535,428.204,376.746z"/>
		</g>
	</g>
	<g>
		<path style="fill:#FD8A02;" d="M318.362,155.654c-3.773,10.984-13.95,24.129-25.272,28.141    c-9.097,3.224-33.158-12.561-36.884-26.445c-2.42-9.018,3.202-17.449,11.763-17.04c7.103,0.339,13.609,5.341,18.142,10.753    c1.273,1.52,1.58,2.178,2.02,1.334c0.881-1.693,2.919-5.893,4.881-8.285C307.985,125.85,323.769,139.913,318.362,155.654z"/>
		<path style="fill:#FD8A02;" d="M380.579,110.669c-2.701,7.863-9.986,17.272-18.091,20.145    c-6.512,2.308-23.736-8.992-26.403-18.931c-1.732-6.455,2.292-12.491,8.42-12.199c5.085,0.243,9.742,3.824,12.987,7.698    c0.911,1.088,1.131,1.559,1.446,0.955c0.631-1.212,2.09-4.219,3.494-5.931C373.151,89.334,384.45,99.401,380.579,110.669z"/>
		<path style="fill:#FD8A02;" d="M310.744,86.718c-2.701,7.863-9.986,17.272-18.091,20.145c-6.512,2.308-23.736-8.992-26.404-18.931    c-1.733-6.455,2.292-12.491,8.42-12.199c5.085,0.243,9.743,3.824,12.987,7.698c0.911,1.088,1.131,1.56,1.446,0.954    c0.63-1.212,2.09-4.218,3.494-5.931C303.316,65.383,314.615,75.45,310.744,86.718z"/>
	</g>
</g>















</svg>
