<svg width="248" height="248" viewBox="0 0 248 248" fill="none" xmlns="http://www.w3.org/2000/svg">
<g clip-path="url(#clip0_1783_1359)">
<path d="M76.801 68.1885L65.9941 69.0599L69.6809 123.473L82.109 124.564L76.801 68.1885Z" fill="#F3CA0B"/>
<path d="M82.6039 125.056L69.2604 123.885L65.5186 68.6505L77.2046 67.707L82.6039 125.056ZM70.101 123.061L81.6131 124.072L76.3964 68.6698L66.4697 69.4707L70.101 123.061Z" fill="black"/>
<path d="M57.4215 57.873L70.2017 118.82L58.7577 120.687L46.0693 57.9165L57.4215 57.873Z" fill="#F3CA0B"/>
<path d="M58.378 121.236L45.4814 57.437L57.8124 57.3896L70.7761 119.214L58.378 121.236ZM46.6572 58.3949L59.1379 120.136L69.6274 118.425L57.0307 58.3553L46.6572 58.3949Z" fill="black"/>
<path d="M78.3614 51.0654L67.9478 52.7639L76.8295 123.603L90.7145 121.338L78.3614 51.0654Z" fill="#F3CA0B"/>
<path d="M76.4191 124.152L67.4189 52.3692L78.7485 50.5205L91.2663 121.73L76.4191 124.152ZM68.4764 53.1595L77.2403 123.054L90.1635 120.946L77.9746 51.6098L68.4764 53.1595Z" fill="black"/>
<path d="M95.4372 53.3438L85.6743 54.9364L93.6779 114.928L103.441 113.336L95.4372 53.3438Z" fill="#F3CA0B"/>
<path d="M93.2957 115.444L85.1733 54.5653L95.8198 52.8281L103.942 113.706L93.2957 115.444ZM86.1747 55.3077L94.0599 114.413L102.94 112.964L95.0551 53.859L86.1747 55.3077Z" fill="black"/>
<path d="M117.667 62.6368L108.493 61.0146L102.72 121.202L112.903 123.55L117.667 62.6368Z" fill="#F3CA0B"/>
<path d="M113.308 124.102L102.238 121.549L102.275 121.159L108.095 60.4893L118.145 62.266L113.308 124.102ZM103.202 120.855L112.498 122.998L117.19 63.0061L108.893 61.5395L103.202 120.855Z" fill="black"/>
<path d="M45.0495 66.6855L35.2866 68.2778L49.4044 124.107L58.8422 122.568L45.0495 66.6855Z" fill="#F3CA0B"/>
<path d="M49.072 124.615L34.7334 67.9153L45.3852 66.1777L59.3923 122.931L49.072 124.615ZM35.8392 68.6404L49.7372 123.6L58.2914 122.205L44.7142 67.1931L35.8392 68.6404Z" fill="black"/>
<path d="M42.4148 75.7969L31.5669 77.5664L38.2135 130.605L48.0783 131.001L42.4148 75.7969Z" fill="#F3CA0B"/>
<path d="M48.5754 131.468L37.8169 131.037L31.0703 77.1947L42.8114 75.2793L48.5754 131.468ZM38.6096 130.174L47.5803 130.533L42.0187 76.314L32.0645 77.9376L38.6096 130.174Z" fill="black"/>
<path d="M27.6443 74.9648L17.6597 77.9299L31.2302 135.185L42.3751 131.14L27.6443 74.9648Z" fill="#F3CA0B"/>
<path d="M30.911 135.777L17.1274 77.6216L27.9594 74.4043L42.911 131.42L30.911 135.777ZM18.1921 78.238L31.5496 134.593L41.84 130.859L27.329 75.5245L18.1921 78.238Z" fill="black"/>
<path d="M103.64 64.0342L93.4834 64.5772L94.5631 128.547L105.194 126.813L103.64 64.0342Z" fill="#F3CA0B"/>
<path d="M94.1244 129.071L93.0288 64.1533L104.076 63.5635L105.651 127.191L94.1244 129.071ZM93.938 65.0001L95.0012 128.022L104.737 126.434L103.205 64.5045L93.938 65.0001Z" fill="black"/>
<path d="M89.3142 59.467L77.8149 61.3428L90.0959 136.63L101.595 134.755L89.3142 59.467Z" fill="#F3CA0B"/>
<path d="M89.7205 137.138L89.6481 136.697L77.2969 60.9724L89.678 58.9521L89.7505 59.3937L102.102 135.119L89.7205 137.138ZM78.3234 61.7105L90.4587 136.112L101.075 134.381L88.9399 59.9792L78.3234 61.7105Z" fill="black"/>
<path d="M64.8619 62.1182L53.9976 62.9993L62.5687 131.761L72.4848 132.816L64.8619 62.1182Z" fill="#F3CA0B"/>
<path d="M72.9886 133.319L62.1692 132.168L53.4961 62.5913L65.2599 61.6377L72.9886 133.319ZM62.9682 131.353L71.9804 132.313L64.4643 62.599L54.499 63.4067L62.9682 131.353Z" fill="black"/>
<path d="M123.307 73.1943L111.667 73.6378L114.823 132.592L125.702 132.376L123.307 73.1943Z" fill="#F3CA0B"/>
<path d="M114.399 133.047L111.195 73.2087L123.735 72.7314L123.753 73.1773L126.166 132.815L114.399 133.047ZM112.137 74.0676L115.246 132.136L125.236 131.938L122.878 73.6585L112.137 74.0676Z" fill="black"/>
<path d="M24.27 119.074L44.9818 231.783L51.2699 231.296L68.5466 229.957L81.8412 228.925L98.9869 227.598L108.311 226.875L125.425 225.545L131.604 225.071L127.351 104.354C127.351 104.354 125.149 105.341 120.845 106.816C116.917 108.166 111.231 109.909 103.866 111.672C98.6811 112.91 92.663 114.152 85.8435 115.251C80.621 116.107 74.9294 116.876 68.7717 117.503C63.4303 118.059 57.7508 118.504 51.7366 118.794C46.2213 119.067 40.4327 119.223 34.3638 119.218C31.0751 119.219 27.7138 119.171 24.27 119.074Z" fill="#91D728"/>
<path d="M44.6387 232.231L44.5706 231.859L23.7646 118.642L24.2815 118.656C27.7056 118.752 31.1276 118.799 34.3638 118.8C40.1041 118.821 45.9459 118.663 51.7157 118.377C57.4435 118.099 63.1675 117.666 68.7281 117.087C74.5651 116.492 80.3006 115.736 85.7762 114.838C91.9509 113.843 98.0043 112.641 103.768 111.265C111.513 109.412 117.255 107.608 120.709 106.421C124.94 104.971 127.158 103.982 127.179 103.972L127.747 103.718L127.769 104.339L132.036 225.458L44.6387 232.231ZM24.7748 119.507L45.3252 231.337L131.171 224.685L126.954 104.979C126.037 105.362 124.022 106.17 120.98 107.213C117.509 108.406 111.739 110.218 103.962 112.079C98.1782 113.46 92.104 114.666 85.9096 115.664C80.4185 116.565 74.666 117.324 68.8136 117.92C63.238 118.5 57.4991 118.935 51.7558 119.213C45.972 119.499 40.1403 119.633 34.3628 119.637C34.3275 119.637 34.2913 119.637 34.2555 119.637C31.1808 119.637 27.994 119.594 24.7748 119.507Z" fill="black"/>
<path d="M68.7725 117.503C72.7762 154.683 78.4373 191.691 81.842 228.925L98.9877 227.598C95.6275 190.042 89.9016 152.738 85.8443 115.251C80.6218 116.107 74.9302 116.876 68.7725 117.503Z" fill="white"/>
<path d="M81.3318 229.276L81.3043 228.975C79.3425 207.521 76.5851 185.779 73.9186 164.753C71.9587 149.297 69.9323 133.314 68.2357 117.561L68.1772 117.022L68.7173 116.966C74.5504 116.373 80.283 115.616 85.7567 114.719L86.319 114.627L86.3799 115.193C88.0581 130.697 90.0551 146.432 91.986 161.648C94.7231 183.218 97.5534 205.522 99.5243 227.551L99.5731 227.787L81.3318 229.276ZM69.3671 117.984C71.0506 133.553 73.0529 149.342 74.99 164.617C77.6358 185.479 80.37 207.047 82.3308 228.347L98.4017 227.103C96.4346 205.271 93.6299 183.166 90.916 161.783C89.0078 146.747 87.0354 131.206 85.3693 115.875C80.2145 116.709 74.8369 117.418 69.3671 117.984Z" fill="black"/>
<path d="M34.3643 119.219C39.7916 156.61 45.0223 194.03 51.2704 231.296L68.547 229.957C62.3313 192.996 57.1325 155.881 51.737 118.795C46.2213 119.068 40.4326 119.224 34.3643 119.219Z" fill="white"/>
<path d="M50.7835 231.657L50.7381 231.385C45.5007 200.145 40.9023 168.275 36.4556 137.455C35.5817 131.402 34.7088 125.349 33.8301 119.296L33.7407 118.678L34.3644 118.679C40.1313 118.7 45.9417 118.542 51.7096 118.256L52.1994 118.231L52.27 118.716C53.1462 124.743 54.0177 130.769 54.8897 136.795C59.3059 167.336 63.8734 198.916 69.078 229.867L69.1761 230.237L50.7835 231.657ZM34.9875 119.758C35.8363 125.606 36.6797 131.454 37.5237 137.302C41.9467 167.956 46.519 199.648 51.7207 230.72L67.9167 229.465C62.7502 198.689 58.2117 167.305 53.8221 136.951C52.9743 131.086 52.1265 125.221 51.2734 119.357C45.8557 119.618 40.383 119.753 34.9875 119.758Z" fill="black"/>
<path d="M103.867 111.672C105.385 150.025 106.859 188.376 108.3 226.734C108.297 226.777 108.304 226.832 108.311 226.876L125.425 225.547C123.931 185.973 122.426 146.387 120.845 106.817C116.918 108.167 111.231 109.91 103.867 111.672Z" fill="white"/>
<path d="M107.814 227.163L107.779 226.968C107.762 226.869 107.756 226.779 107.761 226.7C106.272 187.123 104.78 148.411 103.327 111.693L103.309 111.251L103.74 111.147C111.48 109.295 117.219 107.493 120.67 106.307L121.355 106.071L121.384 106.795C123.01 147.476 124.538 187.756 125.964 225.525L125.984 225.776L107.814 227.163ZM104.423 112.093C105.865 148.55 107.345 186.969 108.823 226.294L124.867 225.048C123.455 187.652 121.942 147.809 120.335 107.561C116.879 108.726 111.5 110.385 104.423 112.093Z" fill="black"/>
<path d="M77.7493 189.874C78.4589 196.969 72.0983 203.414 63.5426 204.27C54.9869 205.125 47.4761 200.067 46.7669 192.972C46.0573 185.878 52.4179 179.432 60.9736 178.577C69.5288 177.721 77.0397 182.779 77.7493 189.874Z" fill="#E33D59"/>
<path d="M61.6478 204.775C58.1078 204.775 54.7326 203.794 51.9824 201.943C48.7106 199.74 46.7136 196.568 46.358 193.014C45.6271 185.705 52.1655 179.045 60.9323 178.168C65.1669 177.749 69.2856 178.715 72.5333 180.902C75.8042 183.106 77.8022 186.277 78.1577 189.832C78.5138 193.388 77.1834 196.893 74.4125 199.7C71.6624 202.487 67.8166 204.255 63.5834 204.679C62.9347 204.742 62.2888 204.775 61.6478 204.775ZM62.8695 178.893C62.2555 178.893 61.6367 178.924 61.0145 178.986C52.6988 179.818 46.4909 186.074 47.1759 192.931C47.5068 196.238 49.3767 199.197 52.4423 201.261C55.5321 203.342 59.4594 204.263 63.5023 203.86C67.5446 203.456 71.2121 201.774 73.8285 199.123C76.424 196.493 77.6713 193.223 77.3409 189.915C77.01 186.608 75.14 183.649 72.0749 181.585C69.46 179.825 66.2457 178.893 62.8695 178.893Z" fill="#E33D59"/>
<path d="M106.95 200.017C114.794 199.233 120.577 192.845 119.868 185.751C119.158 178.656 112.225 173.541 104.381 174.325C96.5377 175.109 90.7543 181.496 91.4638 188.591C92.1733 195.686 99.1069 200.801 106.95 200.017Z" fill="#E33D59"/>
<path d="M105.358 200.508C102.047 200.508 98.8789 199.496 96.296 197.591C93.2782 195.364 91.4208 192.184 91.0657 188.638C90.7112 185.091 91.9024 181.607 94.4202 178.826C96.9278 176.056 100.453 174.318 104.346 173.928C108.237 173.541 112.039 174.545 115.045 176.763C118.064 178.991 119.922 182.17 120.276 185.717C120.631 189.263 119.439 192.748 116.922 195.528C114.415 198.298 110.889 200.036 106.996 200.426C106.447 200.481 105.9 200.508 105.358 200.508ZM91.871 188.558C92.2024 191.874 93.9444 194.851 96.7761 196.94C99.62 199.038 103.216 199.991 106.914 199.621C110.608 199.252 113.949 197.605 116.321 194.986C118.683 192.377 119.801 189.114 119.47 185.798C119.139 182.482 117.397 179.504 114.565 177.415C111.72 175.317 108.121 174.364 104.427 174.734C100.733 175.103 97.392 176.75 95.0197 179.37C92.6579 181.978 91.5396 185.242 91.871 188.558Z" fill="#E33D59"/>
<path d="M76.8514 191.495C80.0831 194.869 84.3293 197.111 84.5501 197.235L84.5583 197.234C84.766 197.057 88.407 194.133 90.9223 190.292C92.5904 187.759 93.7739 184.835 93.1701 182.037C92.8696 180.654 91.8991 179.505 90.5605 179.036C90.0083 178.846 89.3548 178.72 88.6398 178.77C86.9742 178.886 84.9994 179.947 83.2506 183.31C79.8841 179.055 76.8881 179.526 75.2094 180.5C73.9776 181.215 73.2448 182.523 73.2134 183.946C73.1564 186.749 74.7998 189.353 76.8514 191.495Z" fill="black"/>
<path d="M84.4797 197.654L84.3522 197.588C83.2208 196.97 79.464 194.808 76.5593 191.775C74.0188 189.122 72.757 186.485 72.8092 183.936C72.8444 182.342 73.6661 180.927 75.0067 180.149C76.2525 179.427 79.4852 178.263 83.1817 182.588C84.6884 179.931 86.513 178.511 88.6119 178.365C89.3037 178.319 90.0017 178.415 90.693 178.653C92.1548 179.165 93.2277 180.397 93.5658 181.95C94.1117 184.481 93.3364 187.362 91.2611 190.512C89.0766 193.849 86.0671 196.508 84.8749 197.497L84.787 197.57L84.4797 197.654ZM77.1438 191.215C79.8219 194.011 83.258 196.054 84.5068 196.749C85.8343 195.629 88.5728 193.14 90.5834 190.069C92.5355 187.105 93.2726 184.432 92.7741 182.121C92.4968 180.846 91.6191 179.836 90.4264 179.418C89.8404 179.214 89.2477 179.131 88.6675 179.173C86.7328 179.308 85.0309 180.762 83.6092 183.495L83.3213 184.05L82.9334 183.561C79.5949 179.339 76.7887 180.054 75.4129 180.85C74.3183 181.484 73.6478 182.645 73.6183 183.954C73.5705 186.279 74.7569 188.722 77.1438 191.215Z" fill="black"/>
<path d="M76.8516 191.496C80.0833 194.87 84.3295 197.112 84.5503 197.235L84.5585 197.235C84.7662 197.057 88.4071 194.133 90.9225 190.292C88.9786 188.991 86.1754 188.363 83.1827 188.759C80.6345 189.093 78.4119 190.113 76.8516 191.496Z" fill="#F3CA0B"/>
<path d="M84.4797 197.654L84.3522 197.588C83.2208 196.97 79.464 194.808 76.5593 191.775C74.0188 189.122 72.757 186.485 72.8092 183.936C72.8444 182.342 73.6661 180.927 75.0067 180.149C76.2525 179.427 79.4852 178.263 83.1817 182.588C84.6884 179.931 86.513 178.511 88.6119 178.365C89.3037 178.319 90.0017 178.415 90.693 178.653C92.1548 179.165 93.2277 180.397 93.5658 181.95C94.1117 184.481 93.3364 187.362 91.2611 190.512C89.0766 193.849 86.0671 196.508 84.8749 197.497L84.787 197.57L84.4797 197.654ZM77.1438 191.215C79.8219 194.011 83.258 196.054 84.5068 196.749C85.8343 195.629 88.5728 193.14 90.5834 190.069C92.5355 187.105 93.2726 184.432 92.7741 182.121C92.4968 180.846 91.6191 179.836 90.4264 179.418C89.8404 179.214 89.2477 179.131 88.6675 179.173C86.7328 179.308 85.0309 180.762 83.6092 183.495L83.3213 184.05L82.9334 183.561C79.5949 179.339 76.7887 180.054 75.4129 180.85C74.3183 181.484 73.6478 182.645 73.6183 183.954C73.5705 186.279 74.7569 188.722 77.1438 191.215Z" fill="black"/>
<path d="M85.2936 174.506C85.4588 176.156 84.1559 177.637 82.384 177.814C80.6121 177.991 79.0421 176.797 78.8769 175.148C78.7117 173.498 80.0146 172.017 81.787 171.84C83.5584 171.663 85.1284 172.857 85.2936 174.506Z" fill="#BD80DD"/>
<path d="M82.0329 178.237C81.2126 178.237 80.4252 177.977 79.7832 177.489C79.0301 176.917 78.5654 176.1 78.4741 175.189C78.2871 173.321 79.7552 171.637 81.7464 171.438C82.7072 171.343 83.6434 171.6 84.3878 172.167C85.1409 172.74 85.6057 173.556 85.697 174.467C85.8839 176.335 84.4159 178.019 82.4246 178.218C82.2932 178.23 82.1623 178.237 82.0329 178.237ZM82.1367 172.228C82.0338 172.228 81.9304 172.232 81.8266 172.243C80.2793 172.398 79.1368 173.683 79.2793 175.108C79.3474 175.793 79.7001 176.409 80.2721 176.845C80.8527 177.287 81.5875 177.492 82.3435 177.412C83.8908 177.257 85.0332 175.973 84.8907 174.547C84.8226 173.862 84.47 173.245 83.8975 172.811C83.397 172.429 82.7811 172.228 82.1367 172.228Z" fill="black"/>
<path d="M69.2916 165.338C69.3612 166.035 69.4216 166.717 69.4655 167.4C69.7588 171.629 69.6298 175.599 69.1477 179.031C68.3013 178.663 67.4135 178.363 66.4855 178.148C64.6343 177.686 62.6281 177.538 60.5606 177.745C59.8394 177.817 59.1302 177.928 58.4496 178.085C56.2864 178.552 54.3241 179.405 52.6556 180.526C51.1914 176.974 50.0822 172.681 49.6069 167.929C48.2437 154.297 52.6464 142.071 57.6873 141.567C57.9356 141.543 58.1785 141.543 58.4244 141.575C63.2281 142.098 67.9941 152.363 69.2916 165.338Z" fill="white"/>
<path d="M52.4698 181.138L52.2814 180.681C50.7211 176.894 49.6574 172.499 49.2043 167.969C47.8835 154.757 51.9863 141.731 57.6474 141.165C57.9382 141.135 58.2083 141.138 58.4764 141.173C63.5481 141.726 68.3745 152.099 69.6948 165.297C69.7648 165.998 69.8252 166.686 69.8701 167.374C70.1566 171.507 70.0455 175.557 69.5484 179.087L69.4745 179.614L68.9866 179.401C68.1417 179.035 67.2697 178.745 66.3944 178.541C64.5418 178.08 62.5946 177.947 60.6014 178.147C59.8797 178.219 59.186 178.331 58.5411 178.479C56.4721 178.926 54.5693 179.728 52.8819 180.861L52.4698 181.138ZM58.0319 141.955C57.9324 141.955 57.8315 141.96 57.7271 141.971C53.1046 142.433 48.6304 154.097 50.0095 167.889C50.4371 172.162 51.4158 176.31 52.8461 179.919C54.5137 178.871 56.3673 178.122 58.3638 177.69C59.0372 177.535 59.7647 177.417 60.5202 177.342C62.609 177.132 64.6476 177.272 66.5833 177.755C67.3316 177.929 68.0818 178.164 68.816 178.454C69.245 175.104 69.3305 171.306 69.0614 167.429C69.018 166.747 68.9576 166.07 68.8885 165.378C67.6272 152.76 63.0114 142.482 58.3797 141.977C58.2648 141.963 58.1498 141.955 58.0319 141.955Z" fill="black"/>
<path d="M58.4461 142.277C58.2297 142.299 58.0167 142.353 57.8148 142.438C54.3337 143.701 52.9657 151.666 53.7893 162.282L64.3908 163.321L54.2284 166.43C54.8313 170.732 55.9704 175.204 57.6809 178.333C58.5993 178.047 59.5596 177.854 60.561 177.754C63.6788 177.442 66.711 177.657 69.1476 179.032C69.1732 178.884 69.5355 174.979 69.6124 172.834C69.6979 170.292 69.3805 166.471 69.0931 163.593C67.8689 151.356 62.5411 141.868 58.4461 142.277Z" fill="black"/>
<path d="M69.4485 179.666L68.949 179.384C66.8602 178.205 64.1303 177.801 60.6015 178.156C59.6281 178.254 58.6861 178.443 57.8011 178.72L57.4847 178.818L57.3258 178.527C55.7548 175.653 54.5123 171.376 53.8278 166.487L53.78 166.144L62.3372 163.525L53.4124 162.652L53.3863 162.313C52.5028 150.925 54.107 143.353 57.677 142.057C57.8958 141.965 58.1475 141.901 58.4059 141.874H58.4064C63.0492 141.431 68.3152 151.746 69.4963 163.553C69.9103 167.689 70.0852 170.816 70.0175 172.846C69.9412 174.969 69.5808 178.902 69.5465 179.099L69.4485 179.666ZM62.9367 177.223C65.2462 177.223 67.1838 177.612 68.8045 178.395C68.9137 177.217 69.148 174.491 69.2079 172.82C69.2751 170.825 69.1007 167.734 68.6901 163.634C67.4645 151.38 62.1816 142.292 58.4866 142.68C58.3079 142.698 58.1344 142.742 57.9716 142.81C54.8737 143.935 53.3964 151.415 54.1669 161.912L66.4447 163.115L54.678 166.715C55.335 171.207 56.4654 175.133 57.8823 177.851C58.7238 177.61 59.6097 177.443 60.5203 177.35C61.3676 177.266 62.1729 177.223 62.9367 177.223Z" fill="black"/>
<path d="M51.0144 150.602C46.0629 150.602 45.3368 146.193 45.3296 146.147L46.13 146.025C46.1547 146.182 46.7706 149.849 51.1236 149.792L51.1356 150.602C51.0941 150.602 51.054 150.602 51.0144 150.602Z" fill="black"/>
<path d="M50.0759 154.844C45.1254 154.844 44.3993 150.434 44.3921 150.388L45.1921 150.267C45.2162 150.422 45.8326 154.034 50.0769 154.034C50.1136 154.034 50.1494 154.034 50.1856 154.034L50.1977 154.842C50.1571 154.843 50.116 154.844 50.0759 154.844Z" fill="black"/>
<path d="M49.1282 160.315C44.1776 160.315 43.4516 155.905 43.4443 155.86L44.2448 155.738C44.2689 155.893 44.8853 159.506 49.1287 159.506C49.1654 159.506 49.2011 159.506 49.2373 159.505L49.2494 160.314C49.2088 160.315 49.1678 160.315 49.1282 160.315Z" fill="black"/>
<path d="M50.7754 182.236C55.2385 177.176 63.0764 176.129 69.1104 178.762C69.9597 179.162 70.7843 179.608 71.5799 180.08L71.5461 180.153C70.6881 179.828 69.8481 179.451 68.9771 179.167C62.8706 177.018 55.7124 178.277 50.7754 182.236Z" fill="black"/>
<path d="M112.558 161.536C112.644 162.231 112.721 162.912 112.781 163.594C113.174 167.814 113.14 171.787 112.738 175.229C111.884 174.88 110.988 174.602 110.056 174.409C108.194 173.991 106.185 173.891 104.123 174.147C103.404 174.236 102.697 174.364 102.021 174.537C99.8696 175.056 97.9277 175.954 96.2862 177.115C94.7379 173.598 93.5273 169.333 92.9394 164.593C91.2535 150.997 95.3654 138.671 100.393 138.048C100.641 138.017 100.883 138.011 101.13 138.037C105.945 138.447 110.953 148.595 112.558 161.536Z" fill="white"/>
<path d="M96.1155 177.732L95.9165 177.279C94.2668 173.53 93.0987 169.161 92.5379 164.643C91.7486 158.277 92.1944 151.606 93.761 146.341C95.3073 141.142 97.7073 137.974 100.343 137.646C100.634 137.611 100.906 137.606 101.173 137.635C106.256 138.067 111.327 148.321 112.959 161.486C113.046 162.186 113.123 162.872 113.183 163.558C113.568 167.681 113.553 171.733 113.139 175.275L113.078 175.804L112.585 175.603C111.731 175.255 110.852 174.987 109.973 174.805C108.112 174.388 106.161 174.301 104.173 174.548C103.449 174.637 102.758 174.766 102.121 174.929C100.061 175.426 98.1782 176.272 96.5194 177.445L96.1155 177.732ZM100.812 138.426C100.692 138.426 100.57 138.434 100.442 138.449C98.1739 138.73 95.9663 141.767 94.5364 146.571C93.0002 151.733 92.5645 158.284 93.3408 164.544C93.8692 168.805 94.946 172.929 96.4624 176.503C98.1029 175.416 99.9386 174.622 101.925 174.144C102.591 173.973 103.315 173.839 104.072 173.745C106.156 173.487 108.197 173.578 110.143 174.014C110.895 174.169 111.651 174.387 112.393 174.661C112.742 171.3 112.737 167.499 112.377 163.631C112.316 162.952 112.24 162.276 112.155 161.585C110.595 149.002 105.736 138.835 101.095 138.441C101.002 138.431 100.908 138.426 100.812 138.426Z" fill="black"/>
<path d="M101.169 138.739C100.953 138.766 100.741 138.825 100.541 138.915C97.0911 140.26 95.9124 148.255 96.9873 158.849L107.61 159.636L97.5244 162.985C98.2293 167.272 99.4737 171.715 101.258 174.803C102.17 174.495 103.125 174.28 104.124 174.156C107.233 173.77 110.27 173.913 112.738 175.23C112.76 175.081 113.03 171.169 113.056 169.023C113.081 166.479 112.673 162.667 112.318 159.797C110.805 147.592 105.253 138.233 101.169 138.739Z" fill="black"/>
<path d="M113.053 175.855L112.548 175.586C110.431 174.457 107.693 174.12 104.174 174.557C103.211 174.676 102.274 174.887 101.388 175.186L101.074 175.292L100.908 175.005C99.2701 172.17 97.9266 167.925 97.1257 163.051L97.0697 162.711L105.561 159.89L96.6185 159.229L96.5842 158.891C95.4311 147.527 96.8552 139.919 100.394 138.539C100.611 138.44 100.861 138.371 101.118 138.339C103.305 138.071 105.83 140.243 108.062 144.307C110.345 148.468 112 153.951 112.719 159.747C113.231 163.879 113.48 167.001 113.46 169.027C113.434 171.165 113.168 175.096 113.138 175.29L113.053 175.855ZM106.962 173.564C109.063 173.564 110.855 173.908 112.382 174.602C112.464 173.413 112.631 170.659 112.652 169.017C112.671 167.028 112.424 163.942 111.916 159.846C111.21 154.149 109.589 148.769 107.353 144.696C105.32 140.993 103.027 138.905 101.219 139.141H101.218C101.041 139.163 100.869 139.211 100.707 139.284C97.6363 140.481 96.3368 147.994 97.3566 158.471L109.66 159.381L97.9812 163.259C98.745 167.735 99.9681 171.634 101.449 174.315C102.291 174.053 103.173 173.865 104.075 173.754C105.096 173.627 106.058 173.564 106.962 173.564Z" fill="black"/>
<path d="M106.393 143.26L106.225 142.469C110.474 141.569 110.272 137.849 110.262 137.691L111.069 137.633C111.072 137.679 111.344 142.212 106.393 143.26Z" fill="black"/>
<path d="M108.245 147.19L108.078 146.399C112.346 145.495 112.126 141.779 112.115 141.621L112.921 141.562C112.925 141.608 113.196 146.142 108.245 147.19Z" fill="black"/>
<path d="M110.381 152.317L110.213 151.525C114.481 150.621 114.262 146.905 114.25 146.747L115.057 146.688C115.06 146.735 115.332 151.268 110.381 152.317Z" fill="black"/>
<path d="M115.32 176.996C108.563 173.788 100.839 174.962 94.5717 178.767C94.5717 178.766 94.5225 178.702 94.5225 178.702C95.291 178.181 96.0321 177.613 96.8248 177.128C99.1947 175.716 101.916 174.667 104.681 174.412C108.278 174.086 112.516 174.894 115.32 176.996Z" fill="black"/>
<path d="M47.8491 137.594C50.6915 131.123 61.0385 130.113 65.117 135.867L65.0093 136.054C59.6767 133.037 52.6166 133.728 47.9921 137.755C47.9916 137.755 47.8491 137.594 47.8491 137.594Z" fill="black"/>
<path d="M89.5576 132.665C92.4 126.194 102.747 125.184 106.826 130.938L106.718 131.125C101.385 128.109 94.3251 128.8 89.7006 132.827C89.7001 132.827 89.5576 132.665 89.5576 132.665Z" fill="black"/>
<path d="M85.5056 24.0341C90.56 17.3218 99.8708 17.6547 107.253 19.1802C103.638 16.9421 98.638 14.0852 98.5215 9.22891C98.3935 3.89337 104.829 1.62486 109.114 0.853392C116.476 -0.471677 124.04 1.44081 130.899 4.06293C141.311 8.04393 150.527 15.0678 158.772 22.4506C166.343 29.2296 172.971 37.1505 177.658 46.2014C182.088 54.758 186.047 65.6035 183.86 75.3403L183.789 75.1998C182.924 64.634 174.842 57.1343 166.125 52.0007C147.231 40.8731 123.435 44.5063 102.598 44.1763C96.6076 44.0817 90.3542 42.9431 86.1278 38.32C82.3077 34.1429 82.1062 28.5489 85.5056 24.0341Z" fill="#FC09B2"/>
<path d="M184.013 76.5661L183.371 75.2348C182.653 66.4568 176.778 58.7615 165.912 52.3617C151.087 43.6312 133.276 44.0481 116.053 44.4514C111.384 44.5611 106.972 44.6649 102.59 44.5944C94.7718 44.4707 89.4421 42.5665 85.8181 38.6019C81.8854 34.3006 81.6322 28.483 85.1712 23.7827C89.0276 18.6626 95.7452 16.8448 105.153 18.3679C101.884 16.2859 98.2045 13.4874 98.1031 9.2388C97.9562 3.10184 105.702 1.04298 109.04 0.441556C115.329 -0.690284 122.322 0.335763 131.047 3.67235C142.591 8.0857 152.557 16.325 159.05 22.1393C167.239 29.4709 173.623 37.5019 178.028 46.0093C183.974 57.4934 186.073 67.3926 184.267 75.4319L184.013 76.5661ZM127.035 43.4442C140.799 43.4442 154.471 44.6543 166.337 51.6415C176.45 57.5978 182.339 64.6873 183.876 72.7455C184.74 65.3728 182.53 56.5244 177.286 46.3943C172.928 37.9773 166.605 30.0269 158.493 22.7629C152.049 16.9931 142.163 8.81756 130.749 4.45348C122.172 1.17486 115.32 0.16234 109.188 1.2652C106.063 1.82749 98.8069 3.72887 98.9388 9.21947C99.0446 13.6314 103.444 16.3424 106.979 18.521L109.479 20.0683L107.167 19.5906C96.95 17.4791 89.7754 19.0592 85.8398 24.286H85.8393C82.5535 28.6501 82.7873 34.0485 86.4354 38.0386C89.8938 41.8216 95.0312 43.6389 102.603 43.7587C106.972 43.8283 111.373 43.7254 116.033 43.6157C119.685 43.5302 123.363 43.4442 127.035 43.4442Z" fill="black"/>
<path d="M96.1557 36.6503C91.8873 35.2644 88.4352 30.7636 90.7061 26.3116C91.3568 25.0358 89.4337 23.9063 88.7806 25.186C87.4179 27.8579 87.4053 30.8921 88.8685 33.5301C90.2912 36.0943 92.807 37.9053 95.5625 38.8004C96.931 39.2444 97.517 37.0923 96.1557 36.6503Z" fill="white"/>
<path d="M114.424 3.06254C112.159 2.25871 109.453 2.52585 107.21 3.26833C104.81 4.06299 102.537 5.55713 101.644 8.02129C101.439 8.58745 101.875 9.24201 102.423 9.39273C103.042 9.56326 103.588 9.18211 103.794 8.61402C103.866 8.41548 104.207 7.80535 104.349 7.6271C104.629 7.27639 105.038 6.89428 105.332 6.67496C106.168 6.05132 107.094 5.63153 108.07 5.33347C109.104 5.01802 110.062 4.85281 111.118 4.82818C112.135 4.80451 112.867 4.87069 113.83 5.2127C114.398 5.41414 115.051 4.98469 115.202 4.43399C115.372 3.8171 114.993 3.26447 114.424 3.06254Z" fill="white"/>
<path d="M189.921 47.1419C191.405 45.1038 195.163 41.0209 198.033 42.4165C202.089 44.3884 197.448 49.9901 195.738 51.8514C193.796 53.9648 191.492 55.7542 189.743 58.042C188.234 60.0158 187.048 62.2616 186.119 64.5625C185.765 58.5966 186.294 52.121 189.921 47.1419Z" fill="#E33D59"/>
<path d="M185.812 66.4407L185.701 64.5877C185.245 56.8952 186.514 51.1085 189.582 46.8956C190.081 46.2111 194.558 40.2621 198.215 42.0402C199.225 42.531 199.829 43.2672 200.011 44.2271C200.503 46.8178 197.738 50.2931 196.046 52.1345C195.27 52.979 194.428 53.7808 193.614 54.5557C192.385 55.7267 191.114 56.9373 190.075 58.2957C188.703 60.0908 187.503 62.2515 186.507 64.7186L185.812 66.4407ZM190.259 47.3879C187.551 51.1046 186.303 56.1358 186.461 62.7298C187.326 60.8791 188.315 59.2222 189.412 57.7884C190.49 56.3774 191.786 55.1436 193.038 53.9504C193.842 53.1843 194.673 52.3925 195.43 51.5684C196.426 50.4844 199.642 46.7628 199.191 44.3827C199.059 43.687 198.62 43.1663 197.851 42.7924C195.374 41.5842 191.914 45.115 190.259 47.3879Z" fill="black"/>
<path d="M198.024 43.8717C197.861 43.6195 197.53 43.5147 197.262 43.6717C197.01 43.8186 196.897 44.1809 197.062 44.4345C197.094 44.4837 197.121 44.5354 197.146 44.5881C197.147 44.6006 197.183 44.705 197.191 44.7374C197.197 44.7659 197.21 44.9016 197.2 44.763C197.202 44.8006 197.207 44.8374 197.209 44.875C197.212 44.9518 197.21 45.0291 197.206 45.1059C197.204 45.1359 197.2 45.1658 197.197 45.1963C197.196 45.2079 197.194 45.2233 197.19 45.2441C197.174 45.3257 197.157 45.4074 197.136 45.4881C197.091 45.6644 197.032 45.8368 196.966 46.0059C196.963 46.0132 196.942 46.0634 196.933 46.0871C196.922 46.1112 196.896 46.1692 196.897 46.1668C196.861 46.2474 196.822 46.3276 196.782 46.4069C196.705 46.5624 196.621 46.7155 196.534 46.8663C196.373 47.1431 196.198 47.4117 196.013 47.6735C195.839 47.9194 195.969 48.2933 196.213 48.4363C196.492 48.5995 196.801 48.4831 196.976 48.2363C197.422 47.6049 197.81 46.9305 198.079 46.204C198.352 45.4658 198.476 44.5668 198.024 43.8717Z" fill="white"/>
<path d="M162.938 55.5052C163.962 55.7178 164.972 56.11 165.832 56.4583C168.939 57.7187 171.765 59.6316 174.212 61.9146C175.677 63.2822 177.013 64.7894 178.195 66.4087L177.64 66.015C175.429 64.4474 172.182 64.3624 169.589 64.0218C166.727 63.646 163.769 63.2184 161.204 61.8059C159.559 60.8997 156.735 58.1674 158.864 56.282C159.892 55.3714 161.649 55.2376 162.938 55.5052Z" fill="#E33D59"/>
<path d="M180.041 68.2298L177.398 66.3574C175.652 65.1188 173.137 64.8425 170.917 64.5985C170.443 64.5463 169.979 64.4956 169.534 64.4367C166.949 64.0976 163.73 63.6754 161.002 62.173C159.779 61.4991 157.889 59.8663 157.697 58.1287C157.606 57.3114 157.914 56.565 158.587 55.9699C159.798 54.8974 161.734 54.8303 163.023 55.096C164.084 55.3163 165.11 55.7148 165.988 56.0708C169.01 57.2973 171.873 59.1601 174.497 61.6093C175.978 62.9923 177.336 64.5241 178.532 66.1617L180.041 68.2298ZM161.704 55.7998C160.765 55.7998 159.784 56.0269 159.141 56.5964C158.668 57.0157 158.467 57.4872 158.528 58.0374C158.677 59.3731 160.301 60.832 161.406 61.4407C163.996 62.8667 167.128 63.2778 169.644 63.6082C170.083 63.6657 170.541 63.7159 171.009 63.7671C172.803 63.9647 174.784 64.1821 176.478 64.9014C175.681 63.958 174.827 63.0614 173.927 62.2203C171.378 59.8422 168.602 58.0335 165.674 56.8462C164.83 56.5037 163.846 56.1211 162.853 55.9148C162.498 55.8409 162.105 55.7998 161.704 55.7998Z" fill="black"/>
<path d="M162.696 59.6633C162.552 59.6 162.412 59.53 162.277 59.4498C162.216 59.4131 162.156 59.3749 162.097 59.3348C162.075 59.3194 162.018 59.2938 162.004 59.2687C162.062 59.3141 162.075 59.3242 162.043 59.2986C162.029 59.287 162.014 59.2754 162 59.2633C161.892 59.1745 161.792 59.0778 161.7 58.973C161.681 58.9513 161.663 58.9291 161.645 58.9073C161.644 58.9063 161.645 58.9073 161.644 58.9059C161.604 58.8474 161.564 58.7904 161.528 58.7295C161.495 58.674 161.464 58.6175 161.436 58.5595C161.423 58.5344 161.398 58.43 161.413 58.5136C161.428 58.5981 161.409 58.5039 161.401 58.4812C161.349 58.3455 161.31 58.2049 161.283 58.0619C161.277 58.032 161.274 58.0016 161.267 57.9721C161.266 57.9692 161.267 57.9706 161.266 57.9677C161.259 57.8967 161.254 57.8252 161.251 57.7542C161.245 57.5895 161.252 57.4252 161.267 57.261C161.294 56.9697 160.991 56.691 160.709 56.7035C160.384 56.718 160.181 56.9489 160.152 57.261C160.087 57.9581 160.203 58.6851 160.564 59.2923C160.924 59.8952 161.496 60.3445 162.132 60.6261C162.398 60.744 162.743 60.7126 162.895 60.4261C163.024 60.1841 162.98 59.7894 162.696 59.6633Z" fill="white"/>
<path d="M63.6888 9.30867C64.7322 9.24008 65.8104 9.3478 66.7316 9.45408C70.0629 9.83812 73.2971 10.9265 76.2651 12.4728C78.0428 13.3993 79.7321 14.4945 81.304 15.7389L80.6639 15.508C78.1143 14.5877 74.9632 15.3737 72.3734 15.7384C69.5146 16.1413 66.55 16.5195 63.7013 15.8437C61.8729 15.4099 58.4218 13.5317 59.9701 11.1458C60.7179 9.99367 62.3748 9.39466 63.6888 9.30867Z" fill="#E33D59"/>
<path d="M83.5708 17.0006L80.5221 15.9012C78.5067 15.1751 76.0088 15.5809 73.805 15.9388C73.3345 16.0156 72.8751 16.09 72.4316 16.1524C69.8496 16.5166 66.6347 16.9707 63.6044 16.2509C62.246 15.9292 59.9896 14.8611 59.3389 13.238C59.0331 12.4747 59.1297 11.6728 59.6191 10.9187C60.4992 9.5613 62.3465 8.97872 63.6609 8.89225C64.7425 8.8222 65.8377 8.93138 66.7792 9.0391C70.0182 9.41252 73.2746 10.4434 76.4575 12.1023C78.2555 13.0389 79.9728 14.1524 81.5631 15.4113L83.5708 17.0006ZM63.716 9.72555C62.5064 9.80574 60.9876 10.3453 60.321 11.3733C59.977 11.9042 59.9094 12.4119 60.1157 12.9259C60.6161 14.1747 62.5701 15.1456 63.7976 15.4369C66.6734 16.119 69.8022 15.6775 72.3152 15.3244C72.7528 15.2625 73.2069 15.1886 73.6712 15.1133C75.4532 14.8225 77.4208 14.5041 79.2468 14.7447C78.2261 14.0491 77.1643 13.4124 76.0716 12.8433C72.9794 11.2318 69.8211 10.2313 66.684 9.8695C65.7787 9.76516 64.73 9.66082 63.716 9.72555Z" fill="black"/>
<path d="M66.1396 10.6597C64.529 9.95969 62.6011 10.2302 61.3915 11.5616C61.1891 11.7843 61.1712 12.1301 61.3915 12.3499C61.5968 12.5552 61.9765 12.5736 62.1799 12.3499C62.6335 11.8509 63.1412 11.5654 63.8064 11.4326C63.8445 11.4249 63.8832 11.4186 63.9213 11.4113C63.932 11.4094 63.946 11.4075 63.9571 11.406C64.0411 11.3959 64.1252 11.3896 64.2097 11.3862C64.3764 11.379 64.5431 11.3833 64.7092 11.3988C64.7189 11.3997 64.8001 11.4099 64.8184 11.4118C64.8276 11.4137 64.8754 11.422 64.8831 11.4234C64.9706 11.4393 65.058 11.4587 65.144 11.4809C65.2208 11.5012 65.2976 11.5234 65.373 11.5485C65.4203 11.564 65.4672 11.5809 65.514 11.5988C65.5247 11.6031 65.6363 11.6485 65.5759 11.6224C65.8517 11.7422 66.1739 11.7041 66.3386 11.4224C66.4778 11.1862 66.4174 10.78 66.1396 10.6597Z" fill="white"/>
<path d="M65.0575 31.1414C65.63 30.2665 66.3642 29.4695 67.0029 28.797C69.3129 26.3657 72.1263 24.4354 75.1465 22.9934C76.9551 22.1297 78.8469 21.4384 80.7859 20.9307L80.2169 21.3031C77.9488 22.7876 76.6822 25.7778 75.417 28.0666C74.02 30.5931 72.5403 33.1896 70.2878 35.0601C68.8424 36.2605 65.2662 37.8889 64.2904 35.2175C63.8189 33.9277 64.3368 32.2433 65.0575 31.1414Z" fill="#E33D59"/>
<path d="M66.3984 37.0816C66.1182 37.0816 65.8439 37.0502 65.582 36.9792C64.7888 36.7647 64.2062 36.2058 63.898 35.3614C63.343 33.8416 63.9869 32.0146 64.7077 30.9127V30.9123C65.3014 30.0055 66.0472 29.1964 66.6999 28.5095C68.9447 26.1463 71.7267 24.1637 74.9667 22.6164C76.7946 21.744 78.7168 21.0411 80.68 20.5267L83.163 19.876L80.4457 21.6532C78.654 22.8256 77.4762 25.0676 76.4376 27.0453C76.2159 27.466 76 27.8781 75.7836 28.2689C74.5218 30.5519 72.9508 33.3928 70.5553 35.3816C69.6471 36.1357 67.9278 37.0816 66.3984 37.0816ZM65.4076 31.3702C64.7439 32.3851 64.2628 33.9237 64.683 35.0754C64.9004 35.6691 65.2656 36.028 65.7999 36.1724C67.0994 36.5275 69.05 35.5464 70.02 34.7392C72.2943 32.8513 73.8228 30.0872 75.0512 27.8655C75.2647 27.4795 75.4778 27.0728 75.6966 26.6569C76.5367 25.0574 77.4642 23.2932 78.754 21.9783C77.5845 22.3754 76.4376 22.8411 75.3271 23.3715C72.1789 24.8743 69.4804 26.7974 67.3061 29.0858C66.6786 29.7456 65.9627 30.5215 65.4076 31.3702Z" fill="black"/>
<path d="M69.9098 31.9215C69.5997 31.851 69.3258 32.0152 69.2239 32.3109C69.2099 32.3524 69.1954 32.3935 69.1794 32.4346C69.1703 32.4582 69.1079 32.5829 69.1693 32.4611C69.134 32.5307 69.1031 32.6022 69.0659 32.6713C69.0292 32.7389 68.9901 32.8051 68.9485 32.8703C68.9258 32.9051 68.9026 32.9399 68.879 32.9737C68.8756 32.9785 68.863 32.9964 68.8519 33.0113C68.8481 33.0157 68.8229 33.0481 68.8157 33.0572C68.7891 33.0886 68.7625 33.1196 68.735 33.15C68.6804 33.2104 68.6229 33.2683 68.5635 33.3239C68.5138 33.3703 68.4621 33.4133 68.4109 33.4572C68.4056 33.4616 68.4085 33.4596 68.4046 33.463C68.4002 33.4659 68.4027 33.4635 68.3954 33.4688C68.3621 33.492 68.3292 33.5157 68.2959 33.5384C68.1722 33.621 68.0423 33.6944 67.908 33.7572C67.9036 33.7591 67.8959 33.7635 67.8891 33.7674C67.8611 33.7833 67.8264 33.792 67.7969 33.8031C67.7264 33.8292 67.6549 33.8529 67.5824 33.8736C67.5027 33.8968 67.422 33.9161 67.3409 33.9331C67.3066 33.9398 67.2727 33.9466 67.2384 33.9524C67.2269 33.9543 67.2298 33.9543 67.2225 33.9558C67.067 33.9896 66.8858 33.9809 66.7293 33.977C66.4375 33.9698 66.1588 34.2388 66.1718 34.5345C66.1858 34.8427 66.4167 35.0837 66.7293 35.0919C67.4853 35.1113 68.2659 34.9089 68.8925 34.478C69.5611 34.0186 70.0359 33.3737 70.2992 32.6075C70.3939 32.3312 70.191 31.9853 69.9098 31.9215Z" fill="white"/>
<path d="M150.626 98.7179C152.153 94.05 156.807 90.5221 160.997 88.4313C166.542 85.6648 172.847 84.532 179.012 84.5788L179.771 69.5649L187.854 66.2129L186.901 85.2981C200.14 87.6265 210.296 95.2688 212.223 104.177C212.455 105.218 212.574 106.28 212.557 107.352L212.423 108.86C212.423 108.86 150.341 103.342 149.947 103.307C149.928 103.305 150.17 100.786 150.202 100.553C150.288 99.9232 150.432 99.3111 150.626 98.7179Z" fill="#FC09B2"/>
<path d="M212.829 109.344L212.384 109.304C212.384 109.304 150.302 103.787 149.908 103.751L149.718 103.734L149.599 103.585C149.395 103.33 149.644 101.337 149.761 100.492C149.847 99.8526 149.996 99.2087 150.202 98.5792C152.059 92.9046 158.23 89.3129 160.798 88.0323C165.901 85.4855 172.044 84.1402 178.589 84.132L179.34 69.261L188.336 65.5303L187.367 84.929C200.56 87.3623 210.7 95.0267 212.66 104.083C212.906 105.182 213.021 106.285 213.004 107.36L212.829 109.344ZM150.424 102.901C155.697 103.37 206.718 107.904 212.019 108.376L212.113 107.312C212.128 106.34 212.02 105.307 211.789 104.275C209.885 95.4769 199.853 88.0289 186.825 85.7377L186.437 85.6696L187.374 66.8954L180.203 69.8692L179.438 85.029L179.01 85.0256C172.421 84.9706 166.286 86.2918 161.197 88.8313C158.73 90.0622 152.803 93.5026 151.051 98.857C150.862 99.4352 150.725 100.026 150.645 100.613C150.622 100.783 150.486 102.188 150.424 102.901Z" fill="black"/>
<path d="M149.799 105.365L149.791 105.488L143.874 172.034L143.228 179.21L138.933 227.573C138.204 235.877 144.337 243.208 152.639 243.948L184.933 246.812C193.245 247.553 200.577 241.42 201.306 233.118L212.163 111.033L212.171 110.909L149.799 105.365Z" fill="#FC09B2"/>
<path d="M186.305 247.333C185.836 247.333 185.365 247.311 184.892 247.27L152.598 244.407C144.061 243.644 137.725 236.076 138.475 227.533L149.371 104.866L212.658 110.492L212.623 111.061L201.764 233.158C201.401 237.293 199.448 241.039 196.264 243.704C193.44 246.069 189.948 247.333 186.305 247.333ZM150.219 105.864L139.391 227.614C138.686 235.652 144.647 242.774 152.68 243.49L184.974 246.353C188.874 246.709 192.675 245.512 195.675 242.999C198.67 240.491 200.507 236.968 200.849 233.077L211.676 111.327L150.219 105.864Z" fill="black"/>
<path d="M150.179 100.6L149.746 105.476L212.19 111.024L212.624 106.148L150.179 100.6Z" fill="#FC09B2"/>
<path d="M212.61 111.531L149.255 105.9L149.77 100.113L213.125 105.744L212.61 111.531ZM150.249 105.07L211.78 110.538L212.132 106.575L150.601 101.106L150.249 105.07Z" fill="black"/>
<path d="M203.014 126.436L193.555 233.256L194.416 233.332L203.875 126.513L203.014 126.436Z" fill="black"/>
<path d="M194.735 92.0566C194.93 91.5349 195.626 91.1358 196.17 91.4025C198.465 92.5285 200.721 93.772 202.728 95.3671C204.774 96.9936 206.477 98.9326 207.833 101.165C208.145 101.68 207.803 102.412 207.299 102.649C206.706 102.929 206.129 102.632 205.815 102.116C203.387 98.1167 199.511 95.5149 195.389 93.4918C194.849 93.2261 194.51 92.6604 194.735 92.0566Z" fill="white"/>
<path d="M154.012 96.3812C154.883 94.9769 155.979 93.7223 157.457 92.9402C157.973 92.6668 158.715 92.9359 158.941 93.4736C159.184 94.0523 158.959 94.6658 158.408 94.9576C158.305 95.0117 158.206 95.073 158.107 95.1324C157.715 95.3976 157.358 95.7054 157.029 96.0445C156.58 96.5488 156.187 97.0985 155.83 97.6719C155.522 98.1685 154.731 98.2893 154.275 97.9352C153.775 97.5459 153.683 96.9121 154.012 96.3812Z" fill="white"/>
<path d="M143.814 212.831C144.063 211.429 146.286 211.613 146.035 213.028C145.247 217.467 144.531 221.947 144.593 226.469C144.65 230.588 145.368 236.243 150.029 237.547C151.41 237.934 150.625 240.022 149.249 239.637C144.031 238.176 142.644 232.387 142.416 227.635C142.177 222.655 142.947 217.716 143.814 212.831Z" fill="white"/>
<path d="M187.715 69.5637L179.38 72.5186L179.678 73.3599L188.014 70.4051L187.715 69.5637Z" fill="black"/>
<path d="M36.41 50.8945C36.41 50.8945 43.9783 38.4269 39.5326 31.4726C38.6713 30.1257 37.1993 29.2958 35.6008 29.3301C33.4135 29.3765 30.2571 30.6769 29.5127 36.7342C24.2945 33.5701 21.37 35.2212 19.9797 36.9105C18.9638 38.1452 18.7044 39.8152 19.2295 41.3248C21.9405 49.1207 36.4172 50.8926 36.4172 50.8926" fill="#FD8A02"/>
<path d="M212.076 84.9639C212.076 84.9639 226.652 84.4639 230.034 76.9347C230.689 75.4763 230.576 73.7904 229.672 72.4716C228.435 70.6673 225.618 68.7389 220.143 71.4349C219.93 65.3361 216.947 63.7941 214.772 63.5565C213.183 63.3831 211.644 64.0806 210.668 65.3472C205.632 71.8866 212.081 84.9677 212.081 84.9677" fill="#FD8A02"/>
</g>
<path d="M165.181 124.297C164.786 126.313 163.001 127.462 161.088 127.118C159.155 126.771 157.87 124.798 158.249 123.017C158.659 121.091 160.424 119.891 162.365 120.255C164.347 120.626 165.569 122.38 165.181 124.297Z" fill="black"/>
<path d="M185.04 131.911C183.3 131.611 181.944 129.513 182.354 127.816C182.724 126.287 184.189 124.656 186.517 125.067C190.951 125.851 189.885 132.746 185.04 131.911Z" fill="black"/>
<path d="M178.63 128.438C178.633 128.48 178.634 128.511 178.625 128.542C178.495 131.13 177.256 133.119 175.215 134.004C174.257 134.421 173.145 134.544 172.089 134.331C171.244 134.157 170.461 133.793 169.816 133.254C168.119 131.811 167.547 129.366 168.239 126.561C168.326 126.221 168.647 125.984 168.99 125.966C169.063 125.962 169.137 125.968 169.2 125.986C169.624 126.077 169.887 126.512 169.785 126.946C169.229 129.18 169.609 130.988 170.846 132.038C171.854 132.892 173.327 133.082 174.593 132.544C176.062 131.91 176.953 130.431 177.043 128.462C177.072 128.021 177.431 127.699 177.88 127.717C178.09 127.737 178.282 127.82 178.428 127.979C178.549 128.108 178.621 128.271 178.63 128.438Z" fill="black"/>
<defs>
<clipPath id="clip0_1783_1359">
<rect width="247.333" height="247.333" fill="white" transform="translate(0.333496)"/>
</clipPath>
</defs>
</svg>
