<svg width="231" height="90" viewBox="0 0 231 90" fill="none" xmlns="http://www.w3.org/2000/svg">
<g clip-path="url(#clip0_1729_511)">
<path d="M19.5982 21.8922C29.0633 23.2121 33.2253 21.8922 37.9558 34.5324C42.6863 47.1726 44.0141 54.2933 51.2053 63.8511C58.3965 73.4088 71.646 79.8179 73.5424 85.656C75.4387 91.494 68.8077 90.1866 61.8074 88.8667C54.8071 87.5468 48.9438 91.13 31.3372 78.8621C13.7307 66.5943 -3.10821 49.9903 0.510205 34.8965C4.12862 19.8027 19.5982 21.8922 19.5982 21.8922Z" fill="#DA2630"/>
<path d="M19.4033 30.8578C28.4991 28.1395 36.097 30.6758 36.9352 38.1109C37.7734 45.5461 40.8648 50.4533 42.3296 55.799C43.7944 61.1447 46.6078 67.3055 53.604 70.2101C60.6001 73.1146 65.426 80.5539 59.9694 79.4658C54.5127 78.3776 56.1518 73.9835 47.056 68.7412C37.9601 63.499 41.1968 56.3286 36.9435 51.5704C32.6902 46.8122 35.4994 37.751 30.7192 42.2816C25.9389 46.8122 19.4033 30.8578 19.4033 30.8578Z" fill="#EF433E"/>
<path d="M71.721 89.8343C70.7044 89.073 68.8412 88.2951 65.5714 87.6248C54.5003 85.3533 45.7074 84.1162 35.2008 76.0645C24.6941 68.0128 2.66826 44.2343 6.06259 32.3099C6.84686 27.8827 5.69328 26.8856 4.73889 26.749C2.88818 28.6606 1.3487 31.3003 0.489739 34.8959C-3.10792 49.9896 13.7351 66.5978 31.3375 78.8615C48.9399 91.1252 54.8033 87.5503 61.8077 88.8661C65.6917 89.5984 69.4553 90.3266 71.721 89.8343Z" fill="#AE232A"/>
<path d="M3.49369 30.7666C1.71768 25.4498 9.46075 20.3896 9.46075 20.3896C9.46075 20.3896 6.55606 4.44349 12.3654 1.27827C18.1748 -1.88696 22.2663 1.53066 24.0423 3.81045C25.8183 6.09024 26.3287 11.1505 24.0423 11.7835C21.7559 12.4166 20.4903 10.8981 19.6023 6.71914C18.7143 2.54022 13.8883 7.35219 16.2826 12.7972C18.6769 18.2422 23.7518 20.2448 28.8475 21.7757C33.9431 23.3066 27.0673 23.8072 25.4199 24.9451C23.7726 26.0829 24.6564 28.8675 22.7559 28.9957C20.8554 29.124 20.8513 26.4098 18.6935 27.0676C16.5357 27.7255 17.1706 30.7666 15.5191 30.7666C13.8676 30.7666 13.9962 27.8703 11.2036 28.9957C8.41091 30.1211 4.51033 33.1705 3.49369 30.7666Z" fill="#2AB673"/>
<path d="M13.7143 6.44238C11.9258 10.4806 13.7143 17.3945 17.7642 21.7761C21.8142 26.1578 20.7436 26.0378 20.7436 26.0378C22.6483 23.0712 27.3165 23.2119 28.5821 23.3277C22.2624 20.0963 13.789 17.4648 13.7143 6.44238Z" fill="#7CC246"/>
<path d="M65.5715 43.1916C65.5092 53.8003 65.5341 58.4012 63.8743 62.125C62.2145 65.8488 64.2893 69.0347 59.5795 70.2843C54.2141 71.6993 53.9486 69.9367 51.4422 69.5768C48.4878 69.163 38.4749 64.1979 37.9271 59.6053C37.3794 55.0126 31.3335 40.8704 39.2426 36.3771C47.1516 31.8837 59.9903 32.3222 59.9903 32.3222C60.9632 32.7172 61.825 33.3425 62.501 34.1442C63.177 34.9459 63.647 35.8997 63.8702 36.9232C64.7374 40.5353 65.5715 43.1916 65.5715 43.1916Z" fill="#EFA054"/>
<path d="M56.9649 47.0815C57.9898 47.7973 58.0936 49.8165 56.2968 50.7598C55.7919 50.9244 55.2637 51.0068 54.7324 51.0039C50.6036 51.4177 49.9771 46.6471 49.9771 46.6471C49.9771 46.6471 55.7283 46.2168 56.9649 47.0815Z" fill="white"/>
<path d="M54.8656 50.4529C55.7984 50.4529 56.5545 49.699 56.5545 48.7689C56.5545 47.8389 55.7984 47.085 54.8656 47.085C53.9329 47.085 53.1768 47.8389 53.1768 48.7689C53.1768 49.699 53.9329 50.4529 54.8656 50.4529Z" fill="#271E22"/>
<path d="M59.3799 45.699C55.7698 46.4065 54.6204 45.2273 52.1805 45.4053C49.7405 45.5832 48.3753 47.4037 49.9231 51.1316C50.1264 51.8598 50.1347 50.1924 50.9024 49.1994C51.6701 48.2064 51.6908 47.5071 55.2013 47.7388C58.7119 47.9705 59.6165 47.7182 59.3799 45.699Z" fill="#271E22"/>
<path d="M65.9323 45.9888C65.8452 44.673 68.5299 37.8999 63.5339 31.7267C61.1945 28.8844 57.9518 26.9239 54.3426 26.1699C51.8736 25.6072 45.4708 24.1012 36.3252 28.5407C25.1214 34.0106 31.7815 42.8029 25.055 47.077C20.5528 49.936 19.4946 56.0679 19.4946 56.0679C19.4946 56.0679 26.1588 58.1366 30.5324 58.8648C32.3126 59.1503 32.1923 53.3412 35.6613 53.8294C38.3917 54.2142 40.2258 60.1516 40.2258 60.1516L44.9687 58.8028L42.4209 48.5623L45.1762 46.0798C45.1762 46.0798 43.4293 42.8815 44.9895 41.4127C46.7614 39.7576 50.4711 37.5441 53.7036 36.3897C55.6177 35.7094 57.594 35.2175 59.6042 34.9208C59.6042 34.9208 65.4966 39.1329 64.7621 45.7488L65.9323 45.9888Z" fill="#271E22"/>
<path d="M35.6611 53.8296C38.3915 54.2144 40.2256 60.1518 40.2256 60.1518L44.9686 58.8029L42.4207 48.5625" fill="#271E22"/>
<path d="M37.6075 58.0664C39.7196 58.7201 40.8026 55.7411 39.9437 52.6875C39.0847 49.634 38.5909 48.5252 36.7485 48.0328C34.9061 47.5404 32.0761 48.6452 32.4454 51.3428C32.8147 54.0405 34.043 56.9658 37.6075 58.0664Z" fill="#EFA054"/>
<path d="M61.3137 46.7175C60.7701 47.094 60.5543 48.0498 60.8987 48.8566C61.1767 49.4855 62.3386 49.1876 63.4175 49.291C66.6459 49.6013 65.5628 46.2334 65.5628 46.2334C65.5628 46.2334 62.2805 46.0182 61.3137 46.7175Z" fill="white"/>
<path d="M51.9441 59.3818L55.4132 60.3128H61.957V64.0283L58.8158 64.9592H54.4961L51.9441 64.0283L50.915 61.8726V59.3818H51.9441Z" fill="white"/>
<path d="M63.7537 59.1711C61.2972 59.8042 54.1641 60.1186 52.579 59.1711C52.2761 58.6622 52.6786 57.3837 50.9192 58.0623C49.1597 58.7408 49.2593 60.1311 49.2593 60.1311H50.0229C50.0229 60.1311 49.9025 63.5693 51.0229 64.5293C52.1433 65.4892 52.6371 65.9691 56.5045 65.9319C60.3718 65.8947 62.4923 64.2521 62.4923 64.2521L62.3719 60.611C62.9115 60.2131 63.3788 59.7262 63.7537 59.1711ZM60.9777 61.9019L60.0565 62.3819L60.9777 62.7418V63.5694C60.9777 63.5694 59.6249 64.4507 56.5128 64.5706C53.4006 64.6906 52.2346 63.8507 51.7159 62.7336C52.5964 62.8045 53.48 62.8308 54.3633 62.8122C54.3633 62.8122 51.3549 62.0136 51.2345 61.2523C51.1534 60.8324 51.2086 60.3976 51.3922 60.0111C53.3176 60.971 59.2349 61.4509 60.9777 60.8924V61.9019Z" fill="#271E22"/>
<path d="M66.9532 46.6593C65.8826 45.1491 65.2312 44.5202 63.9406 45.4181C62.6501 46.3159 60.6625 45.0291 60.3596 45.6539C60.3596 45.6539 59.2973 47.0607 60.5629 47.6482C61.8285 48.2357 62.9447 47.5448 64.007 46.8207C65.0693 46.0966 65.4386 46.2497 66.9532 46.6593Z" fill="#271E22"/>
<path d="M59.9695 52.0379C62.2974 51.4338 65.8287 52.4517 66.6088 54.3798C67.281 56.0348 66.3432 58.4635 63.4344 58.3601C60.5255 58.2566 58.1894 56.5685 58.2101 55.4059C58.2308 54.2432 59.6624 57.334 62.9655 56.6471C66.2685 55.9603 65.0403 53.8874 63.314 53.4695C61.5878 53.0516 58.9446 52.2531 59.9695 52.0379Z" fill="#271E22"/>
<path d="M56.3758 66.1637C57.5252 66.4203 57.8074 66.6023 59.0647 66.2341C60.322 65.8658 60.8449 65.5307 61.0067 65.63C61.1686 65.7293 61.3843 66.1389 60.2059 66.8299C59.3649 67.3323 58.3685 67.5104 57.4049 67.3305C57.0812 67.1898 55.3633 65.9155 56.3758 66.1637Z" fill="#271E22"/>
<path d="M58.1642 49.692C55.2595 50.656 51.7531 50.4036 51.139 49.3858C50.5249 48.3679 49.3589 48.6741 49.8195 49.8409C50.2801 51.0077 51.2427 51.4173 53.2262 51.467C55.2097 51.5166 60.0647 49.2368 58.1642 49.692Z" fill="#271E22"/>
<path d="M60.6498 48.7401C62.235 48.2643 63.0815 49.2987 64.0193 48.9759C64.9571 48.6532 65.1355 47.7554 65.8036 47.6644C66.4717 47.5733 67.1231 49.4394 65.0982 49.8614C63.0732 50.2834 62.4715 49.5469 61.9071 49.3732C61.3428 49.1994 59.7867 48.8684 60.6498 48.7401Z" fill="#271E22"/>
<path d="M64.0817 49.229C64.9068 49.229 65.5756 48.5622 65.5756 47.7395C65.5756 46.9169 64.9068 46.25 64.0817 46.25C63.2567 46.25 62.5879 46.9169 62.5879 47.7395C62.5879 48.5622 63.2567 49.229 64.0817 49.229Z" fill="#271E22"/>
<path d="M48.6455 25.4545C50.5691 25.4629 52.4847 25.7019 54.3511 26.1662C57.9603 26.9202 61.203 28.8806 63.5424 31.7229C68.0571 37.3045 66.2977 43.3743 65.9823 45.4596C66.3461 45.8263 66.674 46.2267 66.9616 46.6553C66.5202 46.5214 66.0713 46.4136 65.6171 46.3326C65.7311 46.7726 65.7731 47.2281 65.7416 47.6814C65.7639 47.6708 65.7877 47.6638 65.8122 47.6608H65.862C66.4595 47.6608 66.9823 49.1751 65.5258 49.7295C65.5258 50.9253 65.4844 52.0135 65.447 53.0147C65.9626 53.3464 66.3717 53.819 66.6255 54.376C66.7667 54.7257 66.837 55.0999 66.8324 55.4769C66.8279 55.8539 66.7484 56.2262 66.5987 56.5725C66.449 56.9187 66.2321 57.2319 65.9603 57.494C65.6886 57.7562 65.3674 57.9621 65.0155 58.0998C64.8167 59.4793 64.4344 60.8262 63.8785 62.1049C62.2187 65.8287 64.3142 69.0147 59.5878 70.2642C58.4635 70.5908 57.3019 70.7729 56.1313 70.8062C53.8988 70.8062 53.2556 69.8132 51.4506 69.5649C48.4961 69.1512 38.4832 64.1861 37.9355 59.5935C37.8815 59.1797 37.7819 58.646 37.6491 58.0626H37.6159C36.7259 57.8066 35.8981 57.3707 35.1842 56.782C34.4704 56.1934 33.8856 55.4645 33.4664 54.6408C32.1634 56.0807 31.8481 58.8694 30.6737 58.8694H30.5493C26.1715 58.1619 19.5114 56.0724 19.5114 56.0724C19.5114 56.0724 20.5696 49.9405 25.0718 47.0815C31.7983 42.8074 25.1299 34.0151 36.342 28.5453C41.3215 26.1165 45.4918 25.4628 48.6538 25.4628L48.6455 25.4545ZM48.6538 23.394C44.359 23.394 39.9107 24.5029 35.4291 26.7041C28.0969 30.2789 27.3583 35.2978 26.7649 39.3277C26.3209 42.3192 25.9723 44.0735 23.9556 45.3561C18.7396 48.6662 17.5155 55.4476 17.4657 55.7373C17.3803 56.231 17.4776 56.7388 17.7393 57.1665C18.0011 57.5941 18.4096 57.9125 18.889 58.0626C19.167 58.1495 25.7441 60.2058 30.2173 60.9257C30.3682 60.9506 30.5208 60.9631 30.6737 60.963C32.4166 60.963 33.2506 59.6059 33.8233 58.3687C34.4375 58.8738 35.119 59.2915 35.8482 59.61C35.8482 59.6969 35.8731 59.7796 35.8814 59.8541C36.1014 61.7036 37.4624 64.5999 42.6826 67.9099C45.6453 69.7884 49.2098 71.3524 51.1642 71.6337C51.6327 71.7163 52.0868 71.8654 52.5129 72.0764C53.6428 72.6241 54.8832 72.9071 56.1396 72.904C57.4897 72.8718 58.83 72.666 60.1273 72.2916C64.6088 71.1083 64.9159 68.1292 65.1399 65.9529C65.1904 64.9329 65.4077 63.9281 65.7831 62.978C66.2816 61.8486 66.6532 60.6678 66.8911 59.4569C67.6001 58.9492 68.1568 58.2583 68.5011 57.4585C68.7643 56.8531 68.9046 56.2017 68.9138 55.542C68.9231 54.8822 68.8011 54.2272 68.555 53.6147C68.3249 53.0514 67.9866 52.5384 67.5591 52.1045C67.5591 51.7114 67.5799 51.277 67.5923 50.8632C67.9554 50.5037 68.2277 50.0636 68.3872 49.5788C68.5466 49.0941 68.5885 48.5785 68.5094 48.0745C68.5668 48.0098 68.6208 47.9421 68.6712 47.8718C68.9167 47.5234 69.0485 47.108 69.0485 46.6822C69.0485 46.2564 68.9167 45.841 68.6712 45.4927C68.526 45.2858 68.3766 45.0789 68.2148 44.8721C68.7293 42.0916 69.6962 36.0425 65.1731 30.4527C62.6004 27.2709 59.1231 25.1608 54.8283 24.1802H54.7661C52.7645 23.675 50.71 23.4084 48.6455 23.3857L48.6538 23.394Z" fill="#271E22"/>
<path d="M48.6452 23.3857C50.7027 23.3937 52.7519 23.6465 54.7492 24.1387H54.8115C59.1021 25.1235 62.5836 27.2336 65.1522 30.4113C69.6793 36.0011 68.7083 42.0502 68.1979 44.8306C68.3556 45.0375 68.5092 45.2444 68.6544 45.4513C68.8999 45.7996 69.0317 46.215 69.0317 46.6408C69.0317 47.0666 68.8999 47.482 68.6544 47.8304C68.6004 47.9007 68.5465 47.971 68.4884 48.0331C68.5682 48.5371 68.5266 49.0529 68.3672 49.5377C68.2077 50.0226 67.9349 50.4627 67.5714 50.8218C67.5714 51.2687 67.5506 51.6866 67.5423 52.0631C67.9676 52.4987 68.3056 53.0113 68.5382 53.5733C68.7833 54.1867 68.9047 54.8423 68.8955 55.5026C68.8862 56.1629 68.7465 56.8148 68.4843 57.4212C68.1369 58.2192 67.579 58.9085 66.8701 59.4155C66.6336 60.6262 66.2634 61.8071 65.7663 62.9366C65.3891 63.8878 65.1705 64.894 65.119 65.9156C64.8949 68.0919 64.5878 71.071 60.1063 72.2543C58.8099 72.6255 57.4712 72.8299 56.1227 72.8625C54.8651 72.8656 53.6233 72.5826 52.4919 72.035C52.0622 71.8327 51.605 71.6947 51.135 71.6254C49.1847 71.3441 45.6161 69.7801 42.6574 67.9016C37.4331 64.5916 36.0721 61.6953 35.8522 59.8499C35.8522 59.7713 35.8522 59.6927 35.819 59.6017C35.0904 59.2818 34.4092 58.8642 33.794 58.3604C33.2213 59.6017 32.3873 60.9505 30.6445 60.9505C30.4917 60.9496 30.3393 60.9386 30.188 60.9174C25.7189 60.1934 19.1377 58.137 18.8597 58.0501C18.3811 57.8993 17.9735 57.5805 17.7126 57.153C17.4516 56.7254 17.355 56.218 17.4406 55.7248C17.4904 55.4393 18.7145 48.6537 23.9263 45.3437C25.9472 44.0611 26.2957 42.3067 26.7356 39.3194C27.329 35.2853 28.0717 30.2665 35.404 26.6916C39.8855 24.507 44.3338 23.3816 48.6286 23.3816L48.6452 23.3857ZM48.6286 21.7266C44.0641 21.7266 39.3834 22.8933 34.6737 25.1897C26.553 29.1493 25.7106 34.8757 25.0924 39.0588C24.6774 41.955 24.3911 43.068 23.0176 43.9328C17.2082 47.6318 15.843 55.1042 15.7891 55.4269C15.6358 56.3145 15.8103 57.2274 16.2802 57.9965C16.7502 58.7656 17.4838 59.3388 18.3452 59.61C18.6274 59.701 25.3206 61.7946 29.9058 62.5311C30.1444 62.5709 30.386 62.5903 30.6279 62.589C31.3458 62.5893 32.0535 62.4195 32.6927 62.0937C33.3319 61.7678 33.8843 61.2952 34.3044 60.7147C34.6161 62.0222 35.2047 63.2481 36.0306 64.3102C37.3045 66.019 39.2299 67.6989 41.7487 69.296C44.9355 71.3151 48.6909 72.9453 50.8777 73.2556C51.1984 73.3198 51.5085 73.4284 51.7989 73.5783C53.1445 74.2252 54.6207 74.5564 56.1144 74.5465C57.6074 74.5153 59.0901 74.2914 60.5254 73.8804C66.1149 72.4074 66.534 68.3112 66.7497 66.1142C66.7863 65.2649 66.9586 64.4268 67.2601 63.6317C67.7275 62.5797 68.0916 61.485 68.3473 60.363C69.0582 59.7387 69.6245 58.9679 70.0071 58.1039C70.3566 57.296 70.5423 56.4271 70.5537 55.5473C70.5651 54.6675 70.4019 53.7941 70.0735 52.9775C69.8589 52.4466 69.5712 51.948 69.2187 51.4962V51.459C69.8514 50.6065 70.1918 49.5735 70.1897 48.5131C70.5453 47.8964 70.7162 47.1911 70.6824 46.4806C70.6486 45.7701 70.4114 45.0841 69.9988 44.5038L69.949 44.4293C70.4594 41.4544 71.1441 35.1984 66.4385 29.381C63.6251 25.9055 59.8366 23.5885 55.1725 22.5334H55.1102C52.9917 22.0134 50.8187 21.7468 48.6369 21.739L48.6286 21.7266Z" fill="#DA2630"/>
<path d="M84.3315 77.3353L84.7465 76.4085C85.2175 76.682 85.7534 76.8249 86.2984 76.8223C86.896 76.8223 87.1283 76.665 87.1283 76.4085C87.1283 75.6803 84.4311 76.4085 84.4311 74.6459C84.4311 73.8184 85.1946 73.2019 86.5059 73.2019C87.1023 73.1899 87.6924 73.3249 88.2238 73.595L87.8089 74.5094C87.4156 74.2913 86.9724 74.1787 86.5225 74.1825C85.9416 74.1825 85.6926 74.3646 85.6926 74.5963C85.6926 75.3576 88.3898 74.6211 88.3898 76.3754C88.3898 77.2029 87.618 77.7905 86.2818 77.7905C85.6028 77.8137 84.9297 77.6567 84.3315 77.3353Z" fill="#271E22"/>
<path d="M88.9956 71.9557C88.9975 71.8546 89.0202 71.7549 89.0624 71.6629C89.1046 71.5709 89.1654 71.4885 89.2409 71.421C89.3165 71.3534 89.4051 71.3021 89.5014 71.2703C89.5977 71.2384 89.6996 71.2267 89.8006 71.2358C89.9 71.2249 90.0005 71.2346 90.096 71.2642C90.1914 71.2939 90.2797 71.3429 90.3553 71.4082C90.4308 71.4734 90.4921 71.5535 90.5352 71.6435C90.5782 71.7334 90.6022 71.8313 90.6056 71.9309C90.5887 72.1302 90.4981 72.3161 90.3514 72.4526C90.2047 72.589 90.0125 72.6663 89.8119 72.6694C89.6113 72.6725 89.4167 72.6012 89.2659 72.4693C89.1151 72.3374 89.0187 72.1544 88.9956 71.9557ZM89.1533 73.2963H90.448V77.7483H89.1533V73.2963Z" fill="#271E22"/>
<path d="M96.0499 75.188V77.7492H94.7552V75.399C94.7552 74.6791 94.4232 74.344 93.8506 74.344C93.278 74.344 92.78 74.7246 92.78 75.548V77.7492H91.4854V73.2806H92.7302V73.8019C92.9214 73.6062 93.1517 73.4528 93.4062 73.3516C93.6607 73.2504 93.9337 73.2036 94.2075 73.2144C95.2531 73.1979 96.0499 73.8309 96.0499 75.188Z" fill="#271E22"/>
<path d="M96.7803 75.5105C96.7803 74.1658 97.8177 73.2142 99.27 73.2142C99.6784 73.1853 100.086 73.2775 100.442 73.4793C100.798 73.681 101.086 73.9832 101.27 74.3478L100.266 74.8899C100.173 74.7043 100.029 74.5486 99.8517 74.4404C99.6742 74.3321 99.4698 74.2757 99.2617 74.2775C98.9315 74.2775 98.6149 74.4083 98.3814 74.6411C98.148 74.8739 98.0168 75.1896 98.0168 75.5188C98.0168 75.848 98.148 76.1637 98.3814 76.3965C98.6149 76.6293 98.9315 76.76 99.2617 76.76C99.4701 76.7633 99.6751 76.7075 99.8529 76.5991C100.031 76.4907 100.174 76.3341 100.266 76.1477L101.27 76.6938C101.085 77.0569 100.796 77.3574 100.44 77.5576C100.085 77.7579 99.6775 77.8489 99.27 77.8193C97.8094 77.8027 96.7803 76.8511 96.7803 75.5105Z" fill="#271E22"/>
<path d="M106.299 75.8743H102.922C102.991 76.1517 103.158 76.3949 103.393 76.5591C103.628 76.7233 103.914 76.7974 104.2 76.768C104.405 76.7784 104.61 76.7471 104.802 76.6759C104.995 76.6048 105.171 76.4954 105.32 76.3543L106.009 77.099C105.773 77.3459 105.486 77.5383 105.168 77.6627C104.849 77.7871 104.508 77.8404 104.166 77.819C102.623 77.819 101.619 76.8508 101.619 75.5268C101.61 75.2145 101.666 74.9039 101.783 74.6142C101.9 74.3245 102.076 74.0621 102.299 73.8434C102.523 73.6247 102.789 73.4544 103.082 73.3432C103.375 73.232 103.688 73.1824 104 73.1973C104.309 73.1813 104.618 73.2301 104.907 73.3406C105.196 73.4511 105.459 73.6209 105.678 73.8389C105.897 74.0569 106.067 74.3183 106.179 74.6061C106.29 74.894 106.34 75.202 106.324 75.5102C106.324 75.6261 106.324 75.7667 106.299 75.8743ZM102.905 75.1213H105.104C105.059 74.8631 104.924 74.6292 104.723 74.4606C104.522 74.2919 104.267 74.1995 104.005 74.1995C103.742 74.1995 103.487 74.2919 103.286 74.4606C103.085 74.6292 102.95 74.8631 102.905 75.1213Z" fill="#271E22"/>
<path d="M113.603 76.6439V77.7486H109.229V76.8797L111.47 74.7696C111.984 74.2772 112.076 73.9793 112.076 73.6979C112.076 73.2428 111.76 72.978 111.146 72.978C110.913 72.9686 110.682 73.0165 110.472 73.1176C110.262 73.2186 110.08 73.3696 109.943 73.5573L108.963 72.9284C109.229 72.5734 109.579 72.2895 109.982 72.1018C110.384 71.9142 110.827 71.8285 111.271 71.8526C112.565 71.8526 113.428 72.5146 113.428 73.5655C113.428 74.1324 113.271 74.6454 112.457 75.3985L111.121 76.6397L113.603 76.6439Z" fill="#271E22"/>
<path d="M114.142 74.8523C114.142 72.9366 115.204 71.8525 116.631 71.8525C118.059 71.8525 119.121 72.9366 119.121 74.8523C119.121 76.7679 118.067 77.8478 116.631 77.8478C115.196 77.8478 114.142 76.7514 114.142 74.8523ZM117.768 74.8523C117.768 73.5324 117.304 72.9862 116.631 72.9862C115.959 72.9862 115.503 73.5324 115.503 74.8523C115.503 76.1721 115.967 76.7142 116.631 76.7142C117.295 76.7142 117.768 76.1556 117.768 74.8523Z" fill="#271E22"/>
<path d="M124.067 76.6439V77.7486H119.677V76.8797L121.918 74.7696C122.432 74.2772 122.524 73.9793 122.524 73.6979C122.524 73.2428 122.208 72.978 121.594 72.978C121.361 72.9686 121.13 73.0165 120.92 73.1176C120.71 73.2186 120.528 73.3696 120.391 73.5573L119.412 72.9284C119.678 72.5734 120.027 72.2895 120.43 72.1018C120.832 71.9142 121.275 71.8285 121.719 71.8526C123.013 71.8526 123.877 72.5146 123.877 73.5655C123.877 74.1324 123.719 74.6454 122.906 75.3985L121.569 76.6397L124.067 76.6439Z" fill="#271E22"/>
<path d="M128.964 76.6439V77.7486H124.582V76.8797L126.823 74.7696C127.337 74.2772 127.429 73.9793 127.429 73.6979C127.429 73.2428 127.113 72.978 126.499 72.978C126.266 72.9686 126.035 73.0165 125.825 73.1176C125.615 73.2186 125.433 73.3696 125.296 73.5573L124.316 72.9284C124.582 72.5734 124.932 72.2895 125.335 72.1018C125.737 71.9142 126.18 71.8285 126.624 71.8526C127.918 71.8526 128.781 72.5146 128.781 73.5655C128.781 74.1324 128.624 74.6454 127.81 75.3985L126.474 76.6397L128.964 76.6439Z" fill="#271E22"/>
<path d="M97.5269 33.2406H89.4851L88.0659 36.9189H80.8125L90.0619 15.8174H97.0705L106.32 36.9189H98.9461L97.5269 33.2406ZM95.56 28.1183L93.506 22.814L91.452 28.1183H95.56Z" fill="#DA2630"/>
<path d="M107.469 15.8223H117.897C124.951 15.8223 129.831 19.8316 129.831 26.3689C129.831 32.9062 124.968 36.9196 117.897 36.9196H107.469V15.8223ZM117.594 31.3712C120.586 31.3712 122.64 29.5962 122.64 26.3689C122.64 23.1416 120.586 21.3666 117.594 21.3666H114.623V31.3712H117.594Z" fill="#DA2630"/>
<path d="M146.545 33.2406H138.508L137.084 36.9189H129.831L139.08 15.8174H146.093L155.338 36.9189H147.965L146.545 33.2406ZM144.583 28.1183L142.508 22.814L140.454 28.1183H144.583Z" fill="#DA2630"/>
<path d="M175.377 36.9189L175.318 27.3032L170.725 35.0198H167.58L162.986 27.6342V36.9189H156.488V15.8174H162.343L169.235 27.0591L175.945 15.8174H181.808L181.866 36.9189H175.377Z" fill="#DA2630"/>
<path d="M192.182 18.1138C192.182 19.0779 192.062 19.8019 191.004 22.0611L188.9 26.5503H184.667L186.17 21.4777C184.958 20.9067 184.203 19.7316 184.203 18.1345C184.203 15.7844 185.896 14.2783 188.195 14.2783C190.493 14.2783 192.182 15.7637 192.182 18.1138Z" fill="#DA2630"/>
<path d="M193.465 35.231L195.76 30.0466C197.887 31.2674 200.289 31.9307 202.743 31.9747C204.768 31.9747 205.494 31.561 205.494 30.8286C205.494 28.1765 193.797 30.3156 193.797 22.4542C193.797 18.536 197.092 15.3418 203.648 15.3418C206.49 15.3418 209.42 15.9417 211.627 17.1789L209.482 22.3343C207.67 21.355 205.65 20.8176 203.59 20.7661C201.515 20.7661 200.839 21.3661 200.839 22.0901C200.839 24.6223 212.536 22.5039 212.536 30.2866C212.536 34.1428 209.241 37.3991 202.681 37.3991C199.162 37.3991 195.598 36.526 193.465 35.231Z" fill="#DA2630"/>
<path d="M102.934 51.6826C102.934 56.5649 99.1992 59.6391 93.2943 59.6391H90.2403V64.8193H83.1113V43.7178H93.2943C99.1867 43.7095 102.934 46.7837 102.934 51.6826ZM95.7426 51.6826C95.7426 50.1475 94.8048 49.2 92.8379 49.2H90.2361V54.1403H92.8379C94.8048 54.1361 95.7426 53.2052 95.7426 51.6826Z" fill="#DA2630"/>
<path d="M122.852 59.4405V64.8193H105.262V43.7178H122.457V49.0966H112.274V51.5791H121.221V56.7014H112.274V59.4736L122.852 59.4405Z" fill="#DA2630"/>
<path d="M145.425 51.6826C145.425 56.5649 141.691 59.6391 135.786 59.6391H132.736V64.8193H125.603V43.7178H135.786C141.678 43.7095 145.425 46.7837 145.425 51.6826ZM138.234 51.6826C138.234 50.1475 137.296 49.2 135.33 49.2H132.732V54.1403H135.33C137.296 54.1361 138.234 53.2052 138.234 51.6826Z" fill="#DA2630"/>
<path d="M167.58 51.6826C167.58 56.5649 163.845 59.6391 157.94 59.6391H154.874V64.8193H147.757V43.7178H157.94C163.833 43.7095 167.58 46.7837 167.58 51.6826ZM160.389 51.6826C160.389 50.1475 159.451 49.2 157.484 49.2H154.874V54.1403H157.476C159.438 54.1361 160.389 53.2052 160.389 51.6826Z" fill="#DA2630"/>
<path d="M187.498 59.4405V64.8193H169.908V43.7178H187.103V49.0966H176.92V51.5791H185.867V56.7014H176.92V59.4736L187.498 59.4405Z" fill="#DA2630"/>
<path d="M199.316 59.5025H197.382V64.8027H190.249V43.7012H200.432C206.329 43.7094 210.063 46.7837 210.063 51.6825C210.063 54.7277 208.611 57.0158 206.071 58.3026L210.515 64.811H202.909L199.316 59.5025ZM199.98 49.2H197.382V54.1402H199.98C201.942 54.1402 202.884 53.2093 202.884 51.6577C202.884 50.1061 201.942 49.2 199.98 49.2Z" fill="#DA2630"/>
<path d="M211.432 63.1187L213.731 57.9343C215.857 59.1544 218.258 59.8177 220.711 59.8624C222.736 59.8624 223.462 59.4487 223.462 58.7163C223.462 56.0642 211.768 58.2074 211.768 50.3419C211.768 46.4237 215.059 43.2295 221.619 43.2295C224.458 43.2295 227.391 43.8336 229.595 45.0666L227.449 50.2178C225.636 49.2412 223.617 48.7053 221.557 48.6538C219.482 48.6538 218.806 49.2538 218.806 49.9778C218.806 52.51 230.504 50.3916 230.504 58.1743C230.504 62.0305 227.209 65.2868 220.652 65.2868C217.117 65.2868 213.548 64.4138 211.432 63.1187Z" fill="#DA2630"/>
<path d="M97.5269 31.9994H89.4851L88.0659 35.6777H80.8125L90.0619 14.5762H97.0705L106.32 35.6777H98.9461L97.5269 31.9994ZM95.56 26.8771L93.506 21.5728L91.452 26.8771H95.56Z" fill="#271E22"/>
<path d="M107.469 14.5811H117.897C124.951 14.5811 129.831 18.5904 129.831 25.1277C129.831 31.665 124.968 35.6784 117.897 35.6784H107.469V14.5811ZM117.594 30.13C120.586 30.13 122.64 28.355 122.64 25.1277C122.64 21.9004 120.586 20.1254 117.594 20.1254H114.623V30.13H117.594Z" fill="#271E22"/>
<path d="M146.545 31.9994H138.508L137.084 35.6777H129.831L139.08 14.5762H146.093L155.338 35.6777H147.965L146.545 31.9994ZM144.583 26.8771L142.508 21.5728L140.454 26.8771H144.583Z" fill="#271E22"/>
<path d="M175.377 35.6777L175.318 26.062L170.725 33.7785H167.58L162.986 26.393V35.6777H156.488V14.5762H162.343L169.235 25.8179L175.945 14.5762H181.808L181.866 35.6777H175.377Z" fill="#271E22"/>
<path d="M192.182 16.8726C192.182 17.8367 192.062 18.5607 191.004 20.8198L188.9 25.3091H184.667L186.17 20.2364C184.958 19.6655 184.203 18.4904 184.203 16.8933C184.203 14.5432 185.896 13.0371 188.195 13.0371C190.493 13.0371 192.182 14.5225 192.182 16.8726Z" fill="#271E22"/>
<path d="M193.465 33.9898L195.76 28.8054C197.887 30.0262 200.289 30.6895 202.743 30.7335C204.768 30.7335 205.494 30.3198 205.494 29.5874C205.494 26.9353 193.797 29.0744 193.797 21.213C193.797 17.2948 197.092 14.1006 203.648 14.1006C206.49 14.1006 209.42 14.7005 211.627 15.9376L209.482 21.093C207.67 20.1138 205.65 19.5764 203.59 19.5249C201.515 19.5249 200.839 20.1249 200.839 20.8489C200.839 23.3811 212.536 21.2627 212.536 29.0454C212.536 32.9016 209.241 36.1579 202.681 36.1579C199.162 36.1579 195.598 35.2848 193.465 33.9898Z" fill="#271E22"/>
<path d="M102.934 50.4414C102.934 55.3237 99.1992 58.3979 93.2943 58.3979H90.2403V63.5781H83.1113V42.4766H93.2943C99.1867 42.4683 102.934 45.5425 102.934 50.4414ZM95.7426 50.4414C95.7426 48.9063 94.8048 47.9588 92.8379 47.9588H90.2361V52.8991H92.8379C94.8048 52.8949 95.7426 51.964 95.7426 50.4414Z" fill="#271E22"/>
<path d="M122.852 58.1993V63.5781H105.262V42.4766H122.457V47.8554H112.274V50.3379H121.221V55.4602H112.274V58.2324L122.852 58.1993Z" fill="#271E22"/>
<path d="M145.425 50.4414C145.425 55.3237 141.691 58.3979 135.786 58.3979H132.736V63.5781H125.603V42.4766H135.786C141.678 42.4683 145.425 45.5425 145.425 50.4414ZM138.234 50.4414C138.234 48.9063 137.296 47.9588 135.33 47.9588H132.732V52.8991H135.33C137.296 52.8949 138.234 51.964 138.234 50.4414Z" fill="#271E22"/>
<path d="M167.58 50.4414C167.58 55.3237 163.845 58.3979 157.94 58.3979H154.874V63.5781H147.757V42.4766H157.94C163.833 42.4683 167.58 45.5425 167.58 50.4414ZM160.389 50.4414C160.389 48.9063 159.451 47.9588 157.484 47.9588H154.874V52.8991H157.476C159.438 52.8949 160.389 51.964 160.389 50.4414Z" fill="#271E22"/>
<path d="M187.498 58.1993V63.5781H169.908V42.4766H187.103V47.8554H176.92V50.3379H185.867V55.4602H176.92V58.2324L187.498 58.1993Z" fill="#271E22"/>
<path d="M199.316 58.2613H197.382V63.5615H190.249V42.46H200.432C206.329 42.4682 210.063 45.5424 210.063 50.4413C210.063 53.4865 208.611 55.7746 206.071 57.0614L210.515 63.5697H202.909L199.316 58.2613ZM199.98 47.9588H197.382V52.899H199.98C201.942 52.899 202.884 51.9681 202.884 50.4165C202.884 48.8649 201.942 47.9588 199.98 47.9588Z" fill="#271E22"/>
<path d="M211.432 61.8775L213.731 56.6931C215.857 57.9132 218.258 58.5765 220.711 58.6212C222.736 58.6212 223.462 58.2075 223.462 57.4751C223.462 54.823 211.768 56.9662 211.768 49.1007C211.768 45.1825 215.059 41.9883 221.619 41.9883C224.458 41.9883 227.391 42.5924 229.595 43.8254L227.449 48.9766C225.636 48 223.617 47.4641 221.557 47.4126C219.482 47.4126 218.806 48.0126 218.806 48.7366C218.806 51.2688 230.504 49.1504 230.504 56.9331C230.504 60.7893 227.209 64.0456 220.652 64.0456C217.117 64.0456 213.548 63.1726 211.432 61.8775Z" fill="#271E22"/>
</g>
<defs>
<clipPath id="clip0_1729_511">
<rect width="230.504" height="90" fill="white"/>
</clipPath>
</defs>
</svg>
