<?xml version="1.0" encoding="UTF-8"?>
<!-- Generator: Adobe Illustrator 25.2.1, SVG Export Plug-In . SVG Version: 6.00 Build 0)  -->
<svg xmlns="http://www.w3.org/2000/svg" xmlns:xlink="http://www.w3.org/1999/xlink" version="1.1" id="Capa_1" x="0px" y="0px" viewBox="0 0 512 512" style="enable-background:new 0 0 512 512;" xml:space="preserve" width="512" height="512">
<g>
	<g>
		<g>
			<path style="fill:#91D728;" d="M464.552,309.704c0.429-3.61-8.11,5.607-18.06,3.586c-13.968-2.838-6.888-20.629,12.896-28.178     c5.797-2.212,13.934-2.984,15.855-2.952c8.395,0.139-4.935-21.164,10.463-33.775c5.494-4.5,16.028-2.592,18.176,9.406     c1.487,8.304-1.361,18.133-5.396,25.619c-4.006,7.432-6.109,5.957-3.143,8.471c7.139,6.051,11.872,13.645,13.852,24.744     c3.104,17.407-7.337,24.935-14.951,20.213c-7.435-4.611-6.46-21.754-10.036-16.296c-2.526,3.855-6.316,11.463-13.334,10.926     C461.1,330.72,463.55,318.142,464.552,309.704z"/>
			<path style="fill:#FC09B2;" d="M375.909,425.343c-7.738-5.381-7.899-15.025-2.952-20.701c5.97-6.848,14.073-10.494,23.694-20.512     c22.536-23.466,19.287-45.776,39.267-72.898c0.897-1.218,1.753-2.25,2.931-1.307c1.758,1.408,5.225,6.688,14.999,4.342     c6.159-1.478,9.48-5.632,8.88-0.64c-0.464,3.856-1.889,8.101,1.258,14.492c1.876,3.81,6.45,5.309,10.021,4.165     c5.784-1.852,7.115-5.212,10.167-9.349c0.427-0.579,1.42-0.453,1.675,0.218c2.174,5.702,3.612,16.11,13.125,16.252     c1.108,0.016,2.218-0.327,3.332-0.472c0.971-0.126,1.587,0.477,1.341,1.378c-13.906,51.032-60.258,88.282-98.828,90.81     C399.976,431.439,383.705,430.765,375.909,425.343z"/>
			<g style="opacity:0.5;">
				<path style="fill:#FFFFFF;" d="M413.657,375.999c9.773-13.017,10.174-26.125,16.593-38.243      c3.216-6.072,8.872-11.684,11.143-12.057c1.762-0.289,2.316,1.115,1.754,2.638c-2.163,5.866-4.048,7.123-6.563,19.063      c-2.647,12.564-5.69,23.846-13.661,33.894c-2.287,2.883-5.45,7.071-8.866,8.618c-1.926,0.872-4.518,0.664-5.766-1.044      C405.19,384.624,411.035,379.492,413.657,375.999z"/>
				<path style="fill:#FFFFFF;" d="M493.144,256.243c-4.615,4.775-1.909,14.344-6.993,15.549c-6.958,1.649-4.955-15.43,4.025-19.859      C493.529,250.279,495.869,253.423,493.144,256.243z"/>
			</g>
			<g style="opacity:0.25;">
				<path style="fill:#000E3F;" d="M375.898,425.335c-7.015-4.888-7.973-13.346-3.786-19.654c1.667-2.512,9.596-3.646,12.585-4.089      c14.873-2.203,25.252,5.427,41.129-2.727c9.248-4.749,21.896-16.271,31.947-35.706c5.506-10.648,5.064-15.108,12.916-27.797      c1.058-1.709,2.3-2.971,4.312-3.482c6.229-1.584,8.122-9.62,10.12-9.275c1.561,0.269,1.487,5.046,4.489,10.716      c2.75,5.195,7.554,6.906,11.749,5.798c2.024-0.534,2.529,0.231,2.281,1.241c-12.663,51.476-67.057,94.64-106.923,90.733      C395.454,430.969,384.146,431.083,375.898,425.335z"/>
				<path style="fill:#000E3F;" d="M463.963,314.317c0.449-2.981,1.513-6.366-0.925-5.231c-4.928,2.294-9.72,5.693-16.627,4.18      c-2.867-0.628-5.26-1.977-6.659-4.7c-0.538-1.046-0.199-1.785,0.904-2.014c1.595-0.331,5.737,0.122,12.47-3.774      c12.874-7.45,19.499,1.611,28.387,2.018c3.565,0.163,5.931-2.444,5.548-6.034c-0.376-3.525-0.862-3.789-1.861-6.813      c-3.461-10.477,5.834-19.377,16.016-23.596c0.408-0.169,0.867-0.23,1.309-0.298c3.571-0.549-3.433,14.588-5.527,17.947      c-1.884,3.022-4.066,3.952-2.476,5.224c12.305,9.842,17.017,25.832,14.644,37.116c-2.343,11.139-16.509,16.008-21.1-2.454      c-0.461-1.853-1.054-3.677-1.661-5.49c-0.328-0.98-1.197-1.154-1.78-0.348c-3.434,4.738-4.259,7.516-8.043,9.84      c-6.937,4.26-13.897-0.15-13.318-11.24c0.076-1.455,0.412-2.896,0.63-4.344C463.917,314.31,463.94,314.313,463.963,314.317z"/>
			</g>
		</g>
		<g>
			<path style="fill:#000E3F;" d="M511.97,322.518c-0.614-11.197-4.793-21.645-11.493-28.663c-0.659-0.704-1.18-1.226-1.635-1.68     c-1.795-1.794-2.021-2.021-0.932-3.703c5.405-8.267,10.631-21.872,7.586-33.023c-1.362-4.996-4.496-8.858-8.584-10.606     c-1.521-0.659-3.067-0.977-4.589-0.977c-1.77,0-3.52,0.433-5.132,1.318c-8.448,4.565-12.197,12.924-11.401,25.529     c0.113,1.84,0.248,3.294,0.386,4.474c0.249,2.408,0.362,3.634-0.25,4.338c-0.524,0.613-1.522,0.727-3.476,0.795     c-19.6,0.795-35.022,15.172-35.452,24.097c-0.115,2.385-1.091,3.589-2.863,5.815c-1.839,2.316-4.634,5.792-8.266,12.969     c-3.68,7.223-6.792,15.218-9.812,22.939c-3.065,7.858-5.973,15.285-8.947,20.419c-8.745,15.125-17.966,22.098-25.394,27.708     c-4.336,3.271-8.084,6.109-10.946,9.88c-4.862,6.428-4.862,13.377,0,19.078c13.399,15.671,46.265,11.742,70.295-1.112     c14.262-7.632,27.525-18.557,38.404-31.593c12.015-14.377,21.033-31.411,26.119-49.286c0.523-1.794,1.226-3.929,2.613-5.882     C510.947,331.421,512.218,327.082,511.97,322.518z M502.113,342.868c-6.064,21.258-19.897,42.857-37.93,59.233     c-18.919,17.193-40.609,27.209-61.05,28.208c-0.887,0.046-1.794,0.068-2.748,0.068c-7.018,0-16.149-1.203-22.326-4.724     c-3.953-2.226-6.656-5.746-7.428-9.629c-0.703-3.565,0.204-7.109,2.613-10.22c1.885-2.43,4.247-4.657,7.676-7.2     c25.438-19.01,30.049-30.821,38.384-52.261c1.431-3.702,2.93-7.54,4.678-11.81c3.52-8.677,7.996-16.875,11.97-21.94     c0.794-1.045,1.249-1.612,1.839-1.658h0.091c0.568,0,1.113,0.455,2.067,1.294c4.066,3.521,8.925,4.362,15.284,2.635     c1.091-0.295,2.136-0.772,3.043-1.181c1.342-0.613,2.296-1.045,2.863-0.659c0.295,0.204,0.408,0.613,0.364,1.227     c-0.047,0.477-0.115,0.977-0.16,1.499c-0.342,2.725-0.75,6.132,1.295,11.651c1.315,3.589,5.405,6.972,9.719,6.177     c6.179-1.112,8.335-4.179,10.631-7.426c0.362-0.5,0.703-1.022,1.089-1.522c0.251-0.317,0.477-0.477,0.75-0.408     c0.614,0.091,0.932,1.136,1.499,3.02c1.34,4.52,3.884,12.924,12.787,12.97h0.091c0.386,0,0.75-0.023,1.089-0.023     c0.865-0.068,1.524-0.091,1.863,0.341C502.477,340.937,502.477,341.596,502.113,342.868z M505.542,333.941     c-1.659,2.09-4.021,3.294-6.496,3.294h-0.067c-2.544-0.023-4.953-1.318-6.609-3.498c-1.75-2.316-3.112-6.95-4.088-10.333     c-0.568-1.909-1.047-3.567-1.408-4.134c-0.295-0.477-0.774-0.795-1.318-0.841c-0.523-0.022-1.022,0.182-1.408,0.591     c-1.34,1.521-2.227,3.021-3.09,4.497c-1.772,2.998-3.269,5.565-7.993,6.904c-4.157,1.158-7.018-1.681-8.018-4.997     c-1.748-5.928-0.863-8.994-0.091-11.697c0.364-1.181,0.681-2.317,0.75-3.611c0.044-0.818-0.204-1.476-0.703-1.84     c-0.501-0.364-1.227-0.409-2.023-0.091c-1.271,0.522-2.453,1.09-3.611,1.658c-3.658,1.794-7.109,3.498-12.855,2.362     c-4.361-0.864-5.813-3.203-6.246-5.019c-0.998-4.089,2.023-9.949,7.337-14.218c10.356-8.29,18.283-9.016,25.301-9.653     c1.249-0.113,2.431-0.204,3.611-0.364c3.271-0.408,2.976-4.27,2.566-9.629c-0.543-7.063-1.293-16.761,6.428-23.507     c3.68-3.203,8.426-3.611,12.106-1.045c5.201,3.611,8.564,13.219,2.431,29.344c-1.75,4.588-3.975,7.405-5.43,9.267     c-1.136,1.454-1.883,2.408-1.748,3.225c0.091,0.568,0.568,1.136,1.568,1.794c3.95,2.726,7.561,7.178,10.174,12.583     c2.93,6.042,4.407,12.855,4.292,19.737C508.858,328.036,507.7,331.216,505.542,333.941z"/>
		</g>
	</g>
	<g>
		<path style="fill:#FD8A02;" d="M446.311,237.255l-13.899,7.035c-0.887,0.449-1.497,1.306-1.63,2.291l-2.085,15.438    c-0.335,2.482-3.37,3.502-5.136,1.726l-10.986-11.045c-0.701-0.705-1.705-1.02-2.683-0.842l-15.327,2.788    c-2.464,0.448-4.372-2.123-3.229-4.351l7.11-13.861c0.454-0.885,0.443-1.936-0.029-2.812l-7.388-13.715    c-1.188-2.204,0.668-4.814,3.14-4.416l15.38,2.478c0.982,0.158,1.978-0.177,2.665-0.896l10.761-11.265    c1.73-1.811,4.785-0.852,5.17,1.622l2.396,15.393c0.153,0.983,0.78,1.827,1.676,2.258l14.038,6.753    C448.513,232.922,448.545,236.124,446.311,237.255z"/>
		<path style="fill:#FD8A02;" d="M457.107,181.002l-8.583-10.748c-0.548-0.686-1.398-1.059-2.274-0.996l-13.72,0.978    c-2.205,0.157-3.634-2.283-2.417-4.129l7.569-11.485c0.483-0.733,0.575-1.657,0.245-2.471l-5.17-12.746    c-0.831-2.049,1.048-4.161,3.18-3.575l13.262,3.65c0.846,0.233,1.753,0.035,2.425-0.531l10.525-8.855    c1.692-1.424,4.281-0.289,4.382,1.919l0.627,13.741c0.04,0.877,0.509,1.678,1.254,2.143l11.674,7.273    c1.877,1.169,1.598,3.983-0.471,4.761l-12.874,4.842c-0.822,0.309-1.439,1.003-1.65,1.855l-3.31,13.351    C461.249,182.125,458.487,182.729,457.107,181.002z"/>
		<path style="fill:#FD8A02;" d="M418.24,94.862l-10.24,6.123c-0.654,0.391-1.073,1.078-1.122,1.838l-0.762,11.907    c-0.122,1.914-2.386,2.857-3.831,1.595l-8.988-7.847c-0.574-0.501-1.357-0.687-2.095-0.499l-11.56,2.955    c-1.858,0.475-3.454-1.387-2.701-3.151l4.686-10.973c0.299-0.7,0.234-1.503-0.173-2.146l-6.383-10.081    c-1.026-1.62,0.251-3.714,2.162-3.542l11.884,1.066c0.759,0.068,1.502-0.242,1.988-0.828l7.615-9.185    c1.224-1.476,3.61-0.908,4.037,0.961l2.659,11.632c0.169,0.742,0.694,1.354,1.402,1.635l11.089,4.404    C419.689,91.433,419.886,93.878,418.24,94.862z"/>
	</g>
	<g>
		<g>
			<path style="fill:#91D728;" d="M34.182,227.132c-9.961-0.018-11.776,2.754-10.926-3.04c1.965-13.382,10.66-25.913,24.342-29.36     c5.49-1.383,10.581,0.114,11.136,0.175c0.823,0.091,1.675-0.522,1.332-1.793c-6.334-23.466,16.043-42.958,36.377-40.668     c4.379,0.493,4.59,1.291,4.718-2.726c0.335-10.515,6.042-21.167,18.608-28.809c1.469-0.894,2.627-0.744,4.098,0.382     c26.208,20.056,39.172,23.08,30.796,24.585c-15.777,2.836-23.097,23.506-21.449,23.636c0.17,0.013,0.465,0.02,0.499-0.061     c0.315-0.74,0.628-1.486,0.86-2.256c5.19-17.194,22.307-25.527,36.921-18.334c5.836,2.872,6.317,5.265,7.676,3.383     c1.363-1.887,2.626-3.838,4.264-5.526c9.65-9.943,22.93-11.33,31.408-7.221c2.471,1.198,4.197,3.061,4.662,2.258     c0.445-0.768-2.74-2.546-3.543-2.92c-8.261-3.843-9.94-1.124-9.448-4.611c0.381-2.697-0.309,2.365,3.364-20.696     c0.321-2.017,0.345-3.697,2.233-2.879c5.579,2.417,12.766,9.344,15.687,17.062c1.958,5.174,2.424-1.456,16.517-2.799     c2.036-0.194,1.424-0.596,4.824,10.602c6.153,20.26,6.591,18.52,1.87,20.432c-10.405,4.212-17.742,14.081-16.724,14.784     c0.465,0.32,1.042-0.452,1.341-0.931c6.502-10.434,23.659-20.241,41.225-12.555c15.049,6.585,14.143,20.087,16.205,19.402     c0.649-0.215,0.174-1.298-0.011-1.934c-1.355-4.641-2.788-5.477-0.572-7.165c19.025-14.499,16.966-14.202,20.27-12.074     c7.272,4.686,11.12,9.654,14.198,15.484c0.986,1.867,0.667,2.576-1.351,3.009c-9.242,1.981-40.897,15.994-72.04,24.696     C185.86,217.575,158.867,227.357,34.182,227.132z"/>
			<g style="opacity:0.45;">
				<path style="fill:#000E3F;" d="M155.276,163.145c2.845-0.443,5.912,1.177,7.123,3.792c1.939,4.189-1.42,9.22-5.955,9.422      C148.046,176.733,146.901,164.45,155.276,163.145z"/>
				<path style="fill:#000E3F;" d="M101.37,203.789c2.845-0.443,5.912,1.177,7.123,3.792c1.939,4.189-1.42,9.22-5.955,9.422      C94.14,217.377,92.995,205.095,101.37,203.789z"/>
				<path style="fill:#000E3F;" d="M236.036,139.52c2.845-0.444,5.913,1.177,7.123,3.792c1.939,4.189-1.42,9.22-5.955,9.422      C228.805,153.108,227.661,140.826,236.036,139.52z"/>
				<path style="fill:#000E3F;" d="M170.573,189.839c2.446-0.381,5.081,1.012,6.122,3.259c1.667,3.6-1.22,7.924-5.118,8.097      C164.359,201.517,163.375,190.961,170.573,189.839z"/>
				<path style="fill:#000E3F;" d="M114.038,173.612c2.445-0.381,5.081,1.011,6.122,3.259c1.667,3.601-1.22,7.924-5.118,8.098      C107.824,185.29,106.84,174.734,114.038,173.612z"/>
				<path style="fill:#000E3F;" d="M236.767,181.94c2.445-0.381,5.081,1.011,6.122,3.259c1.667,3.601-1.22,7.924-5.118,8.098      C230.553,193.618,229.569,183.062,236.767,181.94z"/>
				<path style="fill:#000E3F;" d="M203.808,192.187c1.982-0.309,4.119,0.82,4.962,2.642c1.351,2.918-0.989,6.423-4.148,6.563      C198.772,201.652,197.974,193.096,203.808,192.187z"/>
				<path style="fill:#000E3F;" d="M210.144,148.813c1.982-0.309,4.119,0.82,4.962,2.642c1.351,2.918-0.989,6.423-4.148,6.563      C205.108,158.278,204.31,149.722,210.144,148.813z"/>
				<path style="fill:#000E3F;" d="M134.284,138.817c1.982-0.309,4.119,0.82,4.962,2.642c1.351,2.918-0.989,6.423-4.148,6.563      C129.248,148.282,128.45,139.726,134.284,138.817z"/>
				<path style="fill:#000E3F;" d="M66.808,206.57c1.982-0.309,4.118,0.82,4.962,2.642c1.351,2.918-0.989,6.423-4.148,6.563      C61.771,216.035,60.974,207.479,66.808,206.57z"/>
				<path style="fill:#000E3F;" d="M307.51,164.038c1.982-0.309,4.118,0.82,4.962,2.642c1.351,2.919-0.989,6.423-4.148,6.564      C302.474,173.504,301.676,164.948,307.51,164.038z"/>
			</g>
			<g>
				<path style="fill:#FFCF00;" d="M198.051,50.743c10.124,0.565,13.28,9.198,13.76,19.288c0.829,17.419-3.024,45.078-6.306,63.673      c-0.216,1.223-0.517,2.536-1.732,2.5c-1.437-0.042-2.826,0.262-4.212,0.545c-7.968,1.626-14.482,5.636-19.357,12.148      c-2.143,2.862-1.933,2.861-4.897,0.913c-10.598-6.966-8.22-0.473-22.252-9.937c-11.518-7.768-17.029-10.354-21.653-14.046      c-5.453-4.355-14.747-11.012-20.632-17.414c-3.942-4.288-7.281-11.256-4.177-16.223c1.756-2.811,4.086-5.042,6.823-6.822      C135.744,70.839,185.465,50.04,198.051,50.743z"/>
				<path style="fill:#FFCF00;" d="M250.917,72.707c18.243,0.15,68.298,19.89,86.07,29.633c10.282,5.637,11.459,13.635,7.334,19.884      c-6.583,9.972-42.748,37.274-52.268,44.323c-2.351,1.741-2.092,0.168-6.169-4.156c-5.595-5.933-12.682-8.497-20.646-9.011      c-11.491-0.743-7.747,6.367-13.729-14.009c-4.049-13.794-13.28-45.851-9.913-60.057      C242.648,74.874,246.371,72.669,250.917,72.707z"/>
				<path style="fill:#FFCF00;" d="M4.02,178.269c2.242-9.118,8.795-26.152,19.75-44.615c10.92-18.405,18.756-33.808,29.417-27.796      c10.446,5.891,23.854,32.565,29.694,43.216c1.545,2.818,1.459,3.204-1.325,4.232c-14.151,5.226-24.438,18.106-23.753,34.262      c0.06,1.409,0.451,2.8,0.62,4.208c0.277,2.295-1.683,1.566-5.508,1.362c-6.18-0.33-8.07,1.895-11.569,2.125      c-8.974,0.59-27.019,1.045-34.52-3.969C2.543,188.433,2.785,183.292,4.02,178.269z"/>
			</g>
			<g>
				<path style="fill:#FD8A02;" d="M278.943,87.673c5.047,4.756,2.583,13.283-4.137,15.666c-5.118,1.814-12.067-1.079-13.531-6.548      C258.574,86.708,272.275,81.391,278.943,87.673z"/>
				<path style="fill:#FD8A02;" d="M287.347,115.018c-0.343-5.886,7.394-9.503,12.165-6.683c3.956,2.339,4.826,7.283,1.987,10.811      C297.403,124.237,287.748,121.9,287.347,115.018z"/>
				<path style="fill:#FD8A02;" d="M312.965,117.808c-0.343-5.886,7.394-9.503,12.165-6.683c3.956,2.339,4.826,7.283,1.987,10.811      C323.022,127.027,313.366,124.691,312.965,117.808z"/>
				<path style="fill:#FD8A02;" d="M258.015,119.771c-0.291-4.999,6.279-8.07,10.331-5.675c3.359,1.986,4.098,6.184,1.687,9.181      C266.555,127.6,258.356,125.616,258.015,119.771z"/>
				<path style="fill:#FD8A02;" d="M277.563,142.436c-0.291-4.999,6.279-8.07,10.331-5.675c3.359,1.986,4.098,6.184,1.687,9.181      C286.103,150.265,277.904,148.281,277.563,142.436z"/>
				<path style="fill:#FD8A02;" d="M200.825,68.259c5.047,4.756,2.583,13.284-4.138,15.666c-5.118,1.814-12.067-1.079-13.531-6.548      C180.456,67.293,194.157,61.976,200.825,68.259z"/>
				<path style="fill:#FD8A02;" d="M161.363,98.114c5.047,4.756,2.583,13.283-4.137,15.666c-5.118,1.814-12.067-1.079-13.531-6.548      C140.995,97.149,154.696,91.832,161.363,98.114z"/>
				<path style="fill:#FD8A02;" d="M156.037,78.211c-0.343-5.886,7.394-9.503,12.165-6.683c3.956,2.338,4.826,7.283,1.987,10.811      C166.093,87.429,156.438,85.093,156.037,78.211z"/>
				<path style="fill:#FD8A02;" d="M181.597,104.31c-0.343-5.886,7.394-9.503,12.165-6.683c3.956,2.338,4.826,7.283,1.987,10.811      C191.654,113.529,181.999,111.193,181.597,104.31z"/>
				<path style="fill:#FD8A02;" d="M118.81,97.07c-0.291-4.999,6.279-8.07,10.331-5.675c3.359,1.986,4.098,6.184,1.687,9.181      C127.35,104.899,119.15,102.915,118.81,97.07z"/>
				<path style="fill:#FD8A02;" d="M163.63,131.069c-0.291-4.998,6.279-8.07,10.331-5.675c3.359,1.986,4.098,6.185,1.687,9.181      C172.17,138.898,163.971,136.914,163.63,131.069z"/>
				<path style="fill:#FD8A02;" d="M56.159,155.424c5.047,4.756,2.583,13.283-4.137,15.666c-5.118,1.814-12.067-1.079-13.531-6.548      C35.791,154.458,49.492,149.141,56.159,155.424z"/>
				<path style="fill:#FD8A02;" d="M43.631,127.766c-0.343-5.886,7.394-9.503,12.165-6.683c3.956,2.339,4.826,7.283,1.987,10.811      C53.688,136.985,44.032,134.649,43.631,127.766z"/>
				<path style="fill:#FD8A02;" d="M14.119,179.428c-0.343-5.886,7.394-9.503,12.165-6.683c3.956,2.339,4.826,7.283,1.987,10.811      C24.176,188.647,14.52,186.311,14.119,179.428z"/>
				<path style="fill:#FD8A02;" d="M22.12,144.694c-0.291-4.999,6.279-8.07,10.331-5.675c3.359,1.986,4.098,6.184,1.687,9.181      C30.66,152.523,22.461,150.539,22.12,144.694z"/>
			</g>
			<path style="fill:#FF8EDE;" d="M224.191,455.933c-4.927,1.586-5.883,0.748-10.494,1.506c-22.603,3.714-46.007,5.527-68.595,1.736     c-20.343-3.414-40.426-12.644-40.323-33.37c0.026-5.275-9.016-3.614-31.873-26.22c-32.198-31.845-52.597-80.966-51.392-119.521     c0.064-2.05,0.21-3.602,2.202-2.717c22.257,9.889,82.042,9.721,107.834,7.393c8.414-0.759,15.36-1.104,17.836-1.473     c4.507-0.671,9.044-1.011,13.589-1.299c36.101-2.286,127.664-26.587,172.428-55.083c8.639-5.5,9.863-8.934,10.959-7.195     c3.713,5.893,20.73,54.596,1.369,113.972c-6.16,18.891-13.978,32.227-23.124,44.926c-4.148,5.76-5.861,5.475-4.792,8.453     c8.964,24.962-17.191,42.668-41.503,53.182c-9.015,3.899-17.506,6.931-34.283,11.265     C240.694,452.351,228.587,454.518,224.191,455.933z"/>
			<path style="fill:#FFFFFF;" d="M214.252,328.908c4.198,0.238,6.548,2.597,7.246,5.994c3.746,18.221-22.408,29.271-35.626,18.757     c-4.731-3.763-10.871-13.767-3.821-18.408C185.769,332.803,200.568,328.132,214.252,328.908z"/>
			<g>
				<path style="fill:#FC09B2;" d="M32.891,279.27c-10.075-2.315-25.323-9.987-29.001-20.077      c-5.143-14.109,2.631-26.218,16.999-29.535c18.641-4.303,123.137,7.151,235.284-30.845      c66.883-22.66,80.942-32.621,95.035-17.946c14.209,14.791-0.898,36.483-18.759,46.539      c-27.375,15.412-52.242,27.505-113.735,43.029C168.155,283.197,83.294,290.853,32.891,279.27z"/>
				<path style="fill:#FC09B2;" d="M116.566,423.172c1.075-4.057,13.197,0.273,41.282-1.112      c89.061-4.396,144.131-33.501,148.172-33.914c1.805-0.184,2.905,1.544,1.936,3.001c-5.012,7.536-16.189,11.85-24.043,15.462      c-35.78,16.455-72.618,25.334-115.742,25.48C163.921,432.104,114.249,431.917,116.566,423.172z"/>
				<path style="fill:#FC09B2;" d="M76.803,177.211c5.947-5.964,13.956-1.186,15.929,3.828c0.658,1.671,0.308,3.398,0.064,5.089      c-0.468,3.244-3.183,7.233-5.206,9.814C80.466,205.035,61.221,192.836,76.803,177.211z"/>
				<path style="fill:#FC09B2;" d="M187.366,179.992c-4.818-2.969-5.522-11.133-0.726-14.245c3.983-2.585,9.318-2.61,13.741-1.308      c4.353,1.281,6.958,4.856,6.225,10.655C205.528,183.618,194.635,184.472,187.366,179.992z"/>
				<path style="fill:#FC09B2;" d="M122.477,200.202c0.374-6.367,4.123-12.678,10.585-12.499c4.356,0.12,8.001,1.596,8.54,5.939      c0.474,3.819-0.208,6.514-4.057,10.943C134.663,207.901,122.054,207.402,122.477,200.202z"/>
				<path style="fill:#FC09B2;" d="M251.631,177.959c-0.528-2.894-0.247-5.269,0.757-7.556c2.199-5.006,10.036-4.467,14.866-1.766      c7.665,4.286,3.51,19.471-10.199,15.322C253.88,182.997,251.725,181.092,251.631,177.959z"/>
				<path style="fill:#FC09B2;" d="M141.8,361.979c5.311-9.654,19.521-12.599,28.943-8.684c9.328,3.876,10.96,15.915-1.054,22.314      C153.234,384.373,134.912,374.502,141.8,361.979z"/>
				<path style="fill:#FC09B2;" d="M262.882,340.298c-8.33-7.211-22.679-5.042-30.158,1.899c-7.404,6.872-4.757,18.73,8.731,20.562      C259.93,365.268,273.688,349.653,262.882,340.298z"/>
			</g>
			<g style="opacity:0.5;">
				<path style="fill:#FFFFFF;" d="M64.191,368.563c-21.766-31.238-30.712-74.393-22.417-75.825      c8.425-1.455,9.437,43.51,50.562,84.482c3.883,3.869,8.368,7.144,12.164,11.083c3.416,3.544,3.821,10.326-1.872,12.436      C92.725,404.411,70.486,377.598,64.191,368.563z"/>
				<path style="fill:#FFFFFF;" d="M112.759,138.233c5.447-12.573,15.023-11.951,10.68-5.167c-5.31,8.295-3.644,16.15-4.299,19.506      C117.62,160.36,104.486,157.328,112.759,138.233z"/>
				<path style="fill:#FFFFFF;" d="M98.875,159.809c1.15,1.274,1.061,2.873-0.739,3.47c-1.091,0.362-9.532-0.176-16.843,4.286      c-5.19,3.168-4.555,3.931-7.023,5.719c-2.482,1.798-5.239-0.889-4.581-3.179C72.732,159.53,94.137,154.558,98.875,159.809z"/>
				<path style="fill:#FFFFFF;" d="M52.148,202.103c3.202,2.323-2.523,4.296-7.653,10.006c-2.287,2.546-2.959,5.205-4.534,8.046      c-1.93,3.48-7.106,2.02-7.036-1.933C33.078,209.646,46.417,197.944,52.148,202.103z"/>
			</g>
			<path style="opacity:0.45;fill:#000E3F;" d="M21.251,275.059c-2.986-1.5-2.853-1.658-1.746-3.358     c1.244-1.911,26.212-40.379,27.489-42.27c1.084-1.605,3.933-1.502,4.939,0.187c1.141,1.915,24.999,51.204,25.061,51.322     c0.329,0.619,0.752,0.654,1.094,0.052c4.195-7.395,28.089-52.2,28.216-52.439c0.538-1.012,1.075-1.931,2.366-2.123     c1.21-0.18,2.209,0.094,2.986,1.053c7.202,8.888,32.256,41.358,38.883,49.441c2.097,2.558,0.375,1.235,23.388-53.011     c1.889-4.452,0.874-3.736,6.067-4.706c1.43-0.267,2.513,0.126,3.514,1.222c0.102,0.112,40.179,43.568,40.64,43.96     c0.846,0.719,1.153-0.876,1.522-2.034c20.479-64.204,18.705-59.738,20.463-60.428c1.347-0.529,2.527-0.366,3.644,0.649     c0.128,0.116,41.716,37.141,45.413,39.85c0.879-0.975,5.657-55.267,6.113-57.306c0.466-2.082,2.624-3.05,4.471-1.94     c4.256,2.557,29.758,22.226,38.591,28.528c1.456,1.039,3.637,2.463,2.665,3.818c-1.95,2.72-7.775,8.095-13.695,11.414     c-28.568,16.012-52.79,27.851-114.845,43.553C151.391,287.463,51.207,290.1,21.251,275.059z"/>
			<g style="opacity:0.25;">
				<path style="fill:#000E3F;" d="M13.628,270.414c-0.821-0.702-0.9-1.355-0.119-2.023c20.764-17.781,59.775-10.347,84.439-8.968      c39.412,2.203,85.242,1.172,123.619-9.224c18.569-5.032,50.198-14.187,61.113-30.046c8.248-11.984,7.253-19.927,7.086-29.753      c-0.053-3.109-2.527-1.313,24.519-11.628c7.538-2.875,16.767-5.802,24.207-4.544c14.037,2.373,20.185,14.884,17.744,25.539      c-2.213,9.662-11.555,19.73-19.904,25.225c-31.823,20.943-80.704,36.111-117.638,45.447      C162.407,284.666,41.873,294.549,13.628,270.414z"/>
				<path style="fill:#000E3F;" d="M143.23,210.306c5.783-2.078,10.967-6.898,18.98-10.173c16.028-6.548,24.409,1.066,45.623-3.917      c3.93-0.924,7.268-3.088,10.144-5.874c12.183-11.804-9.133-24.364,13.447-40.382c17.882-12.686,13.304-21.653,15.12-21.853      c0.484-0.054,0.689,0.609,0.808,1.084c2.358,9.411,4.748,14.833,6.756,23.307c0.77,3.253-0.872,1.638-8.061,5.944      c-4.596,2.753-8.302,6.438-11.367,10.799c-0.808,1.15-0.557,1.234-0.313,1.541c0.22,0.277,1.35-1.11,1.487-1.309      c15.287-22.066,48.633-18.615,55.383,3.513c0.974,3.195,1.261,3.761,1.628,3.774c1.293,0.043-0.573-4.265-0.936-5.273      c-1.258-3.49-2.581-1.611,15.8-15.63c1.628-1.241,2.513-1.989,4.321-0.861c7.452,4.647,12.791,11.067,15.074,16.284      c0.673,1.537,0.366,2.27-1.301,2.639c-10.383,2.295-20.227,7.077-30.184,10.691c-33.958,12.325-101.537,32.272-131.72,35.874      c-39.225,4.681-119.887,9.388-121.269,6.122c-0.546-1.29,0.989-2.027,1.813-2.851c6.153-6.156,13.572-10.146,21.813-12.753      C93.555,202.372,122.145,217.882,143.23,210.306z M267.067,172.292c0.139-1.264,0.985-2.302-0.183-3.052      c-8.453-5.428-17.363-1.565-14.287,9.253c0.164,0.576,0.647,0.768,1.19,0.502C257.664,177.093,266.367,178.645,267.067,172.292z      "/>
				<path style="fill:#000E3F;" d="M76.375,187.236c1.814,0.703,6.306,3.685,9.256-1.129c2.663-4.344,1.5-7.631,1.858-9.626      c0.21-1.169,1.437-1.613,2.305-0.87c2.896,2.482,5.049,4.521,4.546,8.303c-1.39,10.46-10.763,20.562-18.744,14.212      c-7.254-5.771-4.573-5.014-6.505-7.366c-0.333-0.406-0.151-0.979,0.019-1.459C69.882,187.128,72.546,185.752,76.375,187.236z"/>
				<path style="fill:#000E3F;" d="M184.624,178.577c-1.674-0.916-0.663-3.411,1.637-3.869c3.516-0.699,3.258-0.531,9.009,0.386      c6.451,1.028,5.678-5.053,6.099-8.385c0.309-2.446,3.259-2.297,4.437-0.237c3.727,6.521,2.632,14.426-4.857,15.663      C187.769,184.311,188.499,180.696,184.624,178.577z"/>
				<path style="fill:#000E3F;" d="M122.207,203.242c-0.302-3.591,5.942-3.327,8.266-2.872c5.389,1.056,9.95-4.371,7.712-9.321      c-0.566-1.252-1.329-1.82-0.385-2.686c2.508-2.3,4.994,4.773,5.274,6.367c0.892,5.075-2.052,10.668-6.708,12.816      C132.579,209.293,122.669,208.738,122.207,203.242z"/>
			</g>
			<g style="opacity:0.5;">
				<path style="fill:#FD8A02;" d="M211.737,82.426c-1.093,19.562-3.221,35.099-6.221,51.222c-0.278,1.494-0.493,2.501-1.989,2.583      c-8.519,0.47-17.462,4.692-23.66,13.096c-1.55,2.102-1.535,2.425-3.494,1.19c-11.656-7.345-10.711-2.97-17.824-7.281      c-1.024-0.62-1.303-1.485-1.007-2.592c1.843-6.881,7.923-15.746,17.594-20.782c25.221-13.135,5.882-41.06,17.233-65.236      c2.214-4.715,3.229-4.081,6.548-3.802C212.306,51.95,212.486,69.027,211.737,82.426z"/>
				<path style="fill:#FD8A02;" d="M253.119,144.741c-0.377-1.519-0.944-2.309,0.487-3.614c3.148-2.87,6.843-4.27,11.079-4.2      c8.124,0.135,27.786,8.84,40.314-3.367c12.544-12.224,16.381-24.708,35.937-26.591c4.391-0.423,7.905,8.181,3.591,14.943      c-6.192,9.706-37.169,33.011-46.421,39.911c-8.224,6.132-6.997,6.799-9.745,3.362c-7.501-9.385-17.33-12.893-29.081-11.439      c-3.315,0.41-3.502,0.375-4.374-2.936C254.339,148.655,253.373,146.619,253.119,144.741z"/>
				<path style="fill:#FD8A02;" d="M58.034,148.542c2.5-5.98-0.915-9.588-5.481-14.152c-7.842-7.837-10.992-16.05-11.109-22.564      c-0.031-1.703-0.359-3.561,1.074-4.871c12.809-11.714,29.12,21.519,40.17,41.791c0.974,1.786,1.954,3.068,0.319,3.889      c-4.391,2.203-19.16,6.407-24.337,25.477c-1.808,6.66-0.38,12.305-0.252,13.537c0.364,3.491-3.131,0.402-10.198,1.807      c-0.778,0.155-1.35-0.21-1.809-0.84c-1.02-1.398-1.833-2.903-2.523-4.49C35.181,168.099,53.54,159.295,58.034,148.542z"/>
			</g>
			<path style="opacity:0.5;fill:#FC09B2;" d="M283.91,361.656c5.398-6.09,8.745-13.357,11.889-20.718     c14.711-34.453,8.447-70.479,14.849-93.44c0.625-2.24,1.508-4.406,2.22-6.623c0.43-1.336,1.238-2.242,2.494-2.89     c23.187-11.963,24.118-13.911,29.289-18.256c1.864-1.566,2.537,1.559,3.116,3.142c20.263,55.447,4.525,124.756-27.29,160.717     c-2.691,3.041,1.368,4.061,1.283,14.256c-0.083,9.948-7.301,19.168-15.082,25.695c-26.113,21.906-61.483,30.196-94.509,34.517     c-29.91,3.913-67.923,8.727-94.547-8.959c-0.594-0.395-0.75-0.967-0.444-1.585c8.348-16.893,26.739-32.094,44.985-36.844     C205.774,399.316,253.899,395.517,283.91,361.656z"/>
		</g>
		<g>
			<path style="fill:#000E3F;" d="M102.526,426.598c-0.002-2.751-1.86-2.518-9.542-7.686c-20.567-13.838-37.267-33.194-49.71-54.517     c-13.63-23.356-23.12-50.371-23.848-77.598c-0.108-4.029,1.398-9.72-2.898-11.945C6.54,269.682-0.798,260.624,0.07,249.346     c0.792-10.29,8.7-18.609,17.307-20.956c2.245-0.613,3.425-1.359,3.684-3.703c1.079-9.738,6.315-18.931,12.062-24.29     c1.956-1.824,2.272-2.02,2.116-2.408c-0.469-1.176-34.371,3.259-34.183-13.532c0.195-17.334,23.369-58.146,33.508-72.164     c8.843-12.226,17.72-13.828,27.894-0.793c9.379,12.018,11.727,17.262,21.989,36.003c1.095,2,1.545,3.039,3.703,2.907     c2.922-0.178,5.848-0.443,8.789-0.076c1.556,0.194,1.922-0.172,2.058-1.872c0.84-10.488,6.863-21.28,17.804-28.293     c3.083-1.976,1.594-1.457-5.813-8.465c-2.899-2.744-5.223-5.919-6.744-9.635c-5.34-13.051,11.344-21.033,20.294-25.85     c14.505-7.807,34.445-16.325,49.187-21.632c8.765-3.155,19.217-8.216,28.838-5.221c7.816,2.433,10.683,11.13,11.271,18.495     c0.858,10.738-0.684,27.122-1.927,37.87c-0.626,5.412,6.798,1.282,17.309,19.691c1.219,2.134,0.786,0.904,8.429-1.471     c11.4-3.542,5.06,4.674,1.496-29.737c-2.16-20.87,2.704-27.729,26.638-21.415c26.981,7.117,57.097,19.591,71.44,27.259     c11.53,6.164,13.727,14.441,9.416,22.435c-4.677,8.673-30.883,28.237-32.565,29.896c-2.342,2.309,4.71,0.849,14.037,16.253     c1.936,3.197,0.933,3.253,5.68,3.11c17.103-0.513,29.997,15.186,23.431,32.156c-1.781,4.603-4.585,8.565-7.795,12.246     c-0.916,1.05-1.137,1.905-0.609,3.243c20.023,50.756,9.426,116.983-20.922,158.254c-5.211,7.087-6.678,7.127-5.518,10.052     c3.991,10.059,0.443,21.19-6.39,29.458c-27.549,33.337-101.584,47.098-145.073,46.357c-18.541-0.316-40.236-2.238-55.769-13.484     C107.843,444.749,101.887,436.011,102.526,426.598z M303.201,424.909c10.069-7.679,19.907-19.118,17.099-32.714     c-1.081-5.232-3.269-6.605-0.591-9.307c3.339-3.369,9.947-13.206,12.369-17.257c6.67-11.156,11.88-23.152,15.677-35.577     c12.095-39.589,8.759-84.037-1.351-107.942c-1.356-3.205-1.045,0.238-13.777,7.717c-40.803,23.97-92.567,40.051-139.263,48.808     c-47.139,8.84-124.252,14.53-168.432,0.407c-0.878-0.366-2-1.038-2.196,0.242c-1.232,8.065,1.946,36.785,12.876,62.567     c11.439,26.982,29.335,51.786,52.421,69.655c14.44,11.177,17.396,9.491,17.674,13.17c0.115,1.518-0.212,5.902,1.684,10.724     c5.6,14.239,23.223,20.438,38.264,22.784c25.962,4.05,57.293,1.289,85.091-4.785C256.009,447.879,282.18,440.587,303.201,424.909     z M298.104,243.419c7.763-3.399,15.196-7.488,22.912-10.954c11.848-6.156,23.106-12.919,30.528-24.346     c8.159-12.561,3.937-27.1-9.616-31.954c-13.891-4.975-27.766,5.224-69.89,19.115c-72.633,23.95-120.902,33.965-215.707,34.241     c-9.528,0.028-19.117-0.363-28.634,0.214c-5.128,0.311-10.438,1.004-14.795,3.939c-1.741,1.172-3.266,2.637-4.643,4.214     c-7.562,8.658-6.634,21.814,3.149,29.656c9.257,7.42,20.742,10.792,32.274,12.68     C126.086,293.714,238.339,270.264,298.104,243.419z M318.13,175.105c7.581-2.724,8.537-2.123,7.842-3.663     c-2.108-4.668-7.433-11.236-14.013-15.255c-2.013-1.229-0.083-2.077-17.262,10.899c-1.6,1.209-2.721,2.151-1.947,3.623     c0.766,1.457,0.968,3.089,1.503,4.616c0.839,2.396-1.592,3.532-2.733,1.992c-1.005-1.356-1.645-12.713-14.757-18.96     c-13.935-6.639-31.1-1.218-40.005,11.631c-0.999,1.441-2.03,3.099-3.419,2.036c-1.245-0.953-0.325-2.176,0.534-3.445     c4.025-5.944,9.372-10.308,15.888-13.267c3.732-1.695,4.002-0.982,3.036-4.119c-2.343-7.612-3.702-15.821-6.935-23.108     c-1.979-4.462-12.619,1.536-16.042,2.557c-2.174,0.644-2.643-1.276-3.204-2.774c-2.582-6.897-8.212-12.779-14.346-15.853     c-1.383-0.693-1.048,0.163-3.588,15.86c-1.042,6.436-1.89,7.325,0.586,7.705c4.551,0.698,8.145,2.385,11.2,5.05     c1.245,1.086-0.255,3.26-1.685,2.475c-1.741-0.955-2.705-2.038-4.957-2.93c-10.872-4.305-25.122-0.322-32.968,11.456     c-3.43,5.149-2.527,1.125-11.828-2.695c-7.001-2.876-15.156-2.218-22.497,2.97c-8.817,6.231-10.488,14.75-11.759,17.911     c-0.769,1.912-3.268,1.222-2.898-0.945c0.555-3.258,2.459-7.14,3.972-9.82c3.949-6.993,10.298-12.112,19.044-14.505     c2.831-0.774-11.686-7.004-31.196-22.032c-1.49-1.147-2.626-1.162-4.053-0.328c-9.205,5.381-16.202,14.545-17.389,26.364     c-0.239,2.38,1.165,5.945-3.856,5.222c-22.226-3.196-42.213,16.424-37.765,36.997c0.171,0.792,0.394,1.578,0.501,2.379     c0.271,2.035-0.813,3.085-2.794,2.757c-0.199-0.033-0.391-0.109-0.59-0.144c-14.517-2.585-26.359,7.142-31.377,20.711     c-1.053,2.849-1.888,5.781-2.169,8.833c-0.196,2.136,0.716,0.735,10.891,0.772c13.161,0.064,26.327,0.315,39.488,0.087     C169.237,224.52,232.178,206.86,318.13,175.105z M179.134,56.263c-11.977,4.172-19.674,6.416-38.8,15.683     c-8.292,4.018-16.467,8.256-24.351,13.034c-7.709,4.673-12.33,11.543-6.7,19.809c8.232,12.086,24.985,21.65,41.499,32.399     c4.129,2.687,8.88,6.685,13.916,7.31c4.531,0.563,7.74,2.421,11.703,4.789c1.525,0.911,1.574,0.992,2.606-0.575     c3.298-5.008,11.441-11.526,19.96-12.764c1.202-0.175,2.387-0.481,3.591-0.626c1.212-0.146,1.721-0.824,1.913-1.96     c0.625-3.692,1.324-7.371,1.943-11.064c2.016-12.024,7.156-50.435,2.5-62.348C203.945,47.23,188.475,53.009,179.134,56.263z      M256.486,151.87c0.199,0.514,0.627,0.802,1.176,0.792c2.311-0.041,19.932-3.308,31.435,11.72     c1.207,1.577,1.331,2.037,3.346,0.492c22.999-17.628,48.584-36.817,52.014-45.218c4.119-10.089-6.355-15.903-13.977-19.526     c-12.005-5.706-48.337-21.216-70.563-25.339c-3.822-0.709-8.071-1.456-11.935-0.617c-9.245,2.008-5.76,17.096-4.835,23.544     c1.53,10.666,3.816,21.244,6.479,31.681C251.559,136.976,253.659,144.572,256.486,151.87z M43.085,107.759     c-5.857,4.792-10.17,12.733-15.074,20.805C16.704,147.173,11.937,157.9,6.385,173.677c-4.572,12.994-2.142,18.535,11.539,20.126     c5.774,0.671,20.736,1.247,24.814,0.106c9.955-2.784,12.234-1.567,13.763-1.681c1.335-0.1,0.917-1.402,0.546-3.379     c-1.589-8.469,1.977-21.387,13.417-30.579c8.34-6.701,13.133-5.489,12.033-7.579c-5.368-10.205-19.483-37.74-29.27-43.575     C51.454,106.059,46.103,105.29,43.085,107.759z"/>
			<path style="fill:#000E3F;" d="M70.72,181.689c6.104-10.52,13.623-11.497,20.007-6.553c6.084,4.711,5.353,11.948,1.648,17.72     c-2.835,4.417-4.422,6.858-8.873,8.272c-3.427,1.088-10.701-0.932-14.211-8.12C68.942,192.291,68.022,186.338,70.72,181.689z      M86.235,195.908c4.349-5.112,8.443-12.473,3.685-17.245c-3.479-3.489-8.275-4.622-12.329-0.678     c-1.975,1.921-3.632,4.076-4.765,6.582c-1.899,4.199-1.701,7.985,3.418,11.855C78.884,198.418,83.972,198.567,86.235,195.908z"/>
			<path style="fill:#000E3F;" d="M205.464,181.801c-7.673,7.305-27.444,0.75-23.965-12.054c2.314-8.517,12.975-9.651,20.051-7.148     C210.259,165.678,210.861,176.662,205.464,181.801z M201.058,180.712c6.702-2.185,6.441-13.551-1.804-15.507     c-16.27-3.859-18.203,10.03-10.543,14.374C192.579,181.772,197.06,182.015,201.058,180.712z"/>
			<path style="fill:#000E3F;" d="M141.875,189.021c5.673,6.873-0.481,17.629-7.829,20.275c-8.299,2.989-17.977-4.446-11.674-16.735     C125.794,185.889,136.603,182.633,141.875,189.021z M128.055,190.452c-5.487,4.888-5.12,11.878-2.954,14.044     c5.425,5.423,15.582,0.119,15.465-9.8C140.495,188.712,132.029,186.913,128.055,190.452z"/>
			<path style="fill:#000E3F;" d="M258.518,164.316c7.956-0.285,16.265,4.765,14.554,12.538     c-2.131,9.684-10.364,12.449-19.001,8.144C245.747,180.849,248.214,164.684,258.518,164.316z M255.021,181.901     c3.121,1.786,6.518,2.132,9.93,1.143c2.942-0.852,4.077-3.376,4.857-6.089c1.992-6.924-7.717-10.922-13.317-8.905     C251.794,169.741,250.54,179.337,255.021,181.901z"/>
			<g>
				<g>
					<path style="fill:#000E3F;" d="M153.765,328.386c4.65-1.985,10.755-0.594,13.912,4.497c5.558,8.958-4.842,18.529-14.075,13.984       C146.174,343.211,145.813,331.781,153.765,328.386z"/>
				</g>
				<g>
					<path style="fill:#000E3F;" d="M239.972,312.95c-5.05-0.249-10.292,3.175-11.488,9.045       c-2.104,10.33,10.971,15.698,18.053,8.231C252.235,324.219,248.608,313.375,239.972,312.95z"/>
				</g>
			</g>
		</g>
	</g>
</g>















</svg>
